<ttFont>
<head>
    <!-- Most of this table will be recalculated by the compiler -->
    <tableVersion value="1.0"/>
    <fontRevision value="0.79999"/>
    <checkSumAdjustment value="0xee6226ce"/>
    <magicNumber value="0x5f0f3cf5"/>
    <flags value="00000010 00001011"/>
    <unitsPerEm value="1024"/>
    <created value="Sat May  3 09:53:36 2014"/>
    <modified value="Sat May  3 10:03:43 2014"/>
    <xMin value="-595"/>
    <yMin value="-231"/>
    <xMax value="1225"/>
    <yMax value="1149"/>
    <macStyle value="00000000 00000000"/>
    <lowestRecPPEM value="8"/>
    <fontDirectionHint value="0"/>
    <indexToLocFormat value="1"/>
    <glyphDataFormat value="0"/>
  </head>
    <TTGlyph name=".notdef" xMin="34" yMin="0" xMax="306" yMax="682">
      <contour>
        <pt x="34" y="0" on="1"/>
        <pt x="34" y="682" on="1"/>
        <pt x="306" y="682" on="1"/>
        <pt x="306" y="0" on="1"/>
      </contour>
      <contour>
        <pt x="68" y="34" on="1"/>
        <pt x="272" y="34" on="1"/>
        <pt x="272" y="648" on="1"/>
        <pt x="68" y="648" on="1"/>
      </contour>
    </TTGlyph>
    <TTGlyph name="A" xMin="-14" yMin="-3" xMax="631" yMax="663">
      <contour>
        <pt x="95" y="139" on="1"/>
        <pt x="227" y="478" on="0"/>
        <pt x="288" y="634" on="1"/>
        <pt x="292" y="642" on="0"/>
        <pt x="319" y="663" on="0"/>
        <pt x="326" y="663" on="1"/>
        <pt x="328" y="663" on="0"/>
        <pt x="329" y="662" on="1"/>
        <pt x="331" y="660" on="0"/>
        <pt x="332" y="660" on="1"/>
        <pt x="536" y="126" on="1"/>
        <pt x="561" y="60" on="1"/>
        <pt x="567" y="45" on="0"/>
        <pt x="617" y="26" on="0"/>
        <pt x="629" y="26" on="1"/>
        <pt x="637" y="15" on="0"/>
        <pt x="631" y="-3" on="1"/>
        <pt x="531" y="2" on="0"/>
        <pt x="521" y="2" on="1"/>
        <pt x="520" y="2" on="0"/>
        <pt x="405" y="-3" on="1"/>
        <pt x="401" y="1" on="0"/>
        <pt x="402" y="22" on="0"/>
        <pt x="406" y="26" on="1"/>
        <pt x="447" y="26" on="0"/>
        <pt x="462" y="39" on="1"/>
        <pt x="466" y="43" on="0"/>
        <pt x="466" y="53" on="1"/>
        <pt x="466" y="66" on="0"/>
        <pt x="432" y="164" on="0"/>
        <pt x="415" y="206" on="1"/>
        <pt x="398" y="248" on="1"/>
        <pt x="395" y="252" on="0"/>
        <pt x="392" y="252" on="1"/>
        <pt x="379" y="253" on="0"/>
        <pt x="293" y="253" on="1"/>
        <pt x="230" y="253" on="0"/>
        <pt x="185" y="250" on="1"/>
        <pt x="180" y="247" on="1"/>
        <pt x="152" y="173" on="0"/>
        <pt x="135" y="125" on="1"/>
        <pt x="121" y="84" on="0"/>
        <pt x="121" y="54" on="1"/>
        <pt x="121" y="39" on="0"/>
        <pt x="173" y="26" on="0"/>
        <pt x="190" y="26" on="1"/>
        <pt x="192" y="24" on="0"/>
        <pt x="194" y="1" on="0"/>
        <pt x="192" y="-3" on="1"/>
        <pt x="178" y="-2" on="0"/>
        <pt x="144" y="0" on="0"/>
        <pt x="115" y="2" on="0"/>
        <pt x="75" y="2" on="0"/>
        <pt x="43" y="0" on="0"/>
        <pt x="5" y="-2" on="0"/>
        <pt x="-12" y="-3" on="1"/>
        <pt x="-14" y="-1" on="0"/>
        <pt x="-14" y="21" on="0"/>
        <pt x="-12" y="26" on="1"/>
        <pt x="1" y="26" on="0"/>
        <pt x="41" y="36" on="0"/>
        <pt x="48" y="45" on="1"/>
        <pt x="69" y="72" on="0"/>
      </contour>
      <contour>
        <pt x="291" y="542" on="1"/>
        <pt x="199" y="298" on="1"/>
        <pt x="199" y="294" on="0"/>
        <pt x="201" y="294" on="1"/>
        <pt x="253" y="292" on="0"/>
        <pt x="292" y="292" on="1"/>
        <pt x="330" y="292" on="0"/>
        <pt x="376" y="295" on="1"/>
        <pt x="379" y="300" on="1"/>
      </contour>
    </TTGlyph>
    <TTGlyph name="AE" xMin="-16" yMin="-4" xMax="868" yMax="664">
      <contour>
        <pt x="473" y="0" on="1"/>
        <pt x="473" y="0" on="0"/>
        <pt x="357" y="-3" on="1"/>
        <pt x="355" y="-1" on="0"/>
        <pt x="354" y="14" on="0"/>
        <pt x="356" y="26" on="0"/>
        <pt x="357" y="26" on="1"/>
        <pt x="369" y="26" on="0"/>
        <pt x="420" y="41" on="0"/>
        <pt x="423" y="49" on="1"/>
        <pt x="430" y="76" on="0"/>
        <pt x="430" y="135" on="1"/>
        <pt x="430" y="255" on="1"/>
        <pt x="394" y="257" on="0"/>
        <pt x="341" y="257" on="1"/>
        <pt x="316" y="257" on="0"/>
        <pt x="239" y="252" on="1"/>
        <pt x="234" y="249" on="1"/>
        <pt x="192" y="178" on="0"/>
        <pt x="161" y="129" on="1"/>
        <pt x="121" y="67" on="0"/>
        <pt x="121" y="52" on="1"/>
        <pt x="121" y="41" on="0"/>
        <pt x="152" y="28" on="0"/>
        <pt x="176" y="26" on="0"/>
        <pt x="185" y="26" on="1"/>
        <pt x="187" y="24" on="0"/>
        <pt x="189" y="1" on="0"/>
        <pt x="187" y="-3" on="1"/>
        <pt x="173" y="-2" on="0"/>
        <pt x="139" y="0" on="0"/>
        <pt x="110" y="2" on="0"/>
        <pt x="70" y="2" on="0"/>
        <pt x="40" y="0" on="0"/>
        <pt x="3" y="-2" on="0"/>
        <pt x="-14" y="-3" on="1"/>
        <pt x="-16" y="-1" on="0"/>
        <pt x="-16" y="21" on="0"/>
        <pt x="-14" y="26" on="1"/>
        <pt x="13" y="26" on="0"/>
        <pt x="43" y="45" on="1"/>
        <pt x="74" y="65" on="0"/>
        <pt x="118" y="137" on="1"/>
        <pt x="395" y="584" on="1"/>
        <pt x="402" y="596" on="0"/>
        <pt x="402" y="604" on="1"/>
        <pt x="402" y="616" on="0"/>
        <pt x="370" y="629" on="0"/>
        <pt x="357" y="629" on="1"/>
        <pt x="354" y="634" on="0"/>
        <pt x="355" y="656" on="0"/>
        <pt x="357" y="658" on="1"/>
        <pt x="406" y="657" on="0"/>
        <pt x="473" y="657" on="1"/>
        <pt x="518" y="657" on="0"/>
        <pt x="738" y="664" on="0"/>
        <pt x="794" y="664" on="1"/>
        <pt x="798" y="635" on="0"/>
        <pt x="821" y="540" on="0"/>
        <pt x="823" y="528" on="1"/>
        <pt x="818" y="523" on="0"/>
        <pt x="792" y="523" on="0"/>
        <pt x="791" y="530" on="1"/>
        <pt x="776" y="586" on="0"/>
        <pt x="720" y="624" on="0"/>
        <pt x="675" y="624" on="1"/>
        <pt x="589" y="624" on="1"/>
        <pt x="523" y="624" on="0"/>
        <pt x="520" y="613" on="1"/>
        <pt x="515" y="597" on="0"/>
        <pt x="515" y="542" on="1"/>
        <pt x="515" y="355" on="1"/>
        <pt x="515" y="349" on="0"/>
        <pt x="558" y="349" on="1"/>
        <pt x="611" y="349" on="1"/>
        <pt x="678" y="349" on="0"/>
        <pt x="708" y="368" on="0"/>
        <pt x="719" y="412" on="1"/>
        <pt x="720" y="418" on="0"/>
        <pt x="721" y="421" on="1"/>
        <pt x="722" y="428" on="0"/>
        <pt x="736" y="428" on="1"/>
        <pt x="748" y="428" on="0"/>
        <pt x="753" y="423" on="1"/>
        <pt x="753" y="234" on="1"/>
        <pt x="749" y="230" on="0"/>
        <pt x="737" y="230" on="1"/>
        <pt x="724" y="230" on="0"/>
        <pt x="721" y="238" on="1"/>
        <pt x="714" y="266" on="0"/>
        <pt x="704" y="293" on="0"/>
        <pt x="698" y="300" on="0"/>
        <pt x="693" y="304" on="1"/>
        <pt x="680" y="312" on="0"/>
        <pt x="587" y="312" on="1"/>
        <pt x="515" y="312" on="0"/>
        <pt x="515" y="303" on="1"/>
        <pt x="515" y="113" on="1"/>
        <pt x="515" y="49" on="0"/>
        <pt x="521" y="44" on="1"/>
        <pt x="534" y="34" on="0"/>
        <pt x="592" y="34" on="1"/>
        <pt x="640" y="34" on="1"/>
        <pt x="722" y="34" on="0"/>
        <pt x="766" y="61" on="1"/>
        <pt x="799" y="80" on="0"/>
        <pt x="829" y="162" on="1"/>
        <pt x="830" y="168" on="0"/>
        <pt x="843" y="168" on="1"/>
        <pt x="862" y="168" on="0"/>
        <pt x="868" y="162" on="1"/>
        <pt x="863" y="149" on="0"/>
        <pt x="842" y="92" on="0"/>
        <pt x="830" y="57" on="0"/>
        <pt x="816" y="11" on="0"/>
        <pt x="814" y="-4" on="1"/>
        <pt x="762" y="-4" on="0"/>
        <pt x="542" y="0" on="0"/>
      </contour>
      <contour>
        <pt x="430" y="297" on="1"/>
        <pt x="430" y="566" on="1"/>
        <pt x="266" y="300" on="1"/>
        <pt x="265" y="296" on="0"/>
        <pt x="267" y="296" on="1"/>
        <pt x="293" y="295" on="0"/>
        <pt x="346" y="295" on="1"/>
        <pt x="392" y="295" on="0"/>
      </contour>
    </TTGlyph>
    <TTGlyph name="AE.alt01" xMin="-18" yMin="-4" xMax="817" yMax="664">
      <contour>
        <pt x="555" y="616" on="1"/>
        <pt x="468" y="616" on="0"/>
        <pt x="468" y="590" on="1"/>
        <pt x="468" y="588" on="1"/>
        <pt x="490" y="347" on="1"/>
        <pt x="491" y="340" on="0"/>
        <pt x="526" y="340" on="1"/>
        <pt x="563" y="340" on="1"/>
        <pt x="629" y="340" on="0"/>
        <pt x="655" y="359" on="0"/>
        <pt x="668" y="411" on="1"/>
        <pt x="669" y="418" on="0"/>
        <pt x="682" y="418" on="1"/>
        <pt x="694" y="418" on="0"/>
        <pt x="699" y="413" on="1"/>
        <pt x="698" y="402" on="0"/>
        <pt x="698" y="378" on="1"/>
        <pt x="698" y="325" on="0"/>
        <pt x="712" y="221" on="1"/>
        <pt x="708" y="217" on="0"/>
        <pt x="695" y="217" on="1"/>
        <pt x="683" y="217" on="0"/>
        <pt x="680" y="224" on="1"/>
        <pt x="673" y="251" on="0"/>
        <pt x="661" y="279" on="0"/>
        <pt x="656" y="283" on="0"/>
        <pt x="649" y="288" on="1"/>
        <pt x="636" y="296" on="0"/>
        <pt x="540" y="296" on="1"/>
        <pt x="498" y="296" on="0"/>
        <pt x="498" y="287" on="1"/>
        <pt x="498" y="286" on="1"/>
        <pt x="512" y="154" on="1"/>
        <pt x="518" y="84" on="0"/>
        <pt x="521" y="67" on="1"/>
        <pt x="522" y="59" on="0"/>
        <pt x="529" y="51" on="0"/>
        <pt x="564" y="44" on="0"/>
        <pt x="598" y="44" on="1"/>
        <pt x="691" y="44" on="0"/>
        <pt x="724" y="61" on="1"/>
        <pt x="754" y="77" on="0"/>
        <pt x="778" y="162" on="1"/>
        <pt x="780" y="168" on="0"/>
        <pt x="793" y="168" on="1"/>
        <pt x="811" y="168" on="0"/>
        <pt x="817" y="162" on="1"/>
        <pt x="781" y="55" on="0"/>
        <pt x="772" y="-4" on="1"/>
        <pt x="715" y="-4" on="0"/>
        <pt x="520" y="2" on="0"/>
        <pt x="477" y="2" on="1"/>
        <pt x="343" y="-3" on="1"/>
        <pt x="340" y="0" on="0"/>
        <pt x="340" y="11" on="1"/>
        <pt x="340" y="31" on="0"/>
        <pt x="345" y="31" on="1"/>
        <pt x="357" y="31" on="0"/>
        <pt x="416" y="44" on="0"/>
        <pt x="419" y="50" on="1"/>
        <pt x="427" y="63" on="0"/>
        <pt x="427" y="89" on="1"/>
        <pt x="427" y="104" on="0"/>
        <pt x="408" y="285" on="1"/>
        <pt x="408" y="293" on="0"/>
        <pt x="399" y="293" on="1"/>
        <pt x="254" y="293" on="1"/>
        <pt x="250" y="293" on="0"/>
        <pt x="248" y="290" on="1"/>
        <pt x="165" y="131" on="1"/>
        <pt x="133" y="74" on="0"/>
        <pt x="133" y="54" on="1"/>
        <pt x="133" y="39" on="0"/>
        <pt x="181" y="24" on="0"/>
        <pt x="194" y="24" on="1"/>
        <pt x="196" y="24" on="0"/>
        <pt x="196" y="20" on="1"/>
        <pt x="196" y="9" on="0"/>
        <pt x="190" y="-3" on="1"/>
        <pt x="90" y="2" on="0"/>
        <pt x="88" y="2" on="1"/>
        <pt x="68" y="2" on="0"/>
        <pt x="38" y="0" on="0"/>
        <pt x="1" y="-2" on="0"/>
        <pt x="-16" y="-3" on="1"/>
        <pt x="-18" y="-1" on="0"/>
        <pt x="-18" y="4" on="1"/>
        <pt x="-18" y="24" on="0"/>
        <pt x="-11" y="24" on="1"/>
        <pt x="0" y="24" on="0"/>
        <pt x="41" y="36" on="0"/>
        <pt x="49" y="45" on="1"/>
        <pt x="70" y="66" on="0"/>
        <pt x="107" y="126" on="0"/>
        <pt x="150" y="211" on="0"/>
        <pt x="274" y="443" on="0"/>
        <pt x="356" y="586" on="1"/>
        <pt x="358" y="590" on="0"/>
        <pt x="358" y="595" on="1"/>
        <pt x="358" y="606" on="0"/>
        <pt x="341" y="625" on="0"/>
        <pt x="321" y="625" on="1"/>
        <pt x="316" y="625" on="0"/>
        <pt x="316" y="634" on="1"/>
        <pt x="316" y="649" on="0"/>
        <pt x="323" y="656" on="1"/>
        <pt x="416" y="656" on="1"/>
        <pt x="460" y="656" on="0"/>
        <pt x="680" y="664" on="0"/>
        <pt x="736" y="664" on="1"/>
        <pt x="753" y="543" on="0"/>
        <pt x="755" y="530" on="1"/>
        <pt x="750" y="525" on="0"/>
        <pt x="724" y="525" on="0"/>
        <pt x="723" y="532" on="1"/>
        <pt x="715" y="561" on="0"/>
        <pt x="688" y="599" on="0"/>
        <pt x="654" y="613" on="0"/>
        <pt x="633" y="616" on="0"/>
        <pt x="618" y="616" on="1"/>
      </contour>
      <contour>
        <pt x="276" y="340" on="1"/>
        <pt x="298" y="339" on="0"/>
        <pt x="334" y="339" on="1"/>
        <pt x="375" y="339" on="0"/>
        <pt x="397" y="341" on="1"/>
        <pt x="402" y="341" on="0"/>
        <pt x="402" y="346" on="1"/>
        <pt x="382" y="547" on="1"/>
        <pt x="275" y="344" on="1"/>
        <pt x="275" y="342" on="1"/>
      </contour>
    </TTGlyph>
    <TTGlyph name="AEacute" xMin="-14" yMin="-4" xMax="868" yMax="861">
      <component glyphName="AE" x="0" y="0" flags="0x1204"/>
      <component glyphName="acutecomb.cap" x="869" y="0" flags="0x1004"/>
    </TTGlyph>
    <TTGlyph name="Aacute" xMin="-12" yMin="-3" xMax="631" yMax="861">
      <component glyphName="A" x="0" y="0" flags="0x1204"/>
      <component glyphName="acutecomb.cap" x="619" y="0" flags="0x1004"/>
    </TTGlyph>
    <TTGlyph name="Abreve" xMin="-12" yMin="-3" xMax="631" yMax="833">
      <component glyphName="A" x="0" y="0" flags="0x1204"/>
      <component glyphName="uni0306.cap" x="581" y="-3" flags="0x1004"/>
    </TTGlyph>
    <TTGlyph name="Acircumflex" xMin="-12" yMin="-3" xMax="631" yMax="859">
      <component glyphName="A" x="0" y="0" flags="0x1204"/>
      <component glyphName="uni0302.cap" x="580" y="-1" flags="0x1004"/>
    </TTGlyph>
    <TTGlyph name="Adieresis" xMin="-12" yMin="-3" xMax="631" yMax="828">
      <component glyphName="uni0308.cap" x="156" y="16" flags="0x1004"/>
      <component glyphName="A" x="0" y="0" flags="0x1204"/>
    </TTGlyph>
    <TTGlyph name="Agrave" xMin="-12" yMin="-3" xMax="631" yMax="861">
      <component glyphName="A" x="0" y="0" flags="0x1204"/>
      <component glyphName="gravecomb.cap" x="523" y="0" flags="0x1004"/>
    </TTGlyph>
    <TTGlyph name="Alpha" xMin="-11" yMin="-12" xMax="549" yMax="666">
      <contour>
        <pt x="-11" y="26" on="1"/>
        <pt x="14" y="52" on="0"/>
        <pt x="66" y="153" on="0"/>
        <pt x="121" y="307" on="0"/>
        <pt x="153" y="404" on="0"/>
        <pt x="207" y="589" on="0"/>
        <pt x="210" y="599" on="1"/>
        <pt x="190" y="623" on="0"/>
        <pt x="141" y="597" on="1"/>
        <pt x="138" y="603" on="0"/>
        <pt x="138" y="613" on="1"/>
        <pt x="143" y="630" on="0"/>
        <pt x="192" y="666" on="0"/>
        <pt x="213" y="666" on="1"/>
        <pt x="255" y="666" on="0"/>
        <pt x="287" y="626" on="1"/>
        <pt x="307" y="602" on="0"/>
        <pt x="342" y="528" on="0"/>
        <pt x="361" y="475" on="0"/>
        <pt x="397" y="362" on="0"/>
        <pt x="405" y="339" on="1"/>
        <pt x="497" y="68" on="0"/>
        <pt x="549" y="4" on="1"/>
        <pt x="548" y="0" on="0"/>
        <pt x="541" y="-8" on="0"/>
        <pt x="538" y="-10" on="1"/>
        <pt x="535" y="-12" on="1"/>
        <pt x="473" y="-5" on="0"/>
        <pt x="451" y="17" on="1"/>
        <pt x="430" y="57" on="0"/>
        <pt x="391" y="153" on="0"/>
        <pt x="371" y="216" on="0"/>
        <pt x="348" y="289" on="1"/>
        <pt x="149" y="248" on="1"/>
        <pt x="78" y="0" on="1"/>
        <pt x="77" y="-4" on="0"/>
        <pt x="64" y="-10" on="0"/>
        <pt x="59" y="-10" on="1"/>
        <pt x="0" y="11" on="0"/>
      </contour>
      <contour>
        <pt x="165" y="303" on="1"/>
        <pt x="340" y="314" on="1"/>
        <pt x="337" y="325" on="0"/>
        <pt x="309" y="416" on="0"/>
        <pt x="297" y="449" on="0"/>
        <pt x="274" y="515" on="0"/>
        <pt x="251" y="561" on="0"/>
        <pt x="238" y="582" on="1"/>
      </contour>
    </TTGlyph>
    <TTGlyph name="Alphatonos" xMin="-40" yMin="-12" xMax="520" yMax="939">
      <component glyphName="tonos" x="175" y="235" flags="0x1004"/>
      <component glyphName="Alpha" x="-29" y="0" flags="0x1204"/>
    </TTGlyph>
    <TTGlyph name="Amacron" xMin="-12" yMin="-3" xMax="631" yMax="798">
      <component glyphName="A" x="0" y="0" flags="0x1204"/>
      <component glyphName="uni0304.cap" x="575" y="28" flags="0x1004"/>
    </TTGlyph>
    <TTGlyph name="Aogonek" xMin="-14" yMin="-223" xMax="631" yMax="663">
      <contour>
        <pt x="631" y="-3" on="1"/>
        <pt x="616" y="-2" on="0"/>
        <pt x="570" y="1" on="0"/>
        <pt x="559" y="1" on="1"/>
        <pt x="520" y="-22" on="0"/>
        <pt x="456" y="-91" on="0"/>
        <pt x="456" y="-121" on="1"/>
        <pt x="456" y="-137" on="0"/>
        <pt x="474" y="-164" on="0"/>
        <pt x="520" y="-164" on="0"/>
        <pt x="557" y="-145" on="0"/>
        <pt x="577" y="-126" on="0"/>
        <pt x="578" y="-126" on="1"/>
        <pt x="583" y="-126" on="0"/>
        <pt x="583" y="-139" on="1"/>
        <pt x="583" y="-150" on="0"/>
        <pt x="578" y="-157" on="1"/>
        <pt x="528" y="-223" on="0"/>
        <pt x="473" y="-223" on="1"/>
        <pt x="436" y="-223" on="0"/>
        <pt x="402" y="-173" on="0"/>
        <pt x="402" y="-146" on="1"/>
        <pt x="402" y="-108" on="0"/>
        <pt x="469" y="-27" on="0"/>
        <pt x="514" y="2" on="1"/>
        <pt x="512" y="2" on="1"/>
        <pt x="510" y="2" on="0"/>
        <pt x="405" y="-3" on="1"/>
        <pt x="401" y="1" on="0"/>
        <pt x="402" y="22" on="0"/>
        <pt x="406" y="26" on="1"/>
        <pt x="447" y="26" on="0"/>
        <pt x="462" y="39" on="1"/>
        <pt x="466" y="43" on="0"/>
        <pt x="466" y="53" on="1"/>
        <pt x="466" y="66" on="0"/>
        <pt x="432" y="164" on="0"/>
        <pt x="415" y="206" on="1"/>
        <pt x="398" y="248" on="1"/>
        <pt x="395" y="252" on="0"/>
        <pt x="392" y="252" on="1"/>
        <pt x="379" y="253" on="0"/>
        <pt x="293" y="253" on="1"/>
        <pt x="230" y="253" on="0"/>
        <pt x="185" y="250" on="1"/>
        <pt x="180" y="247" on="1"/>
        <pt x="152" y="173" on="0"/>
        <pt x="135" y="125" on="1"/>
        <pt x="121" y="84" on="0"/>
        <pt x="121" y="54" on="1"/>
        <pt x="122" y="39" on="0"/>
        <pt x="173" y="26" on="0"/>
        <pt x="190" y="26" on="1"/>
        <pt x="192" y="24" on="0"/>
        <pt x="194" y="1" on="0"/>
        <pt x="192" y="-3" on="1"/>
        <pt x="178" y="-2" on="0"/>
        <pt x="143" y="0" on="0"/>
        <pt x="114" y="2" on="0"/>
        <pt x="95" y="2" on="1"/>
        <pt x="75" y="2" on="0"/>
        <pt x="43" y="0" on="0"/>
        <pt x="5" y="-2" on="0"/>
        <pt x="-12" y="-3" on="1"/>
        <pt x="-14" y="-1" on="0"/>
        <pt x="-14" y="21" on="0"/>
        <pt x="-12" y="26" on="1"/>
        <pt x="1" y="26" on="0"/>
        <pt x="41" y="36" on="0"/>
        <pt x="48" y="45" on="1"/>
        <pt x="69" y="72" on="0"/>
        <pt x="95" y="139" on="1"/>
        <pt x="227" y="478" on="0"/>
        <pt x="288" y="634" on="1"/>
        <pt x="292" y="642" on="0"/>
        <pt x="319" y="663" on="0"/>
        <pt x="326" y="663" on="1"/>
        <pt x="328" y="663" on="0"/>
        <pt x="329" y="662" on="1"/>
        <pt x="331" y="660" on="0"/>
        <pt x="332" y="660" on="1"/>
        <pt x="536" y="126" on="1"/>
        <pt x="561" y="60" on="1"/>
        <pt x="567" y="45" on="0"/>
        <pt x="617" y="26" on="0"/>
        <pt x="629" y="26" on="1"/>
        <pt x="637" y="15" on="0"/>
      </contour>
      <contour>
        <pt x="291" y="542" on="1"/>
        <pt x="199" y="298" on="1"/>
        <pt x="199" y="294" on="0"/>
        <pt x="201" y="294" on="1"/>
        <pt x="253" y="292" on="0"/>
        <pt x="292" y="292" on="1"/>
        <pt x="330" y="292" on="0"/>
        <pt x="376" y="295" on="1"/>
        <pt x="379" y="300" on="1"/>
      </contour>
    </TTGlyph>
    <TTGlyph name="Aring" xMin="-12" yMin="-3" xMax="631" yMax="841">
      <component glyphName="A" x="0" y="0" flags="0x1204"/>
      <component glyphName="uni030A.cap" x="577" y="-66" flags="0x1004"/>
    </TTGlyph>
    <TTGlyph name="Aringacute" xMin="-12" yMin="-3" xMax="631" yMax="1003">
      <component glyphName="Aring" x="0" y="0" flags="0x1204"/>
      <component glyphName="acutecomb.cap" x="694" y="142" flags="0x1004"/>
    </TTGlyph>
    <TTGlyph name="Atilde" xMin="-12" yMin="-3" xMax="631" yMax="811">
      <component glyphName="A" x="0" y="0" flags="0x1204"/>
      <component glyphName="tildecomb.cap" x="574" y="-7" flags="0x1004"/>
    </TTGlyph>
    <TTGlyph name="B" xMin="41" yMin="-3" xMax="552" yMax="662">
      <contour>
        <pt x="206" y="332" on="1"/>
        <pt x="206" y="115" on="1"/>
        <pt x="206" y="56" on="0"/>
        <pt x="215" y="47" on="1"/>
        <pt x="232" y="29" on="0"/>
        <pt x="294" y="29" on="1"/>
        <pt x="453" y="29" on="0"/>
        <pt x="453" y="176" on="1"/>
        <pt x="453" y="332" on="0"/>
        <pt x="267" y="332" on="1"/>
      </contour>
      <contour>
        <pt x="206" y="370" on="1"/>
        <pt x="290" y="370" on="1"/>
        <pt x="353" y="370" on="0"/>
        <pt x="415" y="439" on="0"/>
        <pt x="415" y="487" on="1"/>
        <pt x="415" y="553" on="0"/>
        <pt x="332" y="627" on="0"/>
        <pt x="261" y="627" on="1"/>
        <pt x="215" y="627" on="0"/>
        <pt x="211" y="617" on="1"/>
        <pt x="206" y="605" on="0"/>
        <pt x="206" y="542" on="1"/>
      </contour>
      <contour>
        <pt x="305" y="659" on="1"/>
        <pt x="355" y="659" on="0"/>
        <pt x="441" y="634" on="0"/>
        <pt x="506" y="564" on="0"/>
        <pt x="506" y="510" on="1"/>
        <pt x="506" y="458" on="0"/>
        <pt x="439" y="377" on="0"/>
        <pt x="405" y="365" on="1"/>
        <pt x="401" y="363" on="0"/>
        <pt x="405" y="360" on="1"/>
        <pt x="450" y="358" on="0"/>
        <pt x="552" y="266" on="0"/>
        <pt x="552" y="199" on="1"/>
        <pt x="552" y="107" on="0"/>
        <pt x="485" y="51" on="1"/>
        <pt x="422" y="-1" on="0"/>
        <pt x="275" y="-3" on="1"/>
        <pt x="45" y="-3" on="1"/>
        <pt x="41" y="1" on="0"/>
        <pt x="42" y="22" on="0"/>
        <pt x="45" y="26" on="1"/>
        <pt x="60" y="26" on="0"/>
        <pt x="112" y="35" on="0"/>
        <pt x="114" y="42" on="1"/>
        <pt x="119" y="58" on="0"/>
        <pt x="119" y="116" on="1"/>
        <pt x="119" y="543" on="1"/>
        <pt x="119" y="601" on="0"/>
        <pt x="114" y="617" on="1"/>
        <pt x="112" y="624" on="0"/>
        <pt x="60" y="633" on="0"/>
        <pt x="45" y="633" on="1"/>
        <pt x="42" y="637" on="0"/>
        <pt x="41" y="658" on="0"/>
        <pt x="45" y="662" on="1"/>
        <pt x="148" y="657" on="0"/>
        <pt x="163" y="657" on="1"/>
        <pt x="180" y="657" on="0"/>
        <pt x="273" y="659" on="0"/>
      </contour>
    </TTGlyph>
    <TTGlyph name="Beta" xMin="41" yMin="-5" xMax="480" yMax="661">
      <contour>
        <pt x="78" y="603" on="1"/>
        <pt x="64" y="632" on="0"/>
        <pt x="41" y="642" on="1"/>
        <pt x="41" y="656" on="0"/>
        <pt x="51" y="661" on="1"/>
        <pt x="101" y="658" on="0"/>
        <pt x="160" y="658" on="1"/>
        <pt x="293" y="658" on="0"/>
        <pt x="435" y="580" on="0"/>
        <pt x="435" y="502" on="1"/>
        <pt x="435" y="469" on="0"/>
        <pt x="410" y="414" on="0"/>
        <pt x="372" y="382" on="0"/>
        <pt x="342" y="365" on="0"/>
        <pt x="328" y="360" on="1"/>
        <pt x="343" y="356" on="0"/>
        <pt x="376" y="342" on="0"/>
        <pt x="421" y="314" on="0"/>
        <pt x="456" y="278" on="0"/>
        <pt x="480" y="221" on="0"/>
        <pt x="480" y="188" on="1"/>
        <pt x="480" y="158" on="0"/>
        <pt x="461" y="101" on="0"/>
        <pt x="412" y="38" on="0"/>
        <pt x="306" y="-2" on="0"/>
        <pt x="231" y="-3" on="1"/>
        <pt x="225" y="-3" on="0"/>
        <pt x="210" y="-5" on="0"/>
        <pt x="139" y="-5" on="1"/>
        <pt x="130" y="-5" on="1"/>
        <pt x="122" y="-5" on="0"/>
        <pt x="114" y="-5" on="0"/>
        <pt x="96" y="-4" on="0"/>
        <pt x="85" y="0" on="0"/>
        <pt x="71" y="5" on="0"/>
        <pt x="61" y="14" on="0"/>
        <pt x="57" y="20" on="1"/>
        <pt x="67" y="34" on="0"/>
        <pt x="83" y="116" on="0"/>
        <pt x="83" y="157" on="1"/>
      </contour>
      <contour>
        <pt x="235" y="327" on="1"/>
        <pt x="170" y="327" on="0"/>
        <pt x="151" y="326" on="1"/>
        <pt x="151" y="308" on="0"/>
        <pt x="152" y="237" on="0"/>
        <pt x="152" y="232" on="1"/>
        <pt x="154" y="66" on="0"/>
        <pt x="162" y="46" on="1"/>
        <pt x="188" y="36" on="0"/>
        <pt x="218" y="36" on="1"/>
        <pt x="249" y="36" on="0"/>
        <pt x="306" y="49" on="0"/>
        <pt x="361" y="78" on="0"/>
        <pt x="394" y="136" on="0"/>
        <pt x="394" y="175" on="1"/>
        <pt x="394" y="241" on="0"/>
        <pt x="309" y="327" on="0"/>
      </contour>
      <contour>
        <pt x="224" y="618" on="1"/>
        <pt x="183" y="620" on="0"/>
        <pt x="159" y="609" on="1"/>
        <pt x="151" y="556" on="0"/>
        <pt x="153" y="367" on="1"/>
        <pt x="155" y="367" on="0"/>
        <pt x="181" y="364" on="0"/>
        <pt x="187" y="364" on="1"/>
        <pt x="277" y="364" on="0"/>
        <pt x="360" y="442" on="0"/>
        <pt x="360" y="498" on="1"/>
        <pt x="360" y="618" on="0"/>
      </contour>
    </TTGlyph>
    <TTGlyph name="C" xMin="48" yMin="-6" xMax="632" yMax="667">
      <contour>
        <pt x="386" y="667" on="1"/>
        <pt x="501" y="667" on="0"/>
        <pt x="598" y="646" on="1"/>
        <pt x="621" y="508" on="0"/>
        <pt x="621" y="498" on="1"/>
        <pt x="622" y="494" on="0"/>
        <pt x="607" y="485" on="0"/>
        <pt x="599" y="485" on="1"/>
        <pt x="592" y="485" on="0"/>
        <pt x="587" y="488" on="1"/>
        <pt x="559" y="634" on="0"/>
        <pt x="391" y="634" on="1"/>
        <pt x="285" y="634" on="0"/>
        <pt x="147" y="455" on="0"/>
        <pt x="147" y="343" on="1"/>
        <pt x="147" y="262" on="0"/>
        <pt x="202" y="122" on="0"/>
        <pt x="324" y="27" on="0"/>
        <pt x="407" y="27" on="1"/>
        <pt x="485" y="27" on="0"/>
        <pt x="539" y="75" on="1"/>
        <pt x="584" y="115" on="0"/>
        <pt x="600" y="191" on="1"/>
        <pt x="617" y="193" on="0"/>
        <pt x="632" y="183" on="1"/>
        <pt x="632" y="164" on="0"/>
        <pt x="606" y="47" on="0"/>
        <pt x="597" y="39" on="1"/>
        <pt x="517" y="-6" on="0"/>
        <pt x="382" y="-6" on="1"/>
        <pt x="237" y="-6" on="0"/>
        <pt x="48" y="186" on="0"/>
        <pt x="48" y="322" on="1"/>
        <pt x="48" y="465" on="0"/>
        <pt x="241" y="667" on="0"/>
      </contour>
    </TTGlyph>
    <TTGlyph name="Cacute" xMin="48" yMin="-6" xMax="632" yMax="861">
      <component glyphName="C" x="0" y="0" flags="0x1204"/>
      <component glyphName="acutecomb.cap" x="706" y="0" flags="0x1004"/>
    </TTGlyph>
    <TTGlyph name="Ccaron" xMin="48" yMin="-6" xMax="632" yMax="859">
      <component glyphName="uni030C.cap" x="246" y="0" flags="0x1004"/>
      <component glyphName="C" x="0" y="0" flags="0x1204"/>
    </TTGlyph>
    <TTGlyph name="Ccedilla" xMin="49" yMin="-174" xMax="633" yMax="667">
      <component glyphName="uni0327.cap" x="160" y="0" flags="0x1004"/>
      <component glyphName="C" x="1" y="0" flags="0x1204"/>
    </TTGlyph>
    <TTGlyph name="Ccircumflex" xMin="48" yMin="-6" xMax="632" yMax="859">
      <component glyphName="C" x="0" y="0" flags="0x1204"/>
      <component glyphName="uni0302.cap" x="652" y="-1" flags="0x1004"/>
    </TTGlyph>
    <TTGlyph name="Cdotaccent" xMin="48" yMin="-6" xMax="632" yMax="828">
      <component glyphName="C" x="0" y="0" flags="0x1204"/>
      <component glyphName="uni0307.cap" x="638" y="0" flags="0x1004"/>
    </TTGlyph>
    <TTGlyph name="Chi" xMin="-8" yMin="-12" xMax="533" yMax="669">
      <contour>
        <pt x="533" y="4" on="1"/>
        <pt x="532" y="0" on="0"/>
        <pt x="525" y="-8" on="0"/>
        <pt x="522" y="-10" on="1"/>
        <pt x="519" y="-12" on="1"/>
        <pt x="450" y="-4" on="0"/>
        <pt x="428" y="18" on="1"/>
        <pt x="350" y="98" on="0"/>
        <pt x="256" y="279" on="1"/>
        <pt x="213" y="209" on="0"/>
        <pt x="82" y="29" on="0"/>
        <pt x="54" y="0" on="1"/>
        <pt x="46" y="-6" on="0"/>
        <pt x="35" y="-6" on="1"/>
        <pt x="25" y="-6" on="0"/>
        <pt x="-8" y="11" on="0"/>
        <pt x="-8" y="24" on="1"/>
        <pt x="32" y="49" on="0"/>
        <pt x="172" y="223" on="0"/>
        <pt x="232" y="323" on="1"/>
        <pt x="150" y="507" on="0"/>
        <pt x="100" y="590" on="1"/>
        <pt x="85" y="614" on="0"/>
        <pt x="58" y="614" on="1"/>
        <pt x="34" y="614" on="0"/>
        <pt x="14" y="597" on="1"/>
        <pt x="11" y="603" on="0"/>
        <pt x="11" y="613" on="1"/>
        <pt x="16" y="630" on="0"/>
        <pt x="65" y="666" on="0"/>
        <pt x="86" y="666" on="1"/>
        <pt x="132" y="666" on="0"/>
        <pt x="160" y="626" on="1"/>
        <pt x="195" y="578" on="0"/>
        <pt x="276" y="399" on="1"/>
        <pt x="346" y="520" on="0"/>
        <pt x="430" y="632" on="1"/>
        <pt x="439" y="640" on="0"/>
        <pt x="477" y="658" on="0"/>
        <pt x="491" y="664" on="1"/>
        <pt x="505" y="669" on="1"/>
        <pt x="512" y="669" on="0"/>
        <pt x="529" y="660" on="0"/>
        <pt x="529" y="656" on="1"/>
        <pt x="492" y="626" on="0"/>
        <pt x="358" y="458" on="0"/>
        <pt x="297" y="351" on="1"/>
        <pt x="341" y="254" on="0"/>
        <pt x="473" y="62" on="0"/>
      </contour>
    </TTGlyph>
    <TTGlyph name="D" xMin="41" yMin="-3" xMax="659" yMax="662">
      <contour>
        <pt x="207" y="541" on="1"/>
        <pt x="207" y="115" on="1"/>
        <pt x="207" y="50" on="0"/>
        <pt x="213" y="43" on="1"/>
        <pt x="223" y="29" on="0"/>
        <pt x="295" y="29" on="1"/>
        <pt x="409" y="29" on="0"/>
        <pt x="560" y="174" on="0"/>
        <pt x="560" y="313" on="1"/>
        <pt x="560" y="395" on="0"/>
        <pt x="514" y="519" on="0"/>
        <pt x="434" y="591" on="0"/>
        <pt x="337" y="626" on="0"/>
        <pt x="281" y="626" on="1"/>
        <pt x="215" y="626" on="0"/>
        <pt x="212" y="615" on="1"/>
        <pt x="207" y="599" on="0"/>
      </contour>
      <contour>
        <pt x="308" y="658" on="1"/>
        <pt x="469" y="658" on="0"/>
        <pt x="659" y="476" on="0"/>
        <pt x="659" y="334" on="1"/>
        <pt x="659" y="266" on="0"/>
        <pt x="623" y="152" on="0"/>
        <pt x="544" y="53" on="0"/>
        <pt x="397" y="-3" on="0"/>
        <pt x="295" y="-3" on="1"/>
        <pt x="45" y="-3" on="1"/>
        <pt x="41" y="1" on="0"/>
        <pt x="42" y="22" on="0"/>
        <pt x="45" y="26" on="1"/>
        <pt x="60" y="26" on="0"/>
        <pt x="112" y="35" on="0"/>
        <pt x="114" y="42" on="1"/>
        <pt x="119" y="58" on="0"/>
        <pt x="119" y="116" on="1"/>
        <pt x="119" y="543" on="1"/>
        <pt x="119" y="601" on="0"/>
        <pt x="114" y="617" on="1"/>
        <pt x="112" y="624" on="0"/>
        <pt x="60" y="633" on="0"/>
        <pt x="45" y="633" on="1"/>
        <pt x="42" y="637" on="0"/>
        <pt x="41" y="658" on="0"/>
        <pt x="45" y="662" on="1"/>
        <pt x="148" y="657" on="0"/>
        <pt x="163" y="657" on="1"/>
        <pt x="182" y="657" on="0"/>
        <pt x="285" y="658" on="0"/>
      </contour>
    </TTGlyph>
    <TTGlyph name="Dcaron" xMin="45" yMin="-3" xMax="659" yMax="859">
      <component glyphName="uni030C.cap" x="197" y="0" flags="0x1004"/>
      <component glyphName="D" x="0" y="0" flags="0x1204"/>
    </TTGlyph>
    <TTGlyph name="Dcroat" xMin="45" yMin="-3" xMax="659" yMax="662">
      <component glyphName="Eth" x="0" y="0" flags="0x1204"/>
    </TTGlyph>
    <TTGlyph name="Delta" xMin="20" yMin="-4" xMax="599" yMax="655">
      <contour>
        <pt x="500" y="63" on="1"/>
        <pt x="392" y="295" on="0"/>
        <pt x="300" y="529" on="1"/>
        <pt x="299" y="530" on="0"/>
        <pt x="256" y="434" on="0"/>
        <pt x="195" y="297" on="0"/>
        <pt x="136" y="160" on="0"/>
        <pt x="115" y="112" on="1"/>
        <pt x="94" y="63" on="1"/>
      </contour>
      <contour>
        <pt x="317" y="655" on="1"/>
        <pt x="377" y="516" on="0"/>
        <pt x="554" y="134" on="0"/>
        <pt x="599" y="33" on="1"/>
        <pt x="591" y="5" on="0"/>
        <pt x="544" y="-4" on="1"/>
        <pt x="530" y="3" on="0"/>
        <pt x="481" y="3" on="1"/>
        <pt x="27" y="0" on="1"/>
        <pt x="20" y="0" on="0"/>
        <pt x="20" y="10" on="1"/>
        <pt x="170" y="336" on="0"/>
        <pt x="264" y="548" on="1"/>
        <pt x="275" y="573" on="0"/>
        <pt x="284" y="618" on="1"/>
        <pt x="286" y="624" on="0"/>
        <pt x="302" y="644" on="0"/>
        <pt x="316" y="657" on="0"/>
      </contour>
    </TTGlyph>
    <TTGlyph name="E" xMin="41" yMin="-4" xMax="559" yMax="664">
      <contour>
        <pt x="163" y="657" on="1"/>
        <pt x="208" y="657" on="0"/>
        <pt x="429" y="664" on="0"/>
        <pt x="485" y="664" on="1"/>
        <pt x="489" y="635" on="0"/>
        <pt x="512" y="540" on="0"/>
        <pt x="514" y="528" on="1"/>
        <pt x="509" y="523" on="0"/>
        <pt x="483" y="523" on="0"/>
        <pt x="482" y="530" on="1"/>
        <pt x="467" y="586" on="0"/>
        <pt x="411" y="624" on="0"/>
        <pt x="366" y="624" on="1"/>
        <pt x="280" y="624" on="1"/>
        <pt x="214" y="624" on="0"/>
        <pt x="211" y="613" on="1"/>
        <pt x="206" y="597" on="0"/>
        <pt x="206" y="542" on="1"/>
        <pt x="206" y="355" on="1"/>
        <pt x="206" y="349" on="0"/>
        <pt x="249" y="349" on="1"/>
        <pt x="302" y="349" on="1"/>
        <pt x="369" y="349" on="0"/>
        <pt x="399" y="368" on="0"/>
        <pt x="410" y="412" on="1"/>
        <pt x="411" y="418" on="0"/>
        <pt x="412" y="421" on="1"/>
        <pt x="413" y="428" on="0"/>
        <pt x="427" y="428" on="1"/>
        <pt x="439" y="428" on="0"/>
        <pt x="444" y="423" on="1"/>
        <pt x="444" y="234" on="1"/>
        <pt x="440" y="230" on="0"/>
        <pt x="428" y="230" on="1"/>
        <pt x="415" y="230" on="0"/>
        <pt x="412" y="238" on="1"/>
        <pt x="405" y="266" on="0"/>
        <pt x="395" y="293" on="0"/>
        <pt x="389" y="300" on="0"/>
        <pt x="384" y="304" on="1"/>
        <pt x="371" y="312" on="0"/>
        <pt x="278" y="312" on="1"/>
        <pt x="206" y="312" on="0"/>
        <pt x="206" y="303" on="1"/>
        <pt x="206" y="113" on="1"/>
        <pt x="206" y="49" on="0"/>
        <pt x="212" y="44" on="1"/>
        <pt x="225" y="34" on="0"/>
        <pt x="283" y="34" on="1"/>
        <pt x="331" y="34" on="1"/>
        <pt x="413" y="34" on="0"/>
        <pt x="457" y="61" on="1"/>
        <pt x="490" y="80" on="0"/>
        <pt x="520" y="162" on="1"/>
        <pt x="522" y="168" on="0"/>
        <pt x="534" y="168" on="1"/>
        <pt x="553" y="168" on="0"/>
        <pt x="559" y="162" on="1"/>
        <pt x="554" y="149" on="0"/>
        <pt x="533" y="92" on="0"/>
        <pt x="521" y="57" on="0"/>
        <pt x="507" y="11" on="0"/>
        <pt x="505" y="-4" on="1"/>
        <pt x="454" y="-4" on="0"/>
        <pt x="234" y="0" on="0"/>
        <pt x="164" y="0" on="1"/>
        <pt x="140" y="0" on="0"/>
        <pt x="64" y="-3" on="0"/>
        <pt x="45" y="-3" on="1"/>
        <pt x="41" y="1" on="0"/>
        <pt x="42" y="22" on="0"/>
        <pt x="45" y="26" on="1"/>
        <pt x="60" y="26" on="0"/>
        <pt x="112" y="35" on="0"/>
        <pt x="114" y="42" on="1"/>
        <pt x="119" y="58" on="0"/>
        <pt x="119" y="116" on="1"/>
        <pt x="119" y="543" on="1"/>
        <pt x="119" y="601" on="0"/>
        <pt x="114" y="617" on="1"/>
        <pt x="112" y="624" on="0"/>
        <pt x="60" y="633" on="0"/>
        <pt x="45" y="633" on="1"/>
        <pt x="42" y="637" on="0"/>
        <pt x="41" y="658" on="0"/>
        <pt x="45" y="662" on="1"/>
        <pt x="148" y="657" on="0"/>
      </contour>
    </TTGlyph>
    <TTGlyph name="Eacute" xMin="45" yMin="-4" xMax="559" yMax="861">
      <component glyphName="E" x="0" y="0" flags="0x1204"/>
      <component glyphName="acutecomb.cap" x="606" y="0" flags="0x1004"/>
    </TTGlyph>
    <TTGlyph name="Ebreve" xMin="45" yMin="-4" xMax="559" yMax="833">
      <component glyphName="E" x="0" y="0" flags="0x1204"/>
      <component glyphName="uni0306.cap" x="551" y="-3" flags="0x1004"/>
    </TTGlyph>
    <TTGlyph name="Ecaron" xMin="45" yMin="-4" xMax="559" yMax="859">
      <component glyphName="uni030C.cap" x="171" y="0" flags="0x1004"/>
      <component glyphName="E" x="0" y="0" flags="0x1204"/>
    </TTGlyph>
    <TTGlyph name="Ecircumflex" xMin="45" yMin="-4" xMax="559" yMax="859">
      <component glyphName="E" x="0" y="0" flags="0x1204"/>
      <component glyphName="uni0302.cap" x="559" y="-1" flags="0x1004"/>
    </TTGlyph>
    <TTGlyph name="Edieresis" xMin="45" yMin="-4" xMax="559" yMax="828">
      <component glyphName="uni0308.cap" x="127" y="16" flags="0x1004"/>
      <component glyphName="E" x="0" y="0" flags="0x1204"/>
    </TTGlyph>
    <TTGlyph name="Edotaccent" xMin="45" yMin="-4" xMax="559" yMax="828">
      <component glyphName="E" x="0" y="0" flags="0x1204"/>
      <component glyphName="uni0307.cap" x="550" y="0" flags="0x1004"/>
    </TTGlyph>
    <TTGlyph name="Egrave" xMin="45" yMin="-4" xMax="559" yMax="861">
      <component glyphName="E" x="0" y="0" flags="0x1204"/>
      <component glyphName="gravecomb.cap" x="511" y="0" flags="0x1004"/>
    </TTGlyph>
    <TTGlyph name="Emacron" xMin="45" yMin="-4" xMax="559" yMax="798">
      <component glyphName="E" x="0" y="0" flags="0x1204"/>
      <component glyphName="uni0304.cap" x="523" y="28" flags="0x1004"/>
    </TTGlyph>
    <TTGlyph name="Eng" xMin="41" yMin="-227" xMax="745" yMax="665">
      <contour>
        <pt x="595" y="38" on="1"/>
        <pt x="175" y="569" on="1"/>
        <pt x="175" y="115" on="1"/>
        <pt x="175" y="62" on="0"/>
        <pt x="185" y="46" on="1"/>
        <pt x="189" y="39" on="0"/>
        <pt x="245" y="26" on="0"/>
        <pt x="260" y="26" on="1"/>
        <pt x="268" y="15" on="0"/>
        <pt x="262" y="-3" on="1"/>
        <pt x="162" y="2" on="0"/>
        <pt x="148" y="2" on="1"/>
        <pt x="128" y="2" on="0"/>
        <pt x="96" y="0" on="0"/>
        <pt x="58" y="-2" on="0"/>
        <pt x="41" y="-3" on="1"/>
        <pt x="34" y="10" on="0"/>
        <pt x="41" y="26" on="1"/>
        <pt x="55" y="26" on="0"/>
        <pt x="114" y="38" on="0"/>
        <pt x="119" y="46" on="1"/>
        <pt x="129" y="63" on="0"/>
        <pt x="129" y="114" on="1"/>
        <pt x="129" y="548" on="1"/>
        <pt x="129" y="599" on="0"/>
        <pt x="119" y="616" on="1"/>
        <pt x="114" y="624" on="0"/>
        <pt x="55" y="636" on="0"/>
        <pt x="41" y="636" on="1"/>
        <pt x="34" y="652" on="0"/>
        <pt x="41" y="665" on="1"/>
        <pt x="57" y="664" on="0"/>
        <pt x="124" y="660" on="0"/>
        <pt x="143" y="660" on="1"/>
        <pt x="191" y="660" on="0"/>
        <pt x="219" y="662" on="1"/>
        <pt x="244" y="623" on="0"/>
        <pt x="554" y="245" on="0"/>
        <pt x="611" y="166" on="1"/>
        <pt x="611" y="224" on="1"/>
        <pt x="611" y="545" on="1"/>
        <pt x="611" y="598" on="0"/>
        <pt x="601" y="614" on="1"/>
        <pt x="597" y="621" on="0"/>
        <pt x="540" y="634" on="0"/>
        <pt x="525" y="634" on="1"/>
        <pt x="517" y="645" on="0"/>
        <pt x="523" y="663" on="1"/>
        <pt x="623" y="658" on="0"/>
        <pt x="638" y="658" on="1"/>
        <pt x="658" y="658" on="0"/>
        <pt x="690" y="660" on="0"/>
        <pt x="728" y="662" on="0"/>
        <pt x="745" y="663" on="1"/>
        <pt x="752" y="650" on="0"/>
        <pt x="745" y="634" on="1"/>
        <pt x="731" y="634" on="0"/>
        <pt x="672" y="622" on="0"/>
        <pt x="667" y="614" on="1"/>
        <pt x="657" y="597" on="0"/>
        <pt x="657" y="546" on="1"/>
        <pt x="657" y="121" on="1"/>
        <pt x="657" y="-58" on="0"/>
        <pt x="531" y="-227" on="0"/>
        <pt x="423" y="-227" on="1"/>
        <pt x="411" y="-227" on="0"/>
        <pt x="369" y="-215" on="0"/>
        <pt x="360" y="-209" on="1"/>
        <pt x="352" y="-201" on="0"/>
        <pt x="352" y="-186" on="1"/>
        <pt x="352" y="-162" on="0"/>
        <pt x="377" y="-130" on="0"/>
        <pt x="400" y="-130" on="1"/>
        <pt x="417" y="-130" on="0"/>
        <pt x="448" y="-159" on="1"/>
        <pt x="471" y="-180" on="0"/>
        <pt x="493" y="-180" on="1"/>
        <pt x="514" y="-180" on="0"/>
        <pt x="553" y="-147" on="0"/>
        <pt x="589" y="-44" on="0"/>
      </contour>
    </TTGlyph>
    <TTGlyph name="Eogonek" xMin="41" yMin="-224" xMax="559" yMax="664">
      <contour>
        <pt x="163" y="657" on="1"/>
        <pt x="208" y="657" on="0"/>
        <pt x="429" y="664" on="0"/>
        <pt x="485" y="664" on="1"/>
        <pt x="489" y="635" on="0"/>
        <pt x="512" y="540" on="0"/>
        <pt x="514" y="528" on="1"/>
        <pt x="509" y="523" on="0"/>
        <pt x="483" y="523" on="0"/>
        <pt x="482" y="530" on="1"/>
        <pt x="467" y="586" on="0"/>
        <pt x="411" y="624" on="0"/>
        <pt x="366" y="624" on="1"/>
        <pt x="280" y="624" on="1"/>
        <pt x="214" y="624" on="0"/>
        <pt x="211" y="613" on="1"/>
        <pt x="206" y="597" on="0"/>
        <pt x="206" y="542" on="1"/>
        <pt x="206" y="355" on="1"/>
        <pt x="206" y="349" on="0"/>
        <pt x="249" y="349" on="1"/>
        <pt x="302" y="349" on="1"/>
        <pt x="369" y="349" on="0"/>
        <pt x="399" y="368" on="0"/>
        <pt x="410" y="412" on="1"/>
        <pt x="411" y="418" on="0"/>
        <pt x="412" y="421" on="1"/>
        <pt x="413" y="428" on="0"/>
        <pt x="427" y="428" on="1"/>
        <pt x="439" y="428" on="0"/>
        <pt x="444" y="423" on="1"/>
        <pt x="444" y="234" on="1"/>
        <pt x="440" y="230" on="0"/>
        <pt x="428" y="230" on="1"/>
        <pt x="415" y="230" on="0"/>
        <pt x="412" y="238" on="1"/>
        <pt x="405" y="266" on="0"/>
        <pt x="395" y="293" on="0"/>
        <pt x="389" y="300" on="0"/>
        <pt x="384" y="304" on="1"/>
        <pt x="371" y="312" on="0"/>
        <pt x="278" y="312" on="1"/>
        <pt x="206" y="312" on="0"/>
        <pt x="206" y="303" on="1"/>
        <pt x="206" y="113" on="1"/>
        <pt x="206" y="49" on="0"/>
        <pt x="212" y="44" on="1"/>
        <pt x="225" y="34" on="0"/>
        <pt x="283" y="34" on="1"/>
        <pt x="331" y="34" on="1"/>
        <pt x="413" y="34" on="0"/>
        <pt x="457" y="61" on="1"/>
        <pt x="490" y="80" on="0"/>
        <pt x="520" y="162" on="1"/>
        <pt x="522" y="168" on="0"/>
        <pt x="534" y="168" on="1"/>
        <pt x="553" y="168" on="0"/>
        <pt x="559" y="162" on="1"/>
        <pt x="554" y="149" on="0"/>
        <pt x="533" y="92" on="0"/>
        <pt x="521" y="57" on="0"/>
        <pt x="507" y="11" on="0"/>
        <pt x="505" y="-4" on="1"/>
        <pt x="463" y="-4" on="0"/>
        <pt x="380" y="-88" on="0"/>
        <pt x="380" y="-122" on="1"/>
        <pt x="380" y="-138" on="0"/>
        <pt x="398" y="-165" on="0"/>
        <pt x="444" y="-165" on="0"/>
        <pt x="481" y="-146" on="0"/>
        <pt x="501" y="-127" on="0"/>
        <pt x="502" y="-127" on="1"/>
        <pt x="506" y="-127" on="0"/>
        <pt x="506" y="-153" on="0"/>
        <pt x="502" y="-158" on="1"/>
        <pt x="452" y="-224" on="0"/>
        <pt x="397" y="-224" on="1"/>
        <pt x="360" y="-224" on="0"/>
        <pt x="326" y="-174" on="0"/>
        <pt x="326" y="-147" on="1"/>
        <pt x="326" y="-112" on="0"/>
        <pt x="388" y="-33" on="0"/>
        <pt x="430" y="-3" on="1"/>
        <pt x="184" y="0" on="0"/>
        <pt x="164" y="0" on="1"/>
        <pt x="140" y="0" on="0"/>
        <pt x="64" y="-3" on="0"/>
        <pt x="45" y="-3" on="1"/>
        <pt x="41" y="1" on="0"/>
        <pt x="42" y="22" on="0"/>
        <pt x="45" y="26" on="1"/>
        <pt x="60" y="26" on="0"/>
        <pt x="112" y="35" on="0"/>
        <pt x="114" y="42" on="1"/>
        <pt x="119" y="58" on="0"/>
        <pt x="119" y="116" on="1"/>
        <pt x="119" y="543" on="1"/>
        <pt x="119" y="601" on="0"/>
        <pt x="114" y="617" on="1"/>
        <pt x="112" y="624" on="0"/>
        <pt x="60" y="633" on="0"/>
        <pt x="45" y="633" on="1"/>
        <pt x="42" y="637" on="0"/>
        <pt x="41" y="658" on="0"/>
        <pt x="45" y="662" on="1"/>
        <pt x="148" y="657" on="0"/>
      </contour>
    </TTGlyph>
    <TTGlyph name="Epsilon" xMin="42" yMin="0" xMax="503" yMax="664">
      <contour>
        <pt x="291" y="43" on="1"/>
        <pt x="334" y="43" on="0"/>
        <pt x="431" y="77" on="0"/>
        <pt x="487" y="112" on="0"/>
        <pt x="490" y="119" on="1"/>
        <pt x="495" y="117" on="0"/>
        <pt x="503" y="101" on="0"/>
        <pt x="503" y="96" on="1"/>
        <pt x="503" y="80" on="0"/>
        <pt x="456" y="0" on="0"/>
        <pt x="424" y="0" on="1"/>
        <pt x="142" y="0" on="1"/>
        <pt x="79" y="0" on="0"/>
        <pt x="58" y="34" on="1"/>
        <pt x="68" y="48" on="0"/>
        <pt x="84" y="130" on="0"/>
        <pt x="84" y="171" on="1"/>
        <pt x="79" y="603" on="1"/>
        <pt x="65" y="632" on="0"/>
        <pt x="42" y="642" on="1"/>
        <pt x="42" y="656" on="0"/>
        <pt x="52" y="661" on="1"/>
        <pt x="102" y="658" on="0"/>
        <pt x="161" y="658" on="1"/>
        <pt x="215" y="659" on="0"/>
        <pt x="344" y="663" on="0"/>
        <pt x="395" y="664" on="1"/>
        <pt x="425" y="626" on="0"/>
        <pt x="450" y="584" on="1"/>
        <pt x="449" y="581" on="0"/>
        <pt x="446" y="574" on="0"/>
        <pt x="444" y="571" on="0"/>
        <pt x="440" y="567" on="0"/>
        <pt x="437" y="566" on="1"/>
        <pt x="384" y="596" on="0"/>
        <pt x="312" y="615" on="0"/>
        <pt x="251" y="615" on="1"/>
        <pt x="222" y="615" on="0"/>
        <pt x="155" y="607" on="1"/>
        <pt x="155" y="557" on="0"/>
        <pt x="157" y="355" on="1"/>
        <pt x="182" y="355" on="1"/>
        <pt x="262" y="355" on="0"/>
        <pt x="337" y="384" on="1"/>
        <pt x="345" y="378" on="0"/>
        <pt x="365" y="355" on="0"/>
        <pt x="378" y="335" on="0"/>
        <pt x="396" y="306" on="0"/>
        <pt x="397" y="304" on="1"/>
        <pt x="398" y="299" on="0"/>
        <pt x="387" y="287" on="0"/>
        <pt x="382" y="285" on="1"/>
        <pt x="330" y="309" on="0"/>
        <pt x="267" y="309" on="1"/>
        <pt x="192" y="309" on="0"/>
        <pt x="158" y="307" on="1"/>
        <pt x="158" y="289" on="0"/>
        <pt x="159" y="241" on="0"/>
        <pt x="159" y="236" on="1"/>
        <pt x="159" y="214" on="0"/>
        <pt x="158" y="121" on="0"/>
        <pt x="159" y="67" on="0"/>
        <pt x="163" y="58" on="1"/>
        <pt x="207" y="43" on="0"/>
      </contour>
    </TTGlyph>
    <TTGlyph name="Epsilontonos" xMin="51" yMin="0" xMax="512" yMax="939">
      <component glyphName="tonos" x="219" y="235" flags="0x1004"/>
      <component glyphName="Epsilon" x="9" y="0" flags="0x1204"/>
    </TTGlyph>
    <TTGlyph name="Eta" xMin="42" yMin="-16" xMax="496" yMax="664">
      <contour>
        <pt x="477" y="468" on="1"/>
        <pt x="477" y="278" on="0"/>
        <pt x="478" y="218" on="1"/>
        <pt x="479" y="162" on="0"/>
        <pt x="490" y="16" on="0"/>
        <pt x="496" y="1" on="1"/>
        <pt x="484" y="-16" on="0"/>
        <pt x="471" y="-16" on="1"/>
        <pt x="463" y="-16" on="0"/>
        <pt x="406" y="10" on="0"/>
        <pt x="406" y="20" on="1"/>
        <pt x="412" y="174" on="0"/>
        <pt x="413" y="312" on="1"/>
        <pt x="398" y="311" on="0"/>
        <pt x="300" y="308" on="0"/>
        <pt x="236" y="306" on="0"/>
        <pt x="151" y="300" on="0"/>
        <pt x="123" y="295" on="1"/>
        <pt x="123" y="280" on="0"/>
        <pt x="124" y="229" on="0"/>
        <pt x="124" y="218" on="1"/>
        <pt x="125" y="162" on="0"/>
        <pt x="136" y="16" on="0"/>
        <pt x="142" y="1" on="1"/>
        <pt x="130" y="-16" on="0"/>
        <pt x="117" y="-16" on="1"/>
        <pt x="109" y="-16" on="0"/>
        <pt x="52" y="10" on="0"/>
        <pt x="52" y="20" on="1"/>
        <pt x="59" y="207" on="0"/>
        <pt x="59" y="354" on="1"/>
        <pt x="59" y="468" on="0"/>
        <pt x="42" y="647" on="1"/>
        <pt x="44" y="652" on="0"/>
        <pt x="60" y="664" on="0"/>
        <pt x="64" y="664" on="1"/>
        <pt x="84" y="664" on="0"/>
        <pt x="133" y="639" on="0"/>
        <pt x="133" y="627" on="1"/>
        <pt x="133" y="626" on="0"/>
        <pt x="128" y="572" on="0"/>
        <pt x="123" y="496" on="0"/>
        <pt x="123" y="468" on="1"/>
        <pt x="123" y="347" on="1"/>
        <pt x="413" y="348" on="1"/>
        <pt x="413" y="354" on="1"/>
        <pt x="413" y="468" on="0"/>
        <pt x="396" y="647" on="1"/>
        <pt x="398" y="652" on="0"/>
        <pt x="414" y="664" on="0"/>
        <pt x="418" y="664" on="1"/>
        <pt x="438" y="664" on="0"/>
        <pt x="487" y="639" on="0"/>
        <pt x="487" y="627" on="1"/>
        <pt x="487" y="626" on="0"/>
        <pt x="482" y="572" on="0"/>
        <pt x="477" y="496" on="0"/>
      </contour>
    </TTGlyph>
    <TTGlyph name="Etatonos" xMin="43" yMin="-16" xMax="497" yMax="939">
      <component glyphName="tonos" x="209" y="235" flags="0x1004"/>
      <component glyphName="Eta" x="1" y="0" flags="0x1204"/>
    </TTGlyph>
    <TTGlyph name="Eth" xMin="41" yMin="-3" xMax="659" yMax="662">
      <contour>
        <pt x="365" y="311" on="1"/>
        <pt x="365" y="311" on="0"/>
        <pt x="49" y="311" on="1"/>
        <pt x="47" y="311" on="0"/>
        <pt x="45" y="326" on="0"/>
        <pt x="47" y="344" on="0"/>
        <pt x="50" y="348" on="1"/>
        <pt x="365" y="348" on="1"/>
        <pt x="368" y="348" on="0"/>
        <pt x="368" y="318" on="0"/>
      </contour>
      <contour>
        <pt x="207" y="541" on="1"/>
        <pt x="207" y="115" on="1"/>
        <pt x="207" y="50" on="0"/>
        <pt x="213" y="43" on="1"/>
        <pt x="223" y="29" on="0"/>
        <pt x="295" y="29" on="1"/>
        <pt x="409" y="29" on="0"/>
        <pt x="560" y="174" on="0"/>
        <pt x="560" y="313" on="1"/>
        <pt x="560" y="395" on="0"/>
        <pt x="514" y="519" on="0"/>
        <pt x="434" y="591" on="0"/>
        <pt x="337" y="626" on="0"/>
        <pt x="281" y="626" on="1"/>
        <pt x="215" y="626" on="0"/>
        <pt x="212" y="615" on="1"/>
        <pt x="207" y="599" on="0"/>
      </contour>
      <contour>
        <pt x="308" y="658" on="1"/>
        <pt x="469" y="658" on="0"/>
        <pt x="659" y="476" on="0"/>
        <pt x="659" y="334" on="1"/>
        <pt x="659" y="266" on="0"/>
        <pt x="623" y="152" on="0"/>
        <pt x="544" y="53" on="0"/>
        <pt x="397" y="-3" on="0"/>
        <pt x="295" y="-3" on="1"/>
        <pt x="45" y="-3" on="1"/>
        <pt x="41" y="1" on="0"/>
        <pt x="42" y="22" on="0"/>
        <pt x="45" y="26" on="1"/>
        <pt x="60" y="26" on="0"/>
        <pt x="112" y="35" on="0"/>
        <pt x="114" y="42" on="1"/>
        <pt x="119" y="58" on="0"/>
        <pt x="119" y="116" on="1"/>
        <pt x="119" y="543" on="1"/>
        <pt x="119" y="601" on="0"/>
        <pt x="114" y="617" on="1"/>
        <pt x="112" y="624" on="0"/>
        <pt x="60" y="633" on="0"/>
        <pt x="45" y="633" on="1"/>
        <pt x="42" y="637" on="0"/>
        <pt x="41" y="658" on="0"/>
        <pt x="45" y="662" on="1"/>
        <pt x="148" y="657" on="0"/>
        <pt x="163" y="657" on="1"/>
        <pt x="182" y="657" on="0"/>
        <pt x="285" y="658" on="0"/>
      </contour>
    </TTGlyph>
    <TTGlyph name="Euro" xMin="36" yMin="-6" xMax="652" yMax="640">
      <contour>
        <pt x="416" y="640" on="1"/>
        <pt x="524" y="640" on="0"/>
        <pt x="619" y="620" on="1"/>
        <pt x="641" y="488" on="0"/>
        <pt x="641" y="478" on="1"/>
        <pt x="641" y="464" on="0"/>
        <pt x="621" y="464" on="1"/>
        <pt x="611" y="464" on="0"/>
        <pt x="608" y="468" on="1"/>
        <pt x="581" y="605" on="0"/>
        <pt x="420" y="605" on="1"/>
        <pt x="336" y="605" on="0"/>
        <pt x="214" y="485" on="0"/>
        <pt x="194" y="398" on="1"/>
        <pt x="444" y="398" on="1"/>
        <pt x="449" y="398" on="0"/>
        <pt x="444" y="382" on="1"/>
        <pt x="438" y="361" on="0"/>
        <pt x="428" y="350" on="1"/>
        <pt x="187" y="350" on="1"/>
        <pt x="186" y="339" on="0"/>
        <pt x="186" y="329" on="1"/>
        <pt x="186" y="308" on="0"/>
        <pt x="188" y="287" on="1"/>
        <pt x="444" y="287" on="1"/>
        <pt x="449" y="287" on="0"/>
        <pt x="444" y="271" on="1"/>
        <pt x="438" y="250" on="0"/>
        <pt x="428" y="239" on="1"/>
        <pt x="196" y="239" on="1"/>
        <pt x="218" y="147" on="0"/>
        <pt x="341" y="30" on="0"/>
        <pt x="436" y="30" on="1"/>
        <pt x="588" y="30" on="0"/>
        <pt x="621" y="183" on="1"/>
        <pt x="652" y="176" on="1"/>
        <pt x="652" y="158" on="0"/>
        <pt x="627" y="45" on="0"/>
        <pt x="618" y="37" on="1"/>
        <pt x="542" y="-6" on="0"/>
        <pt x="412" y="-6" on="1"/>
        <pt x="293" y="-6" on="0"/>
        <pt x="122" y="133" on="0"/>
        <pt x="99" y="239" on="1"/>
        <pt x="36" y="239" on="1"/>
        <pt x="31" y="239" on="0"/>
        <pt x="36" y="254" on="1"/>
        <pt x="42" y="276" on="0"/>
        <pt x="52" y="287" on="1"/>
        <pt x="92" y="287" on="1"/>
        <pt x="91" y="298" on="0"/>
        <pt x="91" y="309" on="1"/>
        <pt x="91" y="330" on="0"/>
        <pt x="93" y="350" on="1"/>
        <pt x="36" y="350" on="1"/>
        <pt x="31" y="350" on="0"/>
        <pt x="36" y="365" on="1"/>
        <pt x="42" y="387" on="0"/>
        <pt x="52" y="398" on="1"/>
        <pt x="102" y="398" on="1"/>
        <pt x="130" y="504" on="0"/>
        <pt x="301" y="640" on="0"/>
      </contour>
    </TTGlyph>
    <TTGlyph name="F" xMin="41" yMin="-3" xMax="514" yMax="664">
      <contour>
        <pt x="163" y="657" on="1"/>
        <pt x="208" y="657" on="0"/>
        <pt x="429" y="664" on="0"/>
        <pt x="485" y="664" on="1"/>
        <pt x="489" y="635" on="0"/>
        <pt x="512" y="540" on="0"/>
        <pt x="514" y="528" on="1"/>
        <pt x="509" y="523" on="0"/>
        <pt x="483" y="523" on="0"/>
        <pt x="482" y="530" on="1"/>
        <pt x="467" y="586" on="0"/>
        <pt x="411" y="624" on="0"/>
        <pt x="366" y="624" on="1"/>
        <pt x="280" y="624" on="1"/>
        <pt x="214" y="624" on="0"/>
        <pt x="211" y="613" on="1"/>
        <pt x="206" y="597" on="0"/>
        <pt x="206" y="542" on="1"/>
        <pt x="206" y="355" on="1"/>
        <pt x="206" y="349" on="0"/>
        <pt x="249" y="349" on="1"/>
        <pt x="302" y="349" on="1"/>
        <pt x="369" y="349" on="0"/>
        <pt x="399" y="368" on="0"/>
        <pt x="410" y="412" on="1"/>
        <pt x="411" y="418" on="0"/>
        <pt x="412" y="421" on="1"/>
        <pt x="413" y="428" on="0"/>
        <pt x="427" y="428" on="1"/>
        <pt x="439" y="428" on="0"/>
        <pt x="444" y="423" on="1"/>
        <pt x="444" y="234" on="1"/>
        <pt x="440" y="230" on="0"/>
        <pt x="428" y="230" on="1"/>
        <pt x="415" y="230" on="0"/>
        <pt x="412" y="238" on="1"/>
        <pt x="405" y="266" on="0"/>
        <pt x="395" y="293" on="0"/>
        <pt x="389" y="300" on="0"/>
        <pt x="384" y="304" on="1"/>
        <pt x="371" y="312" on="0"/>
        <pt x="278" y="312" on="1"/>
        <pt x="206" y="312" on="0"/>
        <pt x="206" y="303" on="1"/>
        <pt x="206" y="116" on="1"/>
        <pt x="206" y="58" on="0"/>
        <pt x="211" y="42" on="1"/>
        <pt x="213" y="35" on="0"/>
        <pt x="274" y="26" on="0"/>
        <pt x="290" y="26" on="1"/>
        <pt x="293" y="22" on="0"/>
        <pt x="294" y="1" on="0"/>
        <pt x="290" y="-3" on="1"/>
        <pt x="188" y="2" on="0"/>
        <pt x="138" y="2" on="0"/>
        <pt x="64" y="-3" on="0"/>
        <pt x="45" y="-3" on="1"/>
        <pt x="41" y="1" on="0"/>
        <pt x="42" y="22" on="0"/>
        <pt x="45" y="26" on="1"/>
        <pt x="60" y="26" on="0"/>
        <pt x="112" y="35" on="0"/>
        <pt x="114" y="42" on="1"/>
        <pt x="119" y="58" on="0"/>
        <pt x="119" y="116" on="1"/>
        <pt x="119" y="543" on="1"/>
        <pt x="119" y="601" on="0"/>
        <pt x="114" y="617" on="1"/>
        <pt x="112" y="624" on="0"/>
        <pt x="60" y="633" on="0"/>
        <pt x="45" y="633" on="1"/>
        <pt x="42" y="637" on="0"/>
        <pt x="41" y="658" on="0"/>
        <pt x="45" y="662" on="1"/>
        <pt x="148" y="657" on="0"/>
      </contour>
    </TTGlyph>
    <TTGlyph name="G" xMin="48" yMin="-6" xMax="695" yMax="667">
      <contour>
        <pt x="535" y="175" on="1"/>
        <pt x="535" y="233" on="0"/>
        <pt x="530" y="249" on="1"/>
        <pt x="528" y="256" on="0"/>
        <pt x="477" y="265" on="0"/>
        <pt x="462" y="265" on="1"/>
        <pt x="459" y="269" on="0"/>
        <pt x="458" y="290" on="0"/>
        <pt x="462" y="294" on="1"/>
        <pt x="564" y="289" on="0"/>
        <pt x="579" y="289" on="1"/>
        <pt x="588" y="289" on="0"/>
        <pt x="691" y="294" on="1"/>
        <pt x="695" y="290" on="0"/>
        <pt x="694" y="269" on="0"/>
        <pt x="691" y="265" on="1"/>
        <pt x="676" y="265" on="0"/>
        <pt x="628" y="256" on="0"/>
        <pt x="626" y="249" on="1"/>
        <pt x="621" y="233" on="0"/>
        <pt x="621" y="175" on="1"/>
        <pt x="621" y="104" on="1"/>
        <pt x="621" y="92" on="0"/>
        <pt x="631" y="68" on="0"/>
        <pt x="631" y="64" on="1"/>
        <pt x="631" y="57" on="0"/>
        <pt x="611" y="46" on="1"/>
        <pt x="581" y="30" on="0"/>
        <pt x="540" y="13" on="0"/>
        <pt x="443" y="-6" on="0"/>
        <pt x="382" y="-6" on="1"/>
        <pt x="237" y="-6" on="0"/>
        <pt x="48" y="186" on="0"/>
        <pt x="48" y="322" on="1"/>
        <pt x="48" y="465" on="0"/>
        <pt x="241" y="667" on="0"/>
        <pt x="386" y="667" on="1"/>
        <pt x="501" y="667" on="0"/>
        <pt x="598" y="646" on="1"/>
        <pt x="621" y="508" on="0"/>
        <pt x="621" y="498" on="1"/>
        <pt x="622" y="494" on="0"/>
        <pt x="607" y="485" on="0"/>
        <pt x="599" y="485" on="1"/>
        <pt x="592" y="485" on="0"/>
        <pt x="587" y="488" on="1"/>
        <pt x="559" y="634" on="0"/>
        <pt x="391" y="634" on="1"/>
        <pt x="285" y="634" on="0"/>
        <pt x="147" y="455" on="0"/>
        <pt x="147" y="343" on="1"/>
        <pt x="147" y="283" on="0"/>
        <pt x="180" y="172" on="0"/>
        <pt x="242" y="81" on="0"/>
        <pt x="344" y="27" on="0"/>
        <pt x="407" y="27" on="1"/>
        <pt x="464" y="27" on="0"/>
        <pt x="528" y="59" on="1"/>
        <pt x="535" y="62" on="0"/>
        <pt x="535" y="74" on="1"/>
      </contour>
    </TTGlyph>
    <TTGlyph name="Gamma" xMin="41" yMin="-16" xMax="504" yMax="664">
      <contour>
        <pt x="180" y="610" on="1"/>
        <pt x="180" y="525" on="0"/>
        <pt x="185" y="230" on="1"/>
        <pt x="188" y="30" on="0"/>
        <pt x="199" y="1" on="1"/>
        <pt x="187" y="-16" on="0"/>
        <pt x="174" y="-16" on="1"/>
        <pt x="166" y="-16" on="0"/>
        <pt x="111" y="10" on="0"/>
        <pt x="111" y="20" on="1"/>
        <pt x="109" y="603" on="1"/>
        <pt x="94" y="632" on="0"/>
        <pt x="41" y="644" on="1"/>
        <pt x="41" y="658" on="0"/>
        <pt x="51" y="663" on="1"/>
        <pt x="134" y="658" on="0"/>
        <pt x="187" y="658" on="1"/>
        <pt x="244" y="658" on="0"/>
        <pt x="406" y="663" on="0"/>
        <pt x="447" y="664" on="1"/>
        <pt x="490" y="583" on="0"/>
        <pt x="504" y="532" on="1"/>
        <pt x="498" y="521" on="0"/>
        <pt x="485" y="518" on="1"/>
        <pt x="443" y="576" on="0"/>
        <pt x="364" y="618" on="0"/>
        <pt x="302" y="618" on="1"/>
        <pt x="247" y="618" on="0"/>
      </contour>
    </TTGlyph>
    <TTGlyph name="Gbreve" xMin="48" yMin="-6" xMax="691" yMax="833">
      <component glyphName="G" x="0" y="0" flags="0x1204"/>
      <component glyphName="uni0306.cap" x="636" y="-3" flags="0x1004"/>
    </TTGlyph>
    <TTGlyph name="Gcaron" xMin="48" yMin="-6" xMax="691" yMax="859">
      <component glyphName="G" x="0" y="0" flags="0x1204"/>
      <component glyphName="uni030C.cap" x="248" y="0" flags="0x1004"/>
    </TTGlyph>
    <TTGlyph name="Gcircumflex" xMin="48" yMin="-6" xMax="691" yMax="859">
      <component glyphName="G" x="0" y="0" flags="0x1204"/>
      <component glyphName="uni0302.cap" x="640" y="-1" flags="0x1004"/>
    </TTGlyph>
    <TTGlyph name="Gcommaaccent" xMin="48" yMin="-229" xMax="691" yMax="667">
      <component glyphName="G" x="0" y="0" flags="0x1204"/>
      <component glyphName="uni0326" x="632" y="0" flags="0x1004"/>
    </TTGlyph>
    <TTGlyph name="Gdotaccent" xMin="48" yMin="-6" xMax="691" yMax="828">
      <component glyphName="G" x="0" y="0" flags="0x1204"/>
      <component glyphName="uni0307.cap" x="638" y="0" flags="0x1004"/>
    </TTGlyph>
    <TTGlyph name="H" xMin="41" yMin="-3" xMax="685" yMax="662">
      <contour>
        <pt x="148" y="657" on="0"/>
        <pt x="178" y="657" on="0"/>
        <pt x="280" y="662" on="1"/>
        <pt x="284" y="658" on="0"/>
        <pt x="283" y="634" on="0"/>
        <pt x="280" y="630" on="1"/>
        <pt x="265" y="630" on="0"/>
        <pt x="213" y="621" on="0"/>
        <pt x="211" y="614" on="1"/>
        <pt x="206" y="598" on="0"/>
        <pt x="206" y="540" on="1"/>
        <pt x="206" y="365" on="1"/>
        <pt x="208" y="362" on="1"/>
        <pt x="355" y="359" on="0"/>
        <pt x="365" y="359" on="1"/>
        <pt x="383" y="359" on="0"/>
        <pt x="518" y="362" on="1"/>
        <pt x="520" y="364" on="0"/>
        <pt x="520" y="366" on="1"/>
        <pt x="520" y="540" on="1"/>
        <pt x="520" y="598" on="0"/>
        <pt x="515" y="614" on="1"/>
        <pt x="513" y="621" on="0"/>
        <pt x="461" y="630" on="0"/>
        <pt x="446" y="630" on="1"/>
        <pt x="443" y="634" on="0"/>
        <pt x="442" y="658" on="0"/>
        <pt x="446" y="662" on="1"/>
        <pt x="548" y="657" on="0"/>
        <pt x="564" y="657" on="1"/>
        <pt x="578" y="657" on="0"/>
        <pt x="681" y="662" on="1"/>
        <pt x="685" y="658" on="0"/>
        <pt x="684" y="634" on="0"/>
        <pt x="681" y="630" on="1"/>
        <pt x="666" y="630" on="0"/>
        <pt x="614" y="621" on="0"/>
        <pt x="612" y="614" on="1"/>
        <pt x="607" y="598" on="0"/>
        <pt x="607" y="540" on="1"/>
        <pt x="607" y="119" on="1"/>
        <pt x="607" y="61" on="0"/>
        <pt x="612" y="45" on="1"/>
        <pt x="614" y="38" on="0"/>
        <pt x="666" y="29" on="0"/>
        <pt x="681" y="29" on="1"/>
        <pt x="684" y="25" on="0"/>
        <pt x="685" y="1" on="0"/>
        <pt x="681" y="-3" on="1"/>
        <pt x="578" y="2" on="0"/>
        <pt x="564" y="2" on="1"/>
        <pt x="548" y="2" on="0"/>
        <pt x="446" y="-3" on="1"/>
        <pt x="442" y="1" on="0"/>
        <pt x="443" y="25" on="0"/>
        <pt x="446" y="29" on="1"/>
        <pt x="461" y="29" on="0"/>
        <pt x="513" y="38" on="0"/>
        <pt x="515" y="45" on="1"/>
        <pt x="520" y="61" on="0"/>
        <pt x="520" y="119" on="1"/>
        <pt x="520" y="317" on="1"/>
        <pt x="518" y="321" on="1"/>
        <pt x="506" y="321" on="0"/>
        <pt x="395" y="325" on="0"/>
        <pt x="365" y="325" on="1"/>
        <pt x="219" y="325" on="0"/>
        <pt x="207" y="319" on="1"/>
        <pt x="206" y="317" on="1"/>
        <pt x="206" y="119" on="1"/>
        <pt x="206" y="61" on="0"/>
        <pt x="211" y="45" on="1"/>
        <pt x="213" y="38" on="0"/>
        <pt x="265" y="29" on="0"/>
        <pt x="280" y="29" on="1"/>
        <pt x="283" y="25" on="0"/>
        <pt x="284" y="1" on="0"/>
        <pt x="280" y="-3" on="1"/>
        <pt x="178" y="2" on="0"/>
        <pt x="148" y="2" on="0"/>
        <pt x="45" y="-3" on="1"/>
        <pt x="41" y="1" on="0"/>
        <pt x="42" y="25" on="0"/>
        <pt x="45" y="29" on="1"/>
        <pt x="60" y="29" on="0"/>
        <pt x="112" y="38" on="0"/>
        <pt x="114" y="45" on="1"/>
        <pt x="119" y="61" on="0"/>
        <pt x="119" y="119" on="1"/>
        <pt x="119" y="540" on="1"/>
        <pt x="119" y="598" on="0"/>
        <pt x="114" y="614" on="1"/>
        <pt x="112" y="621" on="0"/>
        <pt x="60" y="630" on="0"/>
        <pt x="45" y="630" on="1"/>
        <pt x="42" y="634" on="0"/>
        <pt x="41" y="658" on="0"/>
        <pt x="45" y="662" on="1"/>
      </contour>
    </TTGlyph>
    <TTGlyph name="Hbar" xMin="41" yMin="-3" xMax="685" yMax="662">
      <contour>
        <pt x="86" y="470" on="1"/>
        <pt x="81" y="470" on="0"/>
        <pt x="81" y="483" on="1"/>
        <pt x="81" y="499" on="0"/>
        <pt x="87" y="508" on="1"/>
        <pt x="639" y="508" on="1"/>
        <pt x="644" y="508" on="0"/>
        <pt x="644" y="495" on="1"/>
        <pt x="644" y="479" on="0"/>
        <pt x="638" y="470" on="1"/>
        <pt x="638" y="470" on="0"/>
      </contour>
      <contour>
        <pt x="148" y="657" on="0"/>
        <pt x="178" y="657" on="0"/>
        <pt x="280" y="662" on="1"/>
        <pt x="284" y="658" on="0"/>
        <pt x="283" y="634" on="0"/>
        <pt x="280" y="630" on="1"/>
        <pt x="265" y="630" on="0"/>
        <pt x="213" y="621" on="0"/>
        <pt x="211" y="614" on="1"/>
        <pt x="206" y="598" on="0"/>
        <pt x="206" y="540" on="1"/>
        <pt x="206" y="365" on="1"/>
        <pt x="208" y="362" on="1"/>
        <pt x="355" y="359" on="0"/>
        <pt x="365" y="359" on="1"/>
        <pt x="383" y="359" on="0"/>
        <pt x="518" y="362" on="1"/>
        <pt x="520" y="364" on="0"/>
        <pt x="520" y="366" on="1"/>
        <pt x="520" y="540" on="1"/>
        <pt x="520" y="598" on="0"/>
        <pt x="515" y="614" on="1"/>
        <pt x="513" y="621" on="0"/>
        <pt x="461" y="630" on="0"/>
        <pt x="446" y="630" on="1"/>
        <pt x="443" y="634" on="0"/>
        <pt x="442" y="658" on="0"/>
        <pt x="446" y="662" on="1"/>
        <pt x="548" y="657" on="0"/>
        <pt x="564" y="657" on="1"/>
        <pt x="578" y="657" on="0"/>
        <pt x="681" y="662" on="1"/>
        <pt x="685" y="658" on="0"/>
        <pt x="684" y="634" on="0"/>
        <pt x="681" y="630" on="1"/>
        <pt x="666" y="630" on="0"/>
        <pt x="614" y="621" on="0"/>
        <pt x="612" y="614" on="1"/>
        <pt x="607" y="598" on="0"/>
        <pt x="607" y="540" on="1"/>
        <pt x="607" y="119" on="1"/>
        <pt x="607" y="61" on="0"/>
        <pt x="612" y="45" on="1"/>
        <pt x="614" y="38" on="0"/>
        <pt x="666" y="29" on="0"/>
        <pt x="681" y="29" on="1"/>
        <pt x="684" y="25" on="0"/>
        <pt x="685" y="1" on="0"/>
        <pt x="681" y="-3" on="1"/>
        <pt x="578" y="2" on="0"/>
        <pt x="564" y="2" on="1"/>
        <pt x="548" y="2" on="0"/>
        <pt x="446" y="-3" on="1"/>
        <pt x="442" y="1" on="0"/>
        <pt x="443" y="25" on="0"/>
        <pt x="446" y="29" on="1"/>
        <pt x="461" y="29" on="0"/>
        <pt x="513" y="38" on="0"/>
        <pt x="515" y="45" on="1"/>
        <pt x="520" y="61" on="0"/>
        <pt x="520" y="119" on="1"/>
        <pt x="520" y="317" on="1"/>
        <pt x="518" y="321" on="1"/>
        <pt x="506" y="321" on="0"/>
        <pt x="395" y="325" on="0"/>
        <pt x="365" y="325" on="1"/>
        <pt x="219" y="325" on="0"/>
        <pt x="207" y="319" on="1"/>
        <pt x="206" y="317" on="1"/>
        <pt x="206" y="119" on="1"/>
        <pt x="206" y="61" on="0"/>
        <pt x="211" y="45" on="1"/>
        <pt x="213" y="38" on="0"/>
        <pt x="265" y="29" on="0"/>
        <pt x="280" y="29" on="1"/>
        <pt x="283" y="25" on="0"/>
        <pt x="284" y="1" on="0"/>
        <pt x="280" y="-3" on="1"/>
        <pt x="178" y="2" on="0"/>
        <pt x="148" y="2" on="0"/>
        <pt x="45" y="-3" on="1"/>
        <pt x="41" y="1" on="0"/>
        <pt x="42" y="25" on="0"/>
        <pt x="45" y="29" on="1"/>
        <pt x="60" y="29" on="0"/>
        <pt x="112" y="38" on="0"/>
        <pt x="114" y="45" on="1"/>
        <pt x="119" y="61" on="0"/>
        <pt x="119" y="119" on="1"/>
        <pt x="119" y="540" on="1"/>
        <pt x="119" y="598" on="0"/>
        <pt x="114" y="614" on="1"/>
        <pt x="112" y="621" on="0"/>
        <pt x="60" y="630" on="0"/>
        <pt x="45" y="630" on="1"/>
        <pt x="42" y="634" on="0"/>
        <pt x="41" y="658" on="0"/>
        <pt x="45" y="662" on="1"/>
      </contour>
    </TTGlyph>
    <TTGlyph name="Hcircumflex" xMin="45" yMin="-3" xMax="681" yMax="859">
      <component glyphName="H" x="0" y="0" flags="0x1204"/>
      <component glyphName="uni0302.cap" x="622" y="-1" flags="0x1004"/>
    </TTGlyph>
    <TTGlyph name="I" xMin="41" yMin="-3" xMax="284" yMax="662">
      <contour>
        <pt x="148" y="657" on="0"/>
        <pt x="178" y="657" on="0"/>
        <pt x="280" y="662" on="1"/>
        <pt x="284" y="658" on="0"/>
        <pt x="283" y="637" on="0"/>
        <pt x="280" y="633" on="1"/>
        <pt x="265" y="633" on="0"/>
        <pt x="213" y="624" on="0"/>
        <pt x="211" y="617" on="1"/>
        <pt x="206" y="601" on="0"/>
        <pt x="206" y="543" on="1"/>
        <pt x="206" y="116" on="1"/>
        <pt x="206" y="58" on="0"/>
        <pt x="211" y="42" on="1"/>
        <pt x="213" y="35" on="0"/>
        <pt x="265" y="26" on="0"/>
        <pt x="280" y="26" on="1"/>
        <pt x="283" y="22" on="0"/>
        <pt x="284" y="1" on="0"/>
        <pt x="280" y="-3" on="1"/>
        <pt x="178" y="2" on="0"/>
        <pt x="148" y="2" on="0"/>
        <pt x="45" y="-3" on="1"/>
        <pt x="41" y="1" on="0"/>
        <pt x="42" y="22" on="0"/>
        <pt x="45" y="26" on="1"/>
        <pt x="60" y="26" on="0"/>
        <pt x="112" y="35" on="0"/>
        <pt x="114" y="42" on="1"/>
        <pt x="119" y="58" on="0"/>
        <pt x="119" y="116" on="1"/>
        <pt x="119" y="543" on="1"/>
        <pt x="119" y="601" on="0"/>
        <pt x="114" y="617" on="1"/>
        <pt x="112" y="624" on="0"/>
        <pt x="60" y="633" on="0"/>
        <pt x="45" y="633" on="1"/>
        <pt x="42" y="637" on="0"/>
        <pt x="41" y="658" on="0"/>
        <pt x="45" y="662" on="1"/>
      </contour>
    </TTGlyph>
    <TTGlyph name="IJ" xMin="44" yMin="-227" xMax="533" yMax="662">
      <component glyphName="J" x="258" y="0" flags="0x1004"/>
      <component glyphName="I" x="-1" y="0" flags="0x1004"/>
    </TTGlyph>
    <TTGlyph name="Iacute" xMin="45" yMin="-3" xMax="300" yMax="861">
      <component glyphName="I" x="0" y="0" flags="0x1204"/>
      <component glyphName="acutecomb.cap" x="465" y="0" flags="0x1004"/>
    </TTGlyph>
    <TTGlyph name="Ibreve" xMin="45" yMin="-3" xMax="280" yMax="833">
      <component glyphName="I" x="0" y="0" flags="0x1204"/>
      <component glyphName="uni0306.cap" x="423" y="-3" flags="0x1004"/>
    </TTGlyph>
    <TTGlyph name="Icircumflex" xMin="45" yMin="-3" xMax="285" yMax="836">
      <component glyphName="I" x="0" y="0" flags="0x1204"/>
      <component glyphName="uni0302.cap" x="426" y="-24" flags="0x1004"/>
    </TTGlyph>
    <TTGlyph name="Idieresis" xMin="28" yMin="-3" xMax="309" yMax="828">
      <component glyphName="uni0308.cap" x="-1" y="16" flags="0x1004"/>
      <component glyphName="I" x="1" y="0" flags="0x1204"/>
    </TTGlyph>
    <TTGlyph name="Idotaccent" xMin="45" yMin="-3" xMax="280" yMax="828">
      <component glyphName="I" x="0" y="0" flags="0x1204"/>
      <component glyphName="uni0307.cap" x="418" y="0" flags="0x1004"/>
    </TTGlyph>
    <TTGlyph name="Idotaccent.sc" xMin="49" yMin="-3" xMax="241" yMax="635">
      <component glyphName="uni0307" x="402" y="37" flags="0x1004"/>
      <component glyphName="i.sc" x="0" y="0" flags="0x1204"/>
    </TTGlyph>
    <TTGlyph name="Igrave" xMin="37" yMin="-3" xMax="280" yMax="861">
      <component glyphName="I" x="0" y="0" flags="0x1204"/>
      <component glyphName="gravecomb.cap" x="390" y="0" flags="0x1004"/>
    </TTGlyph>
    <TTGlyph name="Imacron" xMin="45" yMin="-3" xMax="297" yMax="798">
      <component glyphName="I" x="1" y="0" flags="0x1204"/>
      <component glyphName="uni0304.cap" x="427" y="28" flags="0x1004"/>
    </TTGlyph>
    <TTGlyph name="Iogonek" xMin="42" yMin="-224" xMax="284" yMax="662">
      <contour>
        <pt x="166" y="657" on="1"/>
        <pt x="182" y="657" on="0"/>
        <pt x="282" y="662" on="1"/>
        <pt x="284" y="656" on="0"/>
        <pt x="284" y="647" on="1"/>
        <pt x="284" y="633" on="0"/>
        <pt x="280" y="633" on="1"/>
        <pt x="270" y="633" on="0"/>
        <pt x="218" y="619" on="0"/>
        <pt x="216" y="612" on="1"/>
        <pt x="207" y="577" on="0"/>
        <pt x="207" y="519" on="1"/>
        <pt x="207" y="139" on="1"/>
        <pt x="207" y="81" on="0"/>
        <pt x="216" y="46" on="1"/>
        <pt x="218" y="39" on="0"/>
        <pt x="270" y="26" on="0"/>
        <pt x="280" y="26" on="1"/>
        <pt x="284" y="26" on="0"/>
        <pt x="284" y="11" on="1"/>
        <pt x="284" y="3" on="0"/>
        <pt x="282" y="-3" on="1"/>
        <pt x="237" y="0" on="0"/>
        <pt x="229" y="0" on="1"/>
        <pt x="189" y="-24" on="0"/>
        <pt x="122" y="-92" on="0"/>
        <pt x="122" y="-122" on="1"/>
        <pt x="122" y="-138" on="0"/>
        <pt x="140" y="-165" on="0"/>
        <pt x="186" y="-165" on="0"/>
        <pt x="223" y="-146" on="0"/>
        <pt x="243" y="-127" on="0"/>
        <pt x="244" y="-127" on="1"/>
        <pt x="248" y="-127" on="0"/>
        <pt x="248" y="-153" on="0"/>
        <pt x="244" y="-158" on="1"/>
        <pt x="194" y="-224" on="0"/>
        <pt x="139" y="-224" on="1"/>
        <pt x="102" y="-224" on="0"/>
        <pt x="68" y="-174" on="0"/>
        <pt x="68" y="-147" on="1"/>
        <pt x="68" y="-110" on="0"/>
        <pt x="138" y="-29" on="0"/>
        <pt x="184" y="2" on="1"/>
        <pt x="166" y="2" on="1"/>
        <pt x="161" y="2" on="0"/>
        <pt x="46" y="-3" on="1"/>
        <pt x="42" y="1" on="0"/>
        <pt x="42" y="12" on="1"/>
        <pt x="42" y="26" on="0"/>
        <pt x="46" y="26" on="1"/>
        <pt x="59" y="26" on="0"/>
        <pt x="110" y="38" on="0"/>
        <pt x="113" y="46" on="1"/>
        <pt x="120" y="73" on="0"/>
        <pt x="120" y="135" on="1"/>
        <pt x="120" y="523" on="1"/>
        <pt x="120" y="585" on="0"/>
        <pt x="113" y="612" on="1"/>
        <pt x="110" y="620" on="0"/>
        <pt x="59" y="633" on="0"/>
        <pt x="46" y="633" on="1"/>
        <pt x="42" y="633" on="0"/>
        <pt x="42" y="646" on="1"/>
        <pt x="42" y="658" on="0"/>
        <pt x="46" y="662" on="1"/>
        <pt x="161" y="657" on="0"/>
      </contour>
    </TTGlyph>
    <TTGlyph name="Iota" xMin="41" yMin="-16" xMax="141" yMax="664">
      <contour>
        <pt x="122" y="468" on="1"/>
        <pt x="122" y="278" on="0"/>
        <pt x="123" y="218" on="1"/>
        <pt x="124" y="162" on="0"/>
        <pt x="135" y="16" on="0"/>
        <pt x="141" y="1" on="1"/>
        <pt x="129" y="-16" on="0"/>
        <pt x="116" y="-16" on="1"/>
        <pt x="108" y="-16" on="0"/>
        <pt x="51" y="10" on="0"/>
        <pt x="51" y="20" on="1"/>
        <pt x="58" y="207" on="0"/>
        <pt x="58" y="354" on="1"/>
        <pt x="58" y="468" on="0"/>
        <pt x="41" y="647" on="1"/>
        <pt x="43" y="652" on="0"/>
        <pt x="59" y="664" on="0"/>
        <pt x="63" y="664" on="1"/>
        <pt x="83" y="664" on="0"/>
        <pt x="132" y="639" on="0"/>
        <pt x="132" y="627" on="1"/>
        <pt x="132" y="626" on="0"/>
        <pt x="127" y="572" on="0"/>
        <pt x="122" y="496" on="0"/>
      </contour>
    </TTGlyph>
    <TTGlyph name="Iotadieresis" xMin="29" yMin="-16" xMax="310" yMax="828">
      <component glyphName="Iota" x="87" y="0" flags="0x1204"/>
      <component glyphName="uni0308.cap" x="0" y="16" flags="0x1004"/>
    </TTGlyph>
    <TTGlyph name="Iotatonos" xMin="-105" yMin="-16" xMax="142" yMax="939">
      <component glyphName="tonos" x="-146" y="235" flags="0x1004"/>
      <component glyphName="Iota" x="1" y="0" flags="0x1204"/>
    </TTGlyph>
    <TTGlyph name="Itilde" xMin="33" yMin="-3" xMax="315" yMax="811">
      <component glyphName="I" x="-1" y="0" flags="0x1204"/>
      <component glyphName="tildecomb.cap" x="420" y="-7" flags="0x1004"/>
    </TTGlyph>
    <TTGlyph name="J" xMin="-104" yMin="-227" xMax="279" yMax="662">
      <contour>
        <pt x="158" y="657" on="1"/>
        <pt x="172" y="657" on="0"/>
        <pt x="275" y="662" on="1"/>
        <pt x="279" y="658" on="0"/>
        <pt x="278" y="637" on="0"/>
        <pt x="275" y="633" on="1"/>
        <pt x="260" y="633" on="0"/>
        <pt x="208" y="624" on="0"/>
        <pt x="206" y="617" on="1"/>
        <pt x="201" y="601" on="0"/>
        <pt x="201" y="543" on="1"/>
        <pt x="201" y="121" on="1"/>
        <pt x="201" y="-58" on="0"/>
        <pt x="75" y="-227" on="0"/>
        <pt x="-33" y="-227" on="1"/>
        <pt x="-45" y="-227" on="0"/>
        <pt x="-87" y="-215" on="0"/>
        <pt x="-96" y="-209" on="1"/>
        <pt x="-104" y="-201" on="0"/>
        <pt x="-104" y="-186" on="1"/>
        <pt x="-104" y="-162" on="0"/>
        <pt x="-79" y="-130" on="0"/>
        <pt x="-56" y="-130" on="1"/>
        <pt x="-39" y="-130" on="0"/>
        <pt x="-8" y="-159" on="1"/>
        <pt x="15" y="-180" on="0"/>
        <pt x="37" y="-180" on="1"/>
        <pt x="60" y="-180" on="0"/>
        <pt x="92" y="-136" on="0"/>
        <pt x="114" y="1" on="0"/>
        <pt x="114" y="116" on="1"/>
        <pt x="114" y="543" on="1"/>
        <pt x="114" y="601" on="0"/>
        <pt x="109" y="617" on="1"/>
        <pt x="107" y="624" on="0"/>
        <pt x="55" y="633" on="0"/>
        <pt x="40" y="633" on="1"/>
        <pt x="37" y="637" on="0"/>
        <pt x="36" y="658" on="0"/>
        <pt x="40" y="662" on="1"/>
        <pt x="142" y="657" on="0"/>
      </contour>
    </TTGlyph>
    <TTGlyph name="Jcircumflex" xMin="-104" yMin="-227" xMax="277" yMax="859">
      <component glyphName="J" x="0" y="0" flags="0x1204"/>
      <component glyphName="uni0302.cap" x="418" y="-1" flags="0x1004"/>
    </TTGlyph>
    <TTGlyph name="K" xMin="41" yMin="-3" xMax="662" yMax="662">
      <contour>
        <pt x="148" y="657" on="0"/>
        <pt x="178" y="657" on="0"/>
        <pt x="280" y="662" on="1"/>
        <pt x="284" y="658" on="0"/>
        <pt x="283" y="634" on="0"/>
        <pt x="280" y="630" on="1"/>
        <pt x="265" y="630" on="0"/>
        <pt x="213" y="621" on="0"/>
        <pt x="211" y="614" on="1"/>
        <pt x="206" y="598" on="0"/>
        <pt x="206" y="540" on="1"/>
        <pt x="206" y="341" on="1"/>
        <pt x="232" y="357" on="0"/>
        <pt x="319" y="442" on="1"/>
        <pt x="412" y="534" on="0"/>
        <pt x="446" y="578" on="1"/>
        <pt x="460" y="597" on="0"/>
        <pt x="460" y="609" on="1"/>
        <pt x="460" y="631" on="0"/>
        <pt x="404" y="631" on="1"/>
        <pt x="398" y="643" on="0"/>
        <pt x="404" y="662" on="1"/>
        <pt x="515" y="656" on="0"/>
        <pt x="519" y="656" on="1"/>
        <pt x="545" y="656" on="0"/>
        <pt x="618" y="662" on="0"/>
        <pt x="627" y="662" on="1"/>
        <pt x="629" y="658" on="0"/>
        <pt x="628" y="631" on="0"/>
        <pt x="625" y="631" on="1"/>
        <pt x="617" y="630" on="1"/>
        <pt x="609" y="630" on="0"/>
        <pt x="596" y="628" on="0"/>
        <pt x="574" y="623" on="0"/>
        <pt x="555" y="616" on="0"/>
        <pt x="534" y="603" on="0"/>
        <pt x="526" y="594" on="1"/>
        <pt x="496" y="561" on="0"/>
        <pt x="432" y="496" on="0"/>
        <pt x="394" y="459" on="0"/>
        <pt x="313" y="382" on="0"/>
        <pt x="295" y="364" on="1"/>
        <pt x="292" y="360" on="0"/>
        <pt x="295" y="356" on="1"/>
        <pt x="300" y="350" on="0"/>
        <pt x="368" y="271" on="0"/>
        <pt x="383" y="253" on="0"/>
        <pt x="438" y="190" on="0"/>
        <pt x="461" y="165" on="0"/>
        <pt x="503" y="119" on="0"/>
        <pt x="535" y="87" on="0"/>
        <pt x="551" y="72" on="1"/>
        <pt x="596" y="31" on="0"/>
        <pt x="660" y="26" on="1"/>
        <pt x="663" y="21" on="0"/>
        <pt x="661" y="0" on="0"/>
        <pt x="659" y="-3" on="1"/>
        <pt x="548" y="-3" on="0"/>
        <pt x="517" y="8" on="1"/>
        <pt x="478" y="22" on="0"/>
        <pt x="449" y="51" on="1"/>
        <pt x="422" y="78" on="0"/>
        <pt x="224" y="304" on="1"/>
        <pt x="222" y="307" on="0"/>
        <pt x="215" y="307" on="1"/>
        <pt x="210" y="307" on="0"/>
        <pt x="206" y="305" on="1"/>
        <pt x="206" y="119" on="1"/>
        <pt x="206" y="61" on="0"/>
        <pt x="211" y="45" on="1"/>
        <pt x="213" y="38" on="0"/>
        <pt x="265" y="29" on="0"/>
        <pt x="280" y="29" on="1"/>
        <pt x="283" y="25" on="0"/>
        <pt x="284" y="1" on="0"/>
        <pt x="280" y="-3" on="1"/>
        <pt x="178" y="2" on="0"/>
        <pt x="148" y="2" on="0"/>
        <pt x="45" y="-3" on="1"/>
        <pt x="41" y="1" on="0"/>
        <pt x="42" y="25" on="0"/>
        <pt x="45" y="29" on="1"/>
        <pt x="60" y="29" on="0"/>
        <pt x="112" y="38" on="0"/>
        <pt x="114" y="45" on="1"/>
        <pt x="119" y="61" on="0"/>
        <pt x="119" y="119" on="1"/>
        <pt x="119" y="540" on="1"/>
        <pt x="119" y="598" on="0"/>
        <pt x="114" y="614" on="1"/>
        <pt x="112" y="621" on="0"/>
        <pt x="60" y="630" on="0"/>
        <pt x="45" y="630" on="1"/>
        <pt x="42" y="634" on="0"/>
        <pt x="41" y="658" on="0"/>
        <pt x="45" y="662" on="1"/>
      </contour>
    </TTGlyph>
    <TTGlyph name="Kappa" xMin="42" yMin="-16" xMax="516" yMax="664">
      <contour>
        <pt x="515" y="50" on="1"/>
        <pt x="477" y="-4" on="0"/>
        <pt x="418" y="-4" on="1"/>
        <pt x="371" y="-4" on="0"/>
        <pt x="278" y="102" on="0"/>
        <pt x="217" y="242" on="0"/>
        <pt x="200" y="315" on="1"/>
        <pt x="127" y="181" on="0"/>
        <pt x="130" y="98" on="1"/>
        <pt x="135" y="20" on="0"/>
        <pt x="142" y="1" on="1"/>
        <pt x="130" y="-16" on="0"/>
        <pt x="117" y="-16" on="1"/>
        <pt x="109" y="-16" on="0"/>
        <pt x="52" y="10" on="0"/>
        <pt x="52" y="20" on="1"/>
        <pt x="59" y="207" on="0"/>
        <pt x="59" y="354" on="1"/>
        <pt x="59" y="468" on="0"/>
        <pt x="42" y="647" on="1"/>
        <pt x="44" y="652" on="0"/>
        <pt x="60" y="664" on="0"/>
        <pt x="64" y="664" on="1"/>
        <pt x="84" y="664" on="0"/>
        <pt x="133" y="639" on="0"/>
        <pt x="133" y="627" on="1"/>
        <pt x="133" y="626" on="0"/>
        <pt x="128" y="572" on="0"/>
        <pt x="123" y="496" on="0"/>
        <pt x="123" y="468" on="1"/>
        <pt x="123" y="258" on="1"/>
        <pt x="164" y="375" on="0"/>
        <pt x="324" y="609" on="0"/>
        <pt x="384" y="660" on="1"/>
        <pt x="389" y="663" on="0"/>
        <pt x="457" y="644" on="0"/>
        <pt x="459" y="642" on="1"/>
        <pt x="469" y="632" on="0"/>
        <pt x="465" y="621" on="1"/>
        <pt x="408" y="587" on="0"/>
        <pt x="273" y="436" on="0"/>
        <pt x="220" y="349" on="1"/>
        <pt x="251" y="230" on="0"/>
        <pt x="398" y="58" on="0"/>
        <pt x="455" y="58" on="1"/>
        <pt x="465" y="58" on="0"/>
        <pt x="483" y="61" on="0"/>
        <pt x="496" y="67" on="0"/>
        <pt x="504" y="72" on="0"/>
        <pt x="511" y="78" on="0"/>
        <pt x="512" y="78" on="1"/>
        <pt x="514" y="78" on="0"/>
        <pt x="517" y="56" on="0"/>
      </contour>
    </TTGlyph>
    <TTGlyph name="Kcommaaccent" xMin="45" yMin="-229" xMax="660" yMax="662">
      <component glyphName="K" x="0" y="0" flags="0x1204"/>
      <component glyphName="uni0326" x="610" y="0" flags="0x1004"/>
    </TTGlyph>
    <TTGlyph name="L" xMin="41" yMin="-4" xMax="559" yMax="662">
      <contour>
        <pt x="206" y="116" on="1"/>
        <pt x="206" y="49" on="0"/>
        <pt x="212" y="44" on="1"/>
        <pt x="225" y="34" on="0"/>
        <pt x="283" y="34" on="1"/>
        <pt x="340" y="34" on="1"/>
        <pt x="417" y="34" on="0"/>
        <pt x="457" y="61" on="1"/>
        <pt x="498" y="89" on="0"/>
        <pt x="520" y="162" on="1"/>
        <pt x="522" y="168" on="0"/>
        <pt x="534" y="168" on="1"/>
        <pt x="553" y="168" on="0"/>
        <pt x="559" y="162" on="1"/>
        <pt x="554" y="149" on="0"/>
        <pt x="533" y="92" on="0"/>
        <pt x="521" y="57" on="0"/>
        <pt x="507" y="11" on="0"/>
        <pt x="505" y="-4" on="1"/>
        <pt x="454" y="-4" on="0"/>
        <pt x="234" y="0" on="0"/>
        <pt x="164" y="0" on="1"/>
        <pt x="140" y="0" on="0"/>
        <pt x="64" y="-3" on="0"/>
        <pt x="45" y="-3" on="1"/>
        <pt x="41" y="1" on="0"/>
        <pt x="42" y="22" on="0"/>
        <pt x="45" y="26" on="1"/>
        <pt x="60" y="26" on="0"/>
        <pt x="112" y="35" on="0"/>
        <pt x="114" y="42" on="1"/>
        <pt x="119" y="58" on="0"/>
        <pt x="119" y="116" on="1"/>
        <pt x="119" y="543" on="1"/>
        <pt x="119" y="601" on="0"/>
        <pt x="114" y="617" on="1"/>
        <pt x="112" y="624" on="0"/>
        <pt x="60" y="633" on="0"/>
        <pt x="45" y="633" on="1"/>
        <pt x="42" y="637" on="0"/>
        <pt x="41" y="658" on="0"/>
        <pt x="45" y="662" on="1"/>
        <pt x="148" y="657" on="0"/>
        <pt x="178" y="657" on="0"/>
        <pt x="280" y="662" on="1"/>
        <pt x="284" y="658" on="0"/>
        <pt x="283" y="637" on="0"/>
        <pt x="280" y="633" on="1"/>
        <pt x="265" y="633" on="0"/>
        <pt x="213" y="624" on="0"/>
        <pt x="211" y="617" on="1"/>
        <pt x="206" y="601" on="0"/>
        <pt x="206" y="543" on="1"/>
      </contour>
    </TTGlyph>
    <TTGlyph name="Lacute" xMin="45" yMin="-4" xMax="559" yMax="861">
      <component glyphName="L" x="0" y="0" flags="0x1204"/>
      <component glyphName="acutecomb.cap" x="484" y="0" flags="0x1004"/>
    </TTGlyph>
    <TTGlyph name="Lambda" xMin="-14" yMin="-12" xMax="546" yMax="666">
      <contour>
        <pt x="284" y="626" on="1"/>
        <pt x="302" y="596" on="0"/>
        <pt x="328" y="544" on="0"/>
        <pt x="356" y="474" on="0"/>
        <pt x="365" y="449" on="0"/>
        <pt x="399" y="349" on="0"/>
        <pt x="402" y="339" on="1"/>
        <pt x="494" y="68" on="0"/>
        <pt x="546" y="4" on="1"/>
        <pt x="545" y="0" on="0"/>
        <pt x="538" y="-8" on="0"/>
        <pt x="535" y="-10" on="1"/>
        <pt x="532" y="-12" on="1"/>
        <pt x="470" y="-5" on="0"/>
        <pt x="448" y="17" on="1"/>
        <pt x="440" y="31" on="0"/>
        <pt x="426" y="59" on="0"/>
        <pt x="412" y="92" on="0"/>
        <pt x="403" y="114" on="0"/>
        <pt x="389" y="155" on="0"/>
        <pt x="382" y="173" on="0"/>
        <pt x="366" y="222" on="0"/>
        <pt x="361" y="236" on="0"/>
        <pt x="343" y="295" on="0"/>
        <pt x="341" y="302" on="1"/>
        <pt x="337" y="314" on="0"/>
        <pt x="309" y="408" on="0"/>
        <pt x="297" y="444" on="0"/>
        <pt x="272" y="512" on="0"/>
        <pt x="249" y="560" on="0"/>
        <pt x="235" y="582" on="1"/>
        <pt x="169" y="319" on="0"/>
        <pt x="75" y="0" on="1"/>
        <pt x="74" y="-4" on="0"/>
        <pt x="61" y="-10" on="0"/>
        <pt x="56" y="-10" on="1"/>
        <pt x="-3" y="11" on="0"/>
        <pt x="-14" y="26" on="1"/>
        <pt x="11" y="52" on="0"/>
        <pt x="63" y="153" on="0"/>
        <pt x="118" y="307" on="0"/>
        <pt x="150" y="404" on="0"/>
        <pt x="204" y="589" on="0"/>
        <pt x="207" y="599" on="1"/>
        <pt x="195" y="611" on="0"/>
        <pt x="157" y="608" on="0"/>
        <pt x="138" y="597" on="1"/>
        <pt x="135" y="603" on="0"/>
        <pt x="135" y="613" on="1"/>
        <pt x="140" y="630" on="0"/>
        <pt x="189" y="666" on="0"/>
        <pt x="210" y="666" on="1"/>
        <pt x="260" y="666" on="0"/>
      </contour>
    </TTGlyph>
    <TTGlyph name="Lcaron" xMin="45" yMin="-4" xMax="559" yMax="667">
      <component glyphName="L" x="0" y="0" flags="0x1004"/>
      <component glyphName="uni0315" x="734" y="-7" flags="0x1004"/>
    </TTGlyph>
    <TTGlyph name="Lcommaaccent" xMin="45" yMin="-229" xMax="559" yMax="662">
      <component glyphName="L" x="0" y="0" flags="0x1204"/>
      <component glyphName="uni0326" x="573" y="0" flags="0x1004"/>
    </TTGlyph>
    <TTGlyph name="Ldot" xMin="45" yMin="-4" xMax="559" yMax="662">
      <component glyphName="L" x="0" y="0" flags="0x1204"/>
      <component glyphName="uni0307" x="702" y="-234" flags="0x1004"/>
    </TTGlyph>
    <TTGlyph name="Lslash" xMin="34" yMin="-4" xMax="559" yMax="662">
      <contour>
        <pt x="384" y="447" on="1"/>
        <pt x="389" y="442" on="0"/>
        <pt x="405" y="418" on="0"/>
        <pt x="402" y="416" on="1"/>
        <pt x="51" y="178" on="1"/>
        <pt x="45" y="184" on="0"/>
        <pt x="31" y="205" on="0"/>
        <pt x="34" y="207" on="1"/>
      </contour>
      <contour>
        <pt x="206" y="116" on="1"/>
        <pt x="206" y="49" on="0"/>
        <pt x="212" y="44" on="1"/>
        <pt x="225" y="34" on="0"/>
        <pt x="283" y="34" on="1"/>
        <pt x="340" y="34" on="1"/>
        <pt x="417" y="34" on="0"/>
        <pt x="457" y="61" on="1"/>
        <pt x="498" y="89" on="0"/>
        <pt x="520" y="162" on="1"/>
        <pt x="522" y="168" on="0"/>
        <pt x="534" y="168" on="1"/>
        <pt x="553" y="168" on="0"/>
        <pt x="559" y="162" on="1"/>
        <pt x="554" y="149" on="0"/>
        <pt x="533" y="92" on="0"/>
        <pt x="521" y="57" on="0"/>
        <pt x="507" y="11" on="0"/>
        <pt x="505" y="-4" on="1"/>
        <pt x="454" y="-4" on="0"/>
        <pt x="234" y="0" on="0"/>
        <pt x="164" y="0" on="1"/>
        <pt x="140" y="0" on="0"/>
        <pt x="64" y="-3" on="0"/>
        <pt x="45" y="-3" on="1"/>
        <pt x="41" y="1" on="0"/>
        <pt x="42" y="22" on="0"/>
        <pt x="45" y="26" on="1"/>
        <pt x="60" y="26" on="0"/>
        <pt x="112" y="35" on="0"/>
        <pt x="114" y="42" on="1"/>
        <pt x="119" y="58" on="0"/>
        <pt x="119" y="116" on="1"/>
        <pt x="119" y="543" on="1"/>
        <pt x="119" y="601" on="0"/>
        <pt x="114" y="617" on="1"/>
        <pt x="112" y="624" on="0"/>
        <pt x="60" y="633" on="0"/>
        <pt x="45" y="633" on="1"/>
        <pt x="42" y="637" on="0"/>
        <pt x="41" y="658" on="0"/>
        <pt x="45" y="662" on="1"/>
        <pt x="148" y="657" on="0"/>
        <pt x="178" y="657" on="0"/>
        <pt x="280" y="662" on="1"/>
        <pt x="284" y="658" on="0"/>
        <pt x="283" y="637" on="0"/>
        <pt x="280" y="633" on="1"/>
        <pt x="265" y="633" on="0"/>
        <pt x="213" y="624" on="0"/>
        <pt x="211" y="617" on="1"/>
        <pt x="206" y="601" on="0"/>
        <pt x="206" y="543" on="1"/>
      </contour>
    </TTGlyph>
    <TTGlyph name="M" xMin="23" yMin="-3" xMax="873" yMax="662">
      <contour>
        <pt x="162" y="657" on="1"/>
        <pt x="188" y="657" on="0"/>
        <pt x="243" y="662" on="1"/>
        <pt x="252" y="635" on="0"/>
        <pt x="325" y="459" on="0"/>
        <pt x="427" y="217" on="0"/>
        <pt x="455" y="146" on="1"/>
        <pt x="456" y="144" on="0"/>
        <pt x="459" y="144" on="1"/>
        <pt x="463" y="144" on="0"/>
        <pt x="464" y="148" on="1"/>
        <pt x="610" y="524" on="0"/>
        <pt x="617" y="542" on="1"/>
        <pt x="661" y="662" on="1"/>
        <pt x="725" y="658" on="0"/>
        <pt x="740" y="658" on="1"/>
        <pt x="802" y="658" on="0"/>
        <pt x="852" y="662" on="1"/>
        <pt x="855" y="633" on="1"/>
        <pt x="841" y="633" on="0"/>
        <pt x="787" y="622" on="0"/>
        <pt x="784" y="615" on="1"/>
        <pt x="779" y="604" on="0"/>
        <pt x="779" y="577" on="1"/>
        <pt x="780" y="546" on="0"/>
        <pt x="783" y="392" on="0"/>
        <pt x="788" y="185" on="0"/>
        <pt x="789" y="140" on="1"/>
        <pt x="791" y="70" on="0"/>
        <pt x="801" y="43" on="1"/>
        <pt x="804" y="34" on="0"/>
        <pt x="856" y="26" on="0"/>
        <pt x="871" y="26" on="1"/>
        <pt x="878" y="13" on="0"/>
        <pt x="873" y="-3" on="1"/>
        <pt x="773" y="2" on="0"/>
        <pt x="754" y="2" on="1"/>
        <pt x="749" y="2" on="0"/>
        <pt x="634" y="-3" on="1"/>
        <pt x="632" y="-1" on="0"/>
        <pt x="631" y="20" on="0"/>
        <pt x="634" y="26" on="1"/>
        <pt x="680" y="26" on="0"/>
        <pt x="699" y="37" on="1"/>
        <pt x="708" y="42" on="0"/>
        <pt x="708" y="79" on="1"/>
        <pt x="708" y="86" on="0"/>
        <pt x="706" y="129" on="0"/>
        <pt x="706" y="137" on="1"/>
        <pt x="697" y="445" on="0"/>
        <pt x="693" y="565" on="1"/>
        <pt x="693" y="585" on="0"/>
        <pt x="684" y="585" on="1"/>
        <pt x="682" y="585" on="0"/>
        <pt x="679" y="578" on="1"/>
        <pt x="656" y="521" on="0"/>
        <pt x="468" y="49" on="1"/>
        <pt x="463" y="38" on="0"/>
        <pt x="437" y="-1" on="0"/>
        <pt x="430" y="-2" on="1"/>
        <pt x="428" y="-2" on="0"/>
        <pt x="421" y="0" on="1"/>
        <pt x="177" y="584" on="1"/>
        <pt x="175" y="488" on="0"/>
        <pt x="169" y="238" on="0"/>
        <pt x="164" y="77" on="0"/>
        <pt x="164" y="75" on="1"/>
        <pt x="164" y="55" on="0"/>
        <pt x="168" y="44" on="1"/>
        <pt x="172" y="34" on="0"/>
        <pt x="230" y="26" on="0"/>
        <pt x="247" y="26" on="1"/>
        <pt x="255" y="16" on="0"/>
        <pt x="249" y="-3" on="1"/>
        <pt x="149" y="2" on="0"/>
        <pt x="143" y="2" on="1"/>
        <pt x="141" y="2" on="0"/>
        <pt x="26" y="-3" on="1"/>
        <pt x="24" y="-1" on="0"/>
        <pt x="23" y="20" on="0"/>
        <pt x="26" y="26" on="1"/>
        <pt x="42" y="26" on="0"/>
        <pt x="101" y="36" on="0"/>
        <pt x="107" y="44" on="1"/>
        <pt x="117" y="59" on="0"/>
        <pt x="119" y="94" on="1"/>
        <pt x="133" y="467" on="0"/>
        <pt x="133" y="572" on="1"/>
        <pt x="133" y="601" on="0"/>
        <pt x="129" y="612" on="1"/>
        <pt x="126" y="620" on="0"/>
        <pt x="72" y="633" on="0"/>
        <pt x="59" y="633" on="1"/>
        <pt x="58" y="633" on="0"/>
        <pt x="58" y="660" on="0"/>
        <pt x="59" y="662" on="1"/>
        <pt x="73" y="661" on="0"/>
        <pt x="135" y="657" on="0"/>
      </contour>
    </TTGlyph>
    <TTGlyph name="Mu" xMin="24" yMin="-22" xMax="673" yMax="666">
      <contour>
        <pt x="614" y="467" on="1"/>
        <pt x="634" y="247" on="0"/>
        <pt x="637" y="217" on="1"/>
        <pt x="643" y="160" on="0"/>
        <pt x="666" y="17" on="0"/>
        <pt x="673" y="3" on="1"/>
        <pt x="663" y="-16" on="0"/>
        <pt x="650" y="-17" on="1"/>
        <pt x="643" y="-18" on="0"/>
        <pt x="582" y="8" on="0"/>
        <pt x="581" y="18" on="1"/>
        <pt x="579" y="51" on="0"/>
        <pt x="567" y="259" on="0"/>
        <pt x="561" y="345" on="1"/>
        <pt x="550" y="476" on="0"/>
        <pt x="537" y="550" on="1"/>
        <pt x="496" y="308" on="0"/>
        <pt x="397" y="80" on="1"/>
        <pt x="396" y="76" on="0"/>
        <pt x="389" y="68" on="0"/>
        <pt x="386" y="66" on="1"/>
        <pt x="383" y="64" on="1"/>
        <pt x="320" y="66" on="0"/>
        <pt x="298" y="88" on="1"/>
        <pt x="265" y="134" on="0"/>
        <pt x="188" y="300" on="1"/>
        <pt x="138" y="406" on="0"/>
        <pt x="111" y="500" on="1"/>
        <pt x="94" y="270" on="0"/>
        <pt x="93" y="251" on="1"/>
        <pt x="86" y="86" on="0"/>
        <pt x="110" y="-6" on="1"/>
        <pt x="104" y="-20" on="0"/>
        <pt x="94" y="-22" on="1"/>
        <pt x="77" y="-17" on="0"/>
        <pt x="32" y="8" on="0"/>
        <pt x="24" y="24" on="1"/>
        <pt x="29" y="61" on="0"/>
        <pt x="38" y="137" on="0"/>
        <pt x="44" y="199" on="0"/>
        <pt x="50" y="279" on="0"/>
        <pt x="53" y="327" on="0"/>
        <pt x="55" y="409" on="0"/>
        <pt x="56" y="444" on="0"/>
        <pt x="57" y="529" on="0"/>
        <pt x="57" y="550" on="0"/>
        <pt x="57" y="638" on="0"/>
        <pt x="57" y="642" on="1"/>
        <pt x="57" y="648" on="0"/>
        <pt x="67" y="666" on="0"/>
        <pt x="73" y="666" on="1"/>
        <pt x="87" y="666" on="0"/>
        <pt x="120" y="633" on="1"/>
        <pt x="134" y="603" on="0"/>
        <pt x="223" y="392" on="0"/>
        <pt x="250" y="334" on="1"/>
        <pt x="313" y="198" on="0"/>
        <pt x="366" y="121" on="1"/>
        <pt x="423" y="245" on="0"/>
        <pt x="492" y="483" on="0"/>
        <pt x="519" y="635" on="1"/>
        <pt x="520" y="644" on="0"/>
        <pt x="534" y="663" on="0"/>
        <pt x="539" y="663" on="1"/>
        <pt x="552" y="663" on="0"/>
        <pt x="599" y="635" on="0"/>
        <pt x="603" y="626" on="1"/>
        <pt x="603" y="623" on="0"/>
        <pt x="607" y="572" on="0"/>
        <pt x="612" y="494" on="0"/>
      </contour>
    </TTGlyph>
    <TTGlyph name="N" xMin="41" yMin="-5" xMax="745" yMax="665">
      <contour>
        <pt x="143" y="660" on="1"/>
        <pt x="191" y="660" on="0"/>
        <pt x="219" y="662" on="1"/>
        <pt x="244" y="623" on="0"/>
        <pt x="554" y="245" on="0"/>
        <pt x="611" y="166" on="1"/>
        <pt x="611" y="224" on="1"/>
        <pt x="611" y="545" on="1"/>
        <pt x="611" y="598" on="0"/>
        <pt x="601" y="614" on="1"/>
        <pt x="597" y="621" on="0"/>
        <pt x="540" y="634" on="0"/>
        <pt x="525" y="634" on="1"/>
        <pt x="517" y="645" on="0"/>
        <pt x="523" y="663" on="1"/>
        <pt x="623" y="658" on="0"/>
        <pt x="638" y="658" on="1"/>
        <pt x="658" y="658" on="0"/>
        <pt x="690" y="660" on="0"/>
        <pt x="728" y="662" on="0"/>
        <pt x="745" y="663" on="1"/>
        <pt x="752" y="650" on="0"/>
        <pt x="745" y="634" on="1"/>
        <pt x="731" y="634" on="0"/>
        <pt x="672" y="622" on="0"/>
        <pt x="667" y="614" on="1"/>
        <pt x="657" y="597" on="0"/>
        <pt x="657" y="546" on="1"/>
        <pt x="657" y="139" on="1"/>
        <pt x="657" y="53" on="0"/>
        <pt x="659" y="1" on="1"/>
        <pt x="658" y="-5" on="0"/>
        <pt x="646" y="-5" on="1"/>
        <pt x="629" y="-5" on="0"/>
        <pt x="611" y="18" on="1"/>
        <pt x="175" y="569" on="1"/>
        <pt x="175" y="115" on="1"/>
        <pt x="175" y="62" on="0"/>
        <pt x="185" y="46" on="1"/>
        <pt x="189" y="39" on="0"/>
        <pt x="245" y="26" on="0"/>
        <pt x="260" y="26" on="1"/>
        <pt x="268" y="15" on="0"/>
        <pt x="262" y="-3" on="1"/>
        <pt x="162" y="2" on="0"/>
        <pt x="148" y="2" on="1"/>
        <pt x="128" y="2" on="0"/>
        <pt x="96" y="0" on="0"/>
        <pt x="58" y="-2" on="0"/>
        <pt x="41" y="-3" on="1"/>
        <pt x="34" y="10" on="0"/>
        <pt x="41" y="26" on="1"/>
        <pt x="55" y="26" on="0"/>
        <pt x="114" y="38" on="0"/>
        <pt x="119" y="46" on="1"/>
        <pt x="129" y="63" on="0"/>
        <pt x="129" y="114" on="1"/>
        <pt x="129" y="548" on="1"/>
        <pt x="129" y="599" on="0"/>
        <pt x="119" y="616" on="1"/>
        <pt x="114" y="624" on="0"/>
        <pt x="55" y="636" on="0"/>
        <pt x="41" y="636" on="1"/>
        <pt x="34" y="652" on="0"/>
        <pt x="41" y="665" on="1"/>
        <pt x="57" y="664" on="0"/>
        <pt x="124" y="660" on="0"/>
      </contour>
    </TTGlyph>
    <TTGlyph name="Nacute" xMin="41" yMin="-5" xMax="745" yMax="861">
      <component glyphName="N" x="0" y="0" flags="0x1204"/>
      <component glyphName="acutecomb.cap" x="658" y="0" flags="0x1004"/>
    </TTGlyph>
    <TTGlyph name="Ncaron" xMin="41" yMin="-5" xMax="745" yMax="859">
      <component glyphName="uni030C.cap" x="241" y="0" flags="0x1004"/>
      <component glyphName="N" x="0" y="0" flags="0x1204"/>
    </TTGlyph>
    <TTGlyph name="Ncommaaccent" xMin="41" yMin="-229" xMax="745" yMax="665">
      <component glyphName="N" x="0" y="0" flags="0x1204"/>
      <component glyphName="uni0326" x="642" y="0" flags="0x1004"/>
    </TTGlyph>
    <TTGlyph name="Ntilde" xMin="41" yMin="-5" xMax="745" yMax="811">
      <component glyphName="N" x="0" y="0" flags="0x1204"/>
      <component glyphName="tildecomb.cap" x="617" y="-7" flags="0x1004"/>
    </TTGlyph>
    <TTGlyph name="Nu" xMin="36" yMin="-22" xMax="463" yMax="663">
      <contour>
        <pt x="449" y="7" on="1"/>
        <pt x="449" y="3" on="0"/>
        <pt x="440" y="-5" on="0"/>
        <pt x="436" y="-8" on="1"/>
        <pt x="432" y="-10" on="1"/>
        <pt x="370" y="0" on="0"/>
        <pt x="352" y="15" on="1"/>
        <pt x="266" y="156" on="0"/>
        <pt x="194" y="302" on="1"/>
        <pt x="182" y="326" on="0"/>
        <pt x="107" y="473" on="0"/>
        <pt x="91" y="508" on="1"/>
        <pt x="86" y="396" on="0"/>
        <pt x="90" y="250" on="1"/>
        <pt x="96" y="86" on="0"/>
        <pt x="125" y="-5" on="1"/>
        <pt x="122" y="-18" on="0"/>
        <pt x="110" y="-22" on="1"/>
        <pt x="53" y="1" on="0"/>
        <pt x="36" y="29" on="1"/>
        <pt x="56" y="304" on="0"/>
        <pt x="36" y="640" on="1"/>
        <pt x="36" y="663" on="0"/>
        <pt x="54" y="663" on="0"/>
        <pt x="93" y="637" on="0"/>
        <pt x="98" y="630" on="1"/>
        <pt x="117" y="595" on="0"/>
        <pt x="229" y="386" on="0"/>
        <pt x="255" y="339" on="1"/>
        <pt x="379" y="110" on="0"/>
        <pt x="412" y="57" on="1"/>
        <pt x="412" y="279" on="0"/>
        <pt x="407" y="386" on="1"/>
        <pt x="399" y="590" on="0"/>
        <pt x="384" y="644" on="1"/>
        <pt x="385" y="648" on="0"/>
        <pt x="395" y="660" on="0"/>
        <pt x="399" y="661" on="1"/>
        <pt x="417" y="652" on="0"/>
        <pt x="454" y="554" on="0"/>
        <pt x="463" y="512" on="1"/>
        <pt x="456" y="346" on="0"/>
      </contour>
    </TTGlyph>
    <TTGlyph name="O" xMin="49" yMin="-10" xMax="699" yMax="667">
      <contour>
        <pt x="358" y="633" on="1"/>
        <pt x="304" y="633" on="0"/>
        <pt x="220" y="583" on="0"/>
        <pt x="172" y="500" on="0"/>
        <pt x="148" y="402" on="0"/>
        <pt x="148" y="350" on="1"/>
        <pt x="148" y="270" on="0"/>
        <pt x="202" y="124" on="0"/>
        <pt x="315" y="24" on="0"/>
        <pt x="389" y="24" on="1"/>
        <pt x="443" y="24" on="0"/>
        <pt x="527" y="74" on="0"/>
        <pt x="575" y="158" on="0"/>
        <pt x="600" y="256" on="0"/>
        <pt x="600" y="309" on="1"/>
        <pt x="600" y="389" on="0"/>
        <pt x="545" y="534" on="0"/>
        <pt x="432" y="633" on="0"/>
      </contour>
      <contour>
        <pt x="373" y="667" on="1"/>
        <pt x="508" y="667" on="0"/>
        <pt x="699" y="475" on="0"/>
        <pt x="699" y="328" on="1"/>
        <pt x="699" y="189" on="0"/>
        <pt x="506" y="-10" on="0"/>
        <pt x="373" y="-10" on="1"/>
        <pt x="239" y="-10" on="0"/>
        <pt x="49" y="182" on="0"/>
        <pt x="49" y="328" on="1"/>
        <pt x="49" y="468" on="0"/>
        <pt x="241" y="667" on="0"/>
      </contour>
    </TTGlyph>
    <TTGlyph name="OE" xMin="49" yMin="-7" xMax="989" yMax="667">
      <contour>
        <pt x="594" y="0" on="1"/>
        <pt x="520" y="0" on="0"/>
        <pt x="476" y="-3" on="1"/>
        <pt x="416" y="-7" on="0"/>
        <pt x="363" y="-7" on="1"/>
        <pt x="231" y="-7" on="0"/>
        <pt x="49" y="188" on="0"/>
        <pt x="49" y="328" on="1"/>
        <pt x="49" y="467" on="0"/>
        <pt x="240" y="667" on="0"/>
        <pt x="368" y="667" on="1"/>
        <pt x="373" y="667" on="0"/>
        <pt x="555" y="656" on="0"/>
        <pt x="593" y="657" on="1"/>
        <pt x="638" y="657" on="0"/>
        <pt x="859" y="664" on="0"/>
        <pt x="915" y="664" on="1"/>
        <pt x="919" y="635" on="0"/>
        <pt x="942" y="540" on="0"/>
        <pt x="944" y="528" on="1"/>
        <pt x="939" y="523" on="0"/>
        <pt x="913" y="523" on="0"/>
        <pt x="912" y="530" on="1"/>
        <pt x="897" y="586" on="0"/>
        <pt x="841" y="624" on="0"/>
        <pt x="796" y="624" on="1"/>
        <pt x="710" y="624" on="1"/>
        <pt x="644" y="624" on="0"/>
        <pt x="641" y="613" on="1"/>
        <pt x="636" y="597" on="0"/>
        <pt x="636" y="542" on="1"/>
        <pt x="636" y="355" on="1"/>
        <pt x="636" y="349" on="0"/>
        <pt x="679" y="349" on="1"/>
        <pt x="732" y="349" on="1"/>
        <pt x="799" y="349" on="0"/>
        <pt x="829" y="368" on="0"/>
        <pt x="840" y="412" on="1"/>
        <pt x="841" y="418" on="0"/>
        <pt x="842" y="421" on="1"/>
        <pt x="843" y="428" on="0"/>
        <pt x="857" y="428" on="1"/>
        <pt x="869" y="428" on="0"/>
        <pt x="874" y="423" on="1"/>
        <pt x="874" y="234" on="1"/>
        <pt x="870" y="230" on="0"/>
        <pt x="858" y="230" on="1"/>
        <pt x="845" y="230" on="0"/>
        <pt x="842" y="238" on="1"/>
        <pt x="835" y="266" on="0"/>
        <pt x="825" y="293" on="0"/>
        <pt x="819" y="300" on="0"/>
        <pt x="814" y="304" on="1"/>
        <pt x="801" y="312" on="0"/>
        <pt x="708" y="312" on="1"/>
        <pt x="636" y="312" on="0"/>
        <pt x="636" y="303" on="1"/>
        <pt x="636" y="113" on="1"/>
        <pt x="636" y="49" on="0"/>
        <pt x="642" y="44" on="1"/>
        <pt x="655" y="34" on="0"/>
        <pt x="713" y="34" on="1"/>
        <pt x="761" y="34" on="1"/>
        <pt x="843" y="34" on="0"/>
        <pt x="887" y="61" on="1"/>
        <pt x="920" y="80" on="0"/>
        <pt x="950" y="162" on="1"/>
        <pt x="952" y="168" on="0"/>
        <pt x="964" y="168" on="1"/>
        <pt x="983" y="168" on="0"/>
        <pt x="989" y="162" on="1"/>
        <pt x="984" y="149" on="0"/>
        <pt x="963" y="92" on="0"/>
        <pt x="951" y="57" on="0"/>
        <pt x="937" y="11" on="0"/>
        <pt x="935" y="-4" on="1"/>
        <pt x="884" y="-4" on="0"/>
        <pt x="664" y="0" on="0"/>
      </contour>
      <contour>
        <pt x="357" y="633" on="1"/>
        <pt x="288" y="633" on="0"/>
        <pt x="190" y="545" on="0"/>
        <pt x="148" y="421" on="0"/>
        <pt x="148" y="350" on="1"/>
        <pt x="148" y="270" on="0"/>
        <pt x="202" y="124" on="0"/>
        <pt x="314" y="24" on="0"/>
        <pt x="388" y="24" on="1"/>
        <pt x="499" y="24" on="0"/>
        <pt x="525" y="63" on="1"/>
        <pt x="536" y="80" on="0"/>
        <pt x="547" y="121" on="0"/>
        <pt x="549" y="153" on="0"/>
        <pt x="549" y="187" on="1"/>
        <pt x="549" y="495" on="1"/>
        <pt x="549" y="557" on="0"/>
        <pt x="514" y="593" on="1"/>
        <pt x="491" y="617" on="0"/>
        <pt x="417" y="633" on="0"/>
      </contour>
    </TTGlyph>
    <TTGlyph name="Oacute" xMin="49" yMin="-10" xMax="699" yMax="861">
      <component glyphName="O" x="0" y="0" flags="0x1204"/>
      <component glyphName="acutecomb.cap" x="662" y="0" flags="0x1004"/>
    </TTGlyph>
    <TTGlyph name="Obreve" xMin="49" yMin="-10" xMax="699" yMax="833">
      <component glyphName="O" x="0" y="0" flags="0x1204"/>
      <component glyphName="uni0306.cap" x="628" y="-3" flags="0x1004"/>
    </TTGlyph>
    <TTGlyph name="Ocircumflex" xMin="49" yMin="-10" xMax="699" yMax="859">
      <component glyphName="O" x="0" y="0" flags="0x1204"/>
      <component glyphName="uni0302.cap" x="631" y="-1" flags="0x1004"/>
    </TTGlyph>
    <TTGlyph name="Odieresis" xMin="49" yMin="-10" xMax="699" yMax="828">
      <component glyphName="uni0308.cap" x="205" y="16" flags="0x1004"/>
      <component glyphName="O" x="0" y="0" flags="0x1204"/>
    </TTGlyph>
    <TTGlyph name="Ograve" xMin="49" yMin="-10" xMax="699" yMax="861">
      <component glyphName="O" x="0" y="0" flags="0x1204"/>
      <component glyphName="gravecomb.cap" x="586" y="0" flags="0x1004"/>
    </TTGlyph>
    <TTGlyph name="Ohorn" xMin="48" yMin="-10" xMax="732" yMax="708">
      <contour>
        <pt x="357" y="633" on="1"/>
        <pt x="303" y="633" on="0"/>
        <pt x="219" y="583" on="0"/>
        <pt x="171" y="500" on="0"/>
        <pt x="147" y="402" on="0"/>
        <pt x="147" y="350" on="1"/>
        <pt x="147" y="270" on="0"/>
        <pt x="201" y="124" on="0"/>
        <pt x="314" y="24" on="0"/>
        <pt x="388" y="24" on="1"/>
        <pt x="442" y="24" on="0"/>
        <pt x="526" y="74" on="0"/>
        <pt x="574" y="158" on="0"/>
        <pt x="599" y="256" on="0"/>
        <pt x="599" y="309" on="1"/>
        <pt x="599" y="389" on="0"/>
        <pt x="544" y="534" on="0"/>
        <pt x="431" y="633" on="0"/>
      </contour>
      <contour>
        <pt x="610" y="562" on="1"/>
        <pt x="698" y="466" on="0"/>
        <pt x="698" y="328" on="1"/>
        <pt x="698" y="189" on="0"/>
        <pt x="505" y="-10" on="0"/>
        <pt x="372" y="-10" on="1"/>
        <pt x="238" y="-10" on="0"/>
        <pt x="48" y="182" on="0"/>
        <pt x="48" y="328" on="1"/>
        <pt x="48" y="468" on="0"/>
        <pt x="240" y="667" on="0"/>
        <pt x="372" y="667" on="1"/>
        <pt x="453" y="667" on="0"/>
        <pt x="524" y="629" on="1"/>
        <pt x="596" y="592" on="0"/>
        <pt x="631" y="592" on="1"/>
        <pt x="649" y="592" on="0"/>
        <pt x="670" y="610" on="0"/>
        <pt x="670" y="624" on="1"/>
        <pt x="670" y="632" on="0"/>
        <pt x="644" y="661" on="0"/>
        <pt x="644" y="674" on="1"/>
        <pt x="644" y="688" on="0"/>
        <pt x="672" y="708" on="0"/>
        <pt x="689" y="708" on="1"/>
        <pt x="702" y="708" on="0"/>
        <pt x="713" y="704" on="1"/>
        <pt x="732" y="685" on="0"/>
        <pt x="732" y="653" on="1"/>
        <pt x="732" y="614" on="0"/>
        <pt x="660" y="561" on="0"/>
        <pt x="625" y="561" on="1"/>
        <pt x="614" y="561" on="0"/>
      </contour>
    </TTGlyph>
    <TTGlyph name="Ohungarumlaut" xMin="49" yMin="-10" xMax="699" yMax="866">
      <component glyphName="O" x="0" y="0" flags="0x1204"/>
      <component glyphName="uni030B.cap" x="246" y="24" flags="0x1004"/>
    </TTGlyph>
    <TTGlyph name="Omacron" xMin="49" yMin="-10" xMax="699" yMax="798">
      <component glyphName="O" x="0" y="0" flags="0x1204"/>
      <component glyphName="uni0304.cap" x="631" y="28" flags="0x1004"/>
    </TTGlyph>
    <TTGlyph name="Omega" xMin="32" yMin="0" xMax="679" yMax="667">
      <contour>
        <pt x="344" y="667" on="1"/>
        <pt x="473" y="667" on="0"/>
        <pt x="647" y="475" on="0"/>
        <pt x="647" y="335" on="1"/>
        <pt x="647" y="246" on="0"/>
        <pt x="551" y="101" on="0"/>
        <pt x="472" y="60" on="1"/>
        <pt x="486" y="54" on="0"/>
        <pt x="545" y="54" on="1"/>
        <pt x="606" y="54" on="0"/>
        <pt x="669" y="97" on="1"/>
        <pt x="679" y="97" on="0"/>
        <pt x="679" y="82" on="1"/>
        <pt x="674" y="70" on="0"/>
        <pt x="651" y="38" on="0"/>
        <pt x="596" y="0" on="0"/>
        <pt x="564" y="0" on="1"/>
        <pt x="435" y="0" on="1"/>
        <pt x="413" y="31" on="0"/>
        <pt x="413" y="51" on="1"/>
        <pt x="413" y="61" on="0"/>
        <pt x="424" y="75" on="1"/>
        <pt x="559" y="163" on="0"/>
        <pt x="559" y="349" on="1"/>
        <pt x="559" y="475" on="0"/>
        <pt x="442" y="627" on="0"/>
        <pt x="353" y="627" on="1"/>
        <pt x="300" y="627" on="0"/>
        <pt x="214" y="571" on="0"/>
        <pt x="164" y="484" on="0"/>
        <pt x="137" y="388" on="0"/>
        <pt x="137" y="343" on="1"/>
        <pt x="137" y="235" on="0"/>
        <pt x="213" y="100" on="0"/>
        <pt x="271" y="70" on="1"/>
        <pt x="302" y="31" on="0"/>
        <pt x="302" y="7" on="0"/>
        <pt x="278" y="0" on="1"/>
        <pt x="103" y="0" on="1"/>
        <pt x="94" y="4" on="0"/>
        <pt x="37" y="56" on="0"/>
        <pt x="32" y="64" on="1"/>
        <pt x="36" y="75" on="0"/>
        <pt x="51" y="75" on="1"/>
        <pt x="58" y="73" on="0"/>
        <pt x="92" y="60" on="0"/>
        <pt x="122" y="53" on="0"/>
        <pt x="141" y="52" on="1"/>
        <pt x="156" y="51" on="0"/>
        <pt x="194" y="54" on="0"/>
        <pt x="205" y="56" on="1"/>
        <pt x="216" y="57" on="1"/>
        <pt x="144" y="88" on="0"/>
        <pt x="49" y="256" on="0"/>
        <pt x="49" y="353" on="1"/>
        <pt x="49" y="484" on="0"/>
        <pt x="223" y="667" on="0"/>
      </contour>
    </TTGlyph>
    <TTGlyph name="Omegatonos" xMin="26" yMin="0" xMax="673" yMax="939">
      <component glyphName="tonos" x="259" y="235" flags="0x1004"/>
      <component glyphName="Omega" x="-6" y="0" flags="0x1204"/>
    </TTGlyph>
    <TTGlyph name="Omicron" xMin="49" yMin="-10" xMax="669" yMax="667">
      <contour>
        <pt x="362" y="627" on="1"/>
        <pt x="293" y="627" on="0"/>
        <pt x="187" y="530" on="0"/>
        <pt x="137" y="388" on="0"/>
        <pt x="137" y="309" on="1"/>
        <pt x="137" y="198" on="0"/>
        <pt x="251" y="29" on="0"/>
        <pt x="348" y="29" on="1"/>
        <pt x="416" y="29" on="0"/>
        <pt x="525" y="122" on="0"/>
        <pt x="581" y="262" on="0"/>
        <pt x="581" y="339" on="1"/>
        <pt x="581" y="453" on="0"/>
        <pt x="462" y="627" on="0"/>
      </contour>
      <contour>
        <pt x="357" y="667" on="1"/>
        <pt x="487" y="667" on="0"/>
        <pt x="669" y="473" on="0"/>
        <pt x="669" y="319" on="1"/>
        <pt x="669" y="180" on="0"/>
        <pt x="485" y="-10" on="0"/>
        <pt x="357" y="-10" on="1"/>
        <pt x="227" y="-10" on="0"/>
        <pt x="49" y="179" on="0"/>
        <pt x="49" y="337" on="1"/>
        <pt x="49" y="476" on="0"/>
        <pt x="230" y="667" on="0"/>
      </contour>
    </TTGlyph>
    <TTGlyph name="Omicrontonos" xMin="50" yMin="-10" xMax="670" yMax="939">
      <component glyphName="tonos" x="255" y="235" flags="0x1004"/>
      <component glyphName="Omicron" x="1" y="0" flags="0x1204"/>
    </TTGlyph>
    <TTGlyph name="Oslash" xMin="49" yMin="-13" xMax="699" yMax="667">
      <contour>
        <pt x="565" y="667" on="1"/>
        <pt x="573" y="665" on="0"/>
        <pt x="597" y="649" on="0"/>
        <pt x="594" y="645" on="1"/>
        <pt x="176" y="-13" on="1"/>
        <pt x="167" y="-10" on="0"/>
        <pt x="144" y="6" on="0"/>
        <pt x="147" y="10" on="1"/>
      </contour>
      <contour>
        <pt x="358" y="633" on="1"/>
        <pt x="304" y="633" on="0"/>
        <pt x="220" y="583" on="0"/>
        <pt x="172" y="500" on="0"/>
        <pt x="148" y="402" on="0"/>
        <pt x="148" y="350" on="1"/>
        <pt x="148" y="270" on="0"/>
        <pt x="202" y="124" on="0"/>
        <pt x="315" y="24" on="0"/>
        <pt x="389" y="24" on="1"/>
        <pt x="443" y="24" on="0"/>
        <pt x="527" y="74" on="0"/>
        <pt x="575" y="158" on="0"/>
        <pt x="600" y="256" on="0"/>
        <pt x="600" y="309" on="1"/>
        <pt x="600" y="389" on="0"/>
        <pt x="545" y="534" on="0"/>
        <pt x="432" y="633" on="0"/>
      </contour>
      <contour>
        <pt x="373" y="667" on="1"/>
        <pt x="508" y="667" on="0"/>
        <pt x="699" y="475" on="0"/>
        <pt x="699" y="328" on="1"/>
        <pt x="699" y="189" on="0"/>
        <pt x="506" y="-10" on="0"/>
        <pt x="373" y="-10" on="1"/>
        <pt x="239" y="-10" on="0"/>
        <pt x="49" y="182" on="0"/>
        <pt x="49" y="328" on="1"/>
        <pt x="49" y="468" on="0"/>
        <pt x="241" y="667" on="0"/>
      </contour>
    </TTGlyph>
    <TTGlyph name="Oslashacute" xMin="49" yMin="-13" xMax="699" yMax="861">
      <component glyphName="Oslash" x="0" y="0" flags="0x1204"/>
      <component glyphName="acutecomb.cap" x="674" y="0" flags="0x1004"/>
    </TTGlyph>
    <TTGlyph name="Otilde" xMin="49" yMin="-10" xMax="699" yMax="810">
      <component glyphName="O" x="0" y="0" flags="0x1204"/>
      <component glyphName="tildecomb.cap" x="628" y="-8" flags="0x1004"/>
    </TTGlyph>
    <TTGlyph name="P" xMin="41" yMin="-3" xMax="518" yMax="662">
      <contour>
        <pt x="518" y="479" on="1"/>
        <pt x="518" y="388" on="0"/>
        <pt x="397" y="278" on="0"/>
        <pt x="298" y="278" on="1"/>
        <pt x="271" y="278" on="0"/>
        <pt x="255" y="286" on="1"/>
        <pt x="241" y="295" on="0"/>
        <pt x="241" y="308" on="1"/>
        <pt x="241" y="314" on="0"/>
        <pt x="246" y="313" on="1"/>
        <pt x="272" y="306" on="0"/>
        <pt x="284" y="306" on="1"/>
        <pt x="346" y="306" on="0"/>
        <pt x="426" y="389" on="0"/>
        <pt x="426" y="462" on="1"/>
        <pt x="426" y="539" on="0"/>
        <pt x="342" y="627" on="0"/>
        <pt x="261" y="627" on="1"/>
        <pt x="215" y="627" on="0"/>
        <pt x="211" y="617" on="1"/>
        <pt x="206" y="605" on="0"/>
        <pt x="206" y="542" on="1"/>
        <pt x="206" y="116" on="1"/>
        <pt x="206" y="58" on="0"/>
        <pt x="211" y="42" on="1"/>
        <pt x="213" y="35" on="0"/>
        <pt x="265" y="26" on="0"/>
        <pt x="280" y="26" on="1"/>
        <pt x="283" y="22" on="0"/>
        <pt x="284" y="1" on="0"/>
        <pt x="280" y="-3" on="1"/>
        <pt x="178" y="2" on="0"/>
        <pt x="148" y="2" on="0"/>
        <pt x="45" y="-3" on="1"/>
        <pt x="41" y="1" on="0"/>
        <pt x="42" y="22" on="0"/>
        <pt x="45" y="26" on="1"/>
        <pt x="60" y="26" on="0"/>
        <pt x="112" y="35" on="0"/>
        <pt x="114" y="42" on="1"/>
        <pt x="119" y="58" on="0"/>
        <pt x="119" y="116" on="1"/>
        <pt x="119" y="543" on="1"/>
        <pt x="119" y="601" on="0"/>
        <pt x="114" y="617" on="1"/>
        <pt x="112" y="624" on="0"/>
        <pt x="60" y="633" on="0"/>
        <pt x="45" y="633" on="1"/>
        <pt x="42" y="637" on="0"/>
        <pt x="41" y="658" on="0"/>
        <pt x="45" y="662" on="1"/>
        <pt x="148" y="657" on="0"/>
        <pt x="163" y="657" on="1"/>
        <pt x="180" y="657" on="0"/>
        <pt x="273" y="659" on="0"/>
        <pt x="305" y="659" on="1"/>
        <pt x="390" y="659" on="0"/>
        <pt x="518" y="562" on="0"/>
      </contour>
    </TTGlyph>
    <TTGlyph name="Phi" xMin="42" yMin="-16" xMax="598" yMax="664">
      <contour>
        <pt x="42" y="319" on="1"/>
        <pt x="39" y="406" on="0"/>
        <pt x="173" y="537" on="0"/>
        <pt x="280" y="550" on="1"/>
        <pt x="277" y="596" on="0"/>
        <pt x="272" y="647" on="1"/>
        <pt x="274" y="652" on="0"/>
        <pt x="290" y="664" on="0"/>
        <pt x="294" y="664" on="1"/>
        <pt x="314" y="664" on="0"/>
        <pt x="363" y="639" on="0"/>
        <pt x="363" y="627" on="1"/>
        <pt x="363" y="625" on="0"/>
        <pt x="361" y="606" on="0"/>
        <pt x="358" y="568" on="0"/>
        <pt x="357" y="552" on="1"/>
        <pt x="461" y="544" on="0"/>
        <pt x="595" y="424" on="0"/>
        <pt x="598" y="339" on="1"/>
        <pt x="601" y="251" on="0"/>
        <pt x="467" y="120" on="0"/>
        <pt x="359" y="107" on="1"/>
        <pt x="366" y="19" on="0"/>
        <pt x="372" y="1" on="1"/>
        <pt x="360" y="-16" on="0"/>
        <pt x="347" y="-16" on="1"/>
        <pt x="339" y="-16" on="0"/>
        <pt x="282" y="10" on="0"/>
        <pt x="282" y="20" on="1"/>
        <pt x="284" y="55" on="0"/>
        <pt x="285" y="106" on="1"/>
        <pt x="180" y="114" on="0"/>
        <pt x="45" y="234" on="0"/>
      </contour>
      <contour>
        <pt x="353" y="468" on="1"/>
        <pt x="353" y="278" on="0"/>
        <pt x="354" y="218" on="1"/>
        <pt x="354" y="183" on="0"/>
        <pt x="357" y="141" on="1"/>
        <pt x="425" y="154" on="0"/>
        <pt x="515" y="260" on="0"/>
        <pt x="515" y="398" on="0"/>
        <pt x="424" y="505" on="0"/>
        <pt x="355" y="517" on="1"/>
        <pt x="353" y="483" on="0"/>
      </contour>
      <contour>
        <pt x="282" y="516" on="1"/>
        <pt x="214" y="502" on="0"/>
        <pt x="125" y="397" on="0"/>
        <pt x="125" y="329" on="1"/>
        <pt x="125" y="260" on="0"/>
        <pt x="217" y="153" on="0"/>
        <pt x="286" y="141" on="1"/>
        <pt x="289" y="237" on="0"/>
        <pt x="289" y="354" on="1"/>
        <pt x="289" y="408" on="0"/>
      </contour>
    </TTGlyph>
    <TTGlyph name="Pi" xMin="41" yMin="-16" xMax="598" yMax="669">
      <contour>
        <pt x="190" y="610" on="1"/>
        <pt x="190" y="525" on="0"/>
        <pt x="195" y="230" on="1"/>
        <pt x="198" y="30" on="0"/>
        <pt x="209" y="1" on="1"/>
        <pt x="197" y="-16" on="0"/>
        <pt x="184" y="-16" on="1"/>
        <pt x="176" y="-16" on="0"/>
        <pt x="121" y="10" on="0"/>
        <pt x="121" y="20" on="1"/>
        <pt x="119" y="603" on="1"/>
        <pt x="105" y="629" on="0"/>
        <pt x="41" y="644" on="1"/>
        <pt x="41" y="658" on="0"/>
        <pt x="51" y="663" on="1"/>
        <pt x="149" y="657" on="0"/>
        <pt x="197" y="658" on="1"/>
        <pt x="244" y="658" on="0"/>
        <pt x="383" y="668" on="0"/>
        <pt x="439" y="669" on="1"/>
        <pt x="574" y="642" on="0"/>
        <pt x="596" y="624" on="1"/>
        <pt x="599" y="619" on="0"/>
        <pt x="596" y="607" on="0"/>
        <pt x="593" y="606" on="1"/>
        <pt x="544" y="612" on="0"/>
        <pt x="508" y="615" on="1"/>
        <pt x="499" y="494" on="0"/>
        <pt x="499" y="468" on="1"/>
        <pt x="499" y="278" on="0"/>
        <pt x="500" y="218" on="1"/>
        <pt x="501" y="162" on="0"/>
        <pt x="512" y="16" on="0"/>
        <pt x="518" y="1" on="1"/>
        <pt x="506" y="-16" on="0"/>
        <pt x="493" y="-16" on="1"/>
        <pt x="485" y="-16" on="0"/>
        <pt x="428" y="10" on="0"/>
        <pt x="428" y="20" on="1"/>
        <pt x="435" y="207" on="0"/>
        <pt x="435" y="354" on="1"/>
        <pt x="435" y="456" on="0"/>
        <pt x="421" y="618" on="1"/>
        <pt x="392" y="618" on="1"/>
        <pt x="257" y="618" on="0"/>
      </contour>
    </TTGlyph>
    <TTGlyph name="Psi" xMin="-14" yMin="-16" xMax="718" yMax="666">
      <contour>
        <pt x="116" y="491" on="1"/>
        <pt x="114" y="497" on="0"/>
        <pt x="110" y="508" on="1"/>
        <pt x="97" y="545" on="0"/>
        <pt x="82" y="581" on="0"/>
        <pt x="52" y="614" on="0"/>
        <pt x="33" y="614" on="1"/>
        <pt x="9" y="614" on="0"/>
        <pt x="-11" y="597" on="1"/>
        <pt x="-14" y="603" on="0"/>
        <pt x="-14" y="613" on="1"/>
        <pt x="-9" y="631" on="0"/>
        <pt x="37" y="666" on="0"/>
        <pt x="58" y="666" on="1"/>
        <pt x="97" y="666" on="0"/>
        <pt x="149" y="586" on="0"/>
        <pt x="182" y="480" on="1"/>
        <pt x="224" y="348" on="0"/>
        <pt x="330" y="337" on="1"/>
        <pt x="330" y="354" on="1"/>
        <pt x="330" y="468" on="0"/>
        <pt x="313" y="647" on="1"/>
        <pt x="315" y="652" on="0"/>
        <pt x="331" y="664" on="0"/>
        <pt x="335" y="664" on="1"/>
        <pt x="355" y="664" on="0"/>
        <pt x="404" y="639" on="0"/>
        <pt x="404" y="627" on="1"/>
        <pt x="404" y="626" on="0"/>
        <pt x="399" y="572" on="0"/>
        <pt x="394" y="496" on="0"/>
        <pt x="394" y="468" on="1"/>
        <pt x="394" y="339" on="1"/>
        <pt x="440" y="351" on="0"/>
        <pt x="504" y="440" on="0"/>
        <pt x="533" y="513" on="1"/>
        <pt x="564" y="590" on="0"/>
        <pt x="617" y="665" on="0"/>
        <pt x="658" y="665" on="1"/>
        <pt x="675" y="665" on="0"/>
        <pt x="713" y="642" on="0"/>
        <pt x="718" y="633" on="1"/>
        <pt x="718" y="619" on="0"/>
        <pt x="711" y="618" on="1"/>
        <pt x="700" y="621" on="0"/>
        <pt x="680" y="621" on="1"/>
        <pt x="669" y="621" on="0"/>
        <pt x="652" y="606" on="0"/>
        <pt x="637" y="577" on="0"/>
        <pt x="626" y="548" on="0"/>
        <pt x="612" y="508" on="0"/>
        <pt x="607" y="496" on="1"/>
        <pt x="568" y="404" on="0"/>
        <pt x="471" y="307" on="0"/>
        <pt x="394" y="297" on="1"/>
        <pt x="394" y="281" on="0"/>
        <pt x="395" y="229" on="0"/>
        <pt x="395" y="218" on="1"/>
        <pt x="396" y="162" on="0"/>
        <pt x="407" y="16" on="0"/>
        <pt x="413" y="1" on="1"/>
        <pt x="401" y="-16" on="0"/>
        <pt x="388" y="-16" on="1"/>
        <pt x="380" y="-16" on="0"/>
        <pt x="323" y="10" on="0"/>
        <pt x="323" y="20" on="1"/>
        <pt x="329" y="164" on="0"/>
        <pt x="330" y="298" on="1"/>
        <pt x="254" y="302" on="0"/>
        <pt x="150" y="395" on="0"/>
      </contour>
    </TTGlyph>
    <TTGlyph name="Q" xMin="49" yMin="-136" xMax="775" yMax="667">
      <contour>
        <pt x="358" y="633" on="1"/>
        <pt x="304" y="633" on="0"/>
        <pt x="220" y="583" on="0"/>
        <pt x="172" y="500" on="0"/>
        <pt x="148" y="402" on="0"/>
        <pt x="148" y="350" on="1"/>
        <pt x="148" y="270" on="0"/>
        <pt x="202" y="124" on="0"/>
        <pt x="315" y="24" on="0"/>
        <pt x="389" y="24" on="1"/>
        <pt x="443" y="24" on="0"/>
        <pt x="527" y="74" on="0"/>
        <pt x="575" y="158" on="0"/>
        <pt x="600" y="256" on="0"/>
        <pt x="600" y="309" on="1"/>
        <pt x="600" y="389" on="0"/>
        <pt x="545" y="534" on="0"/>
        <pt x="432" y="633" on="0"/>
      </contour>
      <contour>
        <pt x="373" y="667" on="1"/>
        <pt x="508" y="667" on="0"/>
        <pt x="699" y="475" on="0"/>
        <pt x="699" y="328" on="1"/>
        <pt x="699" y="215" on="0"/>
        <pt x="567" y="36" on="0"/>
        <pt x="466" y="4" on="1"/>
        <pt x="494" y="-10" on="0"/>
        <pt x="580" y="-62" on="0"/>
        <pt x="638" y="-81" on="0"/>
        <pt x="685" y="-81" on="1"/>
        <pt x="735" y="-81" on="0"/>
        <pt x="756" y="-75" on="1"/>
        <pt x="769" y="-75" on="0"/>
        <pt x="774" y="-82" on="1"/>
        <pt x="775" y="-83" on="0"/>
        <pt x="775" y="-85" on="1"/>
        <pt x="678" y="-136" on="0"/>
        <pt x="609" y="-136" on="1"/>
        <pt x="563" y="-136" on="0"/>
        <pt x="463" y="-83" on="0"/>
        <pt x="345" y="-13" on="0"/>
        <pt x="293" y="0" on="1"/>
        <pt x="186" y="27" on="0"/>
        <pt x="49" y="205" on="0"/>
        <pt x="49" y="328" on="1"/>
        <pt x="49" y="468" on="0"/>
        <pt x="241" y="667" on="0"/>
      </contour>
    </TTGlyph>
    <TTGlyph name="Q.alt01" xMin="47" yMin="-221" xMax="1225" yMax="667">
      <contour>
        <pt x="145" y="335" on="1"/>
        <pt x="145" y="218" on="0"/>
        <pt x="270" y="38" on="0"/>
        <pt x="374" y="38" on="1"/>
        <pt x="472" y="38" on="0"/>
        <pt x="588" y="208" on="0"/>
        <pt x="588" y="319" on="1"/>
        <pt x="588" y="436" on="0"/>
        <pt x="463" y="614" on="0"/>
        <pt x="360" y="614" on="1"/>
        <pt x="262" y="614" on="0"/>
        <pt x="145" y="446" on="0"/>
      </contour>
      <contour>
        <pt x="491" y="16" on="1"/>
        <pt x="565" y="0" on="0"/>
        <pt x="641" y="-31" on="1"/>
        <pt x="644" y="-32" on="0"/>
        <pt x="740" y="-78" on="0"/>
        <pt x="837" y="-121" on="0"/>
        <pt x="968" y="-158" on="0"/>
        <pt x="1017" y="-158" on="1"/>
        <pt x="1070" y="-158" on="0"/>
        <pt x="1192" y="-128" on="0"/>
        <pt x="1214" y="-119" on="1"/>
        <pt x="1216" y="-119" on="1"/>
        <pt x="1225" y="-119" on="0"/>
        <pt x="1225" y="-142" on="1"/>
        <pt x="1225" y="-147" on="0"/>
        <pt x="1224" y="-147" on="1"/>
        <pt x="1218" y="-150" on="0"/>
        <pt x="1175" y="-176" on="0"/>
        <pt x="1142" y="-191" on="0"/>
        <pt x="1087" y="-211" on="0"/>
        <pt x="1014" y="-221" on="0"/>
        <pt x="970" y="-221" on="1"/>
        <pt x="921" y="-221" on="0"/>
        <pt x="762" y="-165" on="0"/>
        <pt x="572" y="-81" on="0"/>
        <pt x="540" y="-70" on="1"/>
        <pt x="494" y="-53" on="0"/>
        <pt x="309" y="-9" on="0"/>
        <pt x="261" y="8" on="1"/>
        <pt x="167" y="37" on="0"/>
        <pt x="47" y="218" on="0"/>
        <pt x="47" y="328" on="1"/>
        <pt x="47" y="468" on="0"/>
        <pt x="235" y="667" on="0"/>
        <pt x="499" y="667" on="0"/>
        <pt x="686" y="468" on="0"/>
        <pt x="686" y="328" on="1"/>
        <pt x="686" y="216" on="0"/>
        <pt x="573" y="40" on="0"/>
      </contour>
    </TTGlyph>
    <TTGlyph name="R" xMin="41" yMin="-3" xMax="648" yMax="662">
      <contour>
        <pt x="305" y="659" on="1"/>
        <pt x="381" y="659" on="0"/>
        <pt x="508" y="566" on="0"/>
        <pt x="508" y="486" on="1"/>
        <pt x="508" y="434" on="0"/>
        <pt x="425" y="339" on="0"/>
        <pt x="372" y="321" on="1"/>
        <pt x="439" y="211" on="0"/>
        <pt x="533" y="86" on="1"/>
        <pt x="555" y="57" on="0"/>
        <pt x="606" y="29" on="0"/>
        <pt x="646" y="26" on="1"/>
        <pt x="649" y="21" on="0"/>
        <pt x="647" y="0" on="0"/>
        <pt x="645" y="-3" on="1"/>
        <pt x="547" y="-3" on="0"/>
        <pt x="513" y="9" on="1"/>
        <pt x="470" y="24" on="0"/>
        <pt x="448" y="53" on="1"/>
        <pt x="402" y="115" on="0"/>
        <pt x="289" y="290" on="1"/>
        <pt x="281" y="302" on="0"/>
        <pt x="259" y="302" on="1"/>
        <pt x="206" y="302" on="1"/>
        <pt x="206" y="116" on="1"/>
        <pt x="206" y="58" on="0"/>
        <pt x="211" y="42" on="1"/>
        <pt x="213" y="35" on="0"/>
        <pt x="265" y="26" on="0"/>
        <pt x="280" y="26" on="1"/>
        <pt x="283" y="22" on="0"/>
        <pt x="284" y="1" on="0"/>
        <pt x="280" y="-3" on="1"/>
        <pt x="178" y="2" on="0"/>
        <pt x="148" y="2" on="0"/>
        <pt x="45" y="-3" on="1"/>
        <pt x="41" y="1" on="0"/>
        <pt x="42" y="22" on="0"/>
        <pt x="45" y="26" on="1"/>
        <pt x="60" y="26" on="0"/>
        <pt x="112" y="35" on="0"/>
        <pt x="114" y="42" on="1"/>
        <pt x="119" y="58" on="0"/>
        <pt x="119" y="116" on="1"/>
        <pt x="119" y="543" on="1"/>
        <pt x="119" y="601" on="0"/>
        <pt x="114" y="617" on="1"/>
        <pt x="112" y="624" on="0"/>
        <pt x="60" y="633" on="0"/>
        <pt x="45" y="633" on="1"/>
        <pt x="42" y="637" on="0"/>
        <pt x="41" y="658" on="0"/>
        <pt x="45" y="662" on="1"/>
        <pt x="148" y="657" on="0"/>
        <pt x="163" y="657" on="1"/>
        <pt x="180" y="657" on="0"/>
        <pt x="273" y="659" on="0"/>
      </contour>
      <contour>
        <pt x="415" y="477" on="1"/>
        <pt x="415" y="546" on="0"/>
        <pt x="340" y="627" on="0"/>
        <pt x="261" y="627" on="1"/>
        <pt x="215" y="627" on="0"/>
        <pt x="211" y="617" on="1"/>
        <pt x="206" y="605" on="0"/>
        <pt x="206" y="542" on="1"/>
        <pt x="206" y="333" on="1"/>
        <pt x="260" y="333" on="1"/>
        <pt x="322" y="333" on="0"/>
        <pt x="415" y="414" on="0"/>
      </contour>
    </TTGlyph>
    <TTGlyph name="Racute" xMin="45" yMin="-3" xMax="646" yMax="861">
      <component glyphName="R" x="0" y="0" flags="0x1204"/>
      <component glyphName="acutecomb.cap" x="589" y="0" flags="0x1004"/>
    </TTGlyph>
    <TTGlyph name="Rcaron" xMin="45" yMin="-3" xMax="646" yMax="859">
      <component glyphName="R" x="0" y="0" flags="0x1204"/>
      <component glyphName="uni030C.cap" x="174" y="0" flags="0x1004"/>
    </TTGlyph>
    <TTGlyph name="Rcommaaccent" xMin="45" yMin="-229" xMax="646" yMax="662">
      <component glyphName="R" x="0" y="0" flags="0x1204"/>
      <component glyphName="uni0326" x="619" y="0" flags="0x1004"/>
    </TTGlyph>
    <TTGlyph name="Rho" xMin="41" yMin="-16" xMax="509" yMax="663">
      <contour>
        <pt x="350" y="620" on="0"/>
        <pt x="228" y="620" on="0"/>
        <pt x="190" y="610" on="1"/>
        <pt x="190" y="525" on="0"/>
        <pt x="195" y="230" on="1"/>
        <pt x="198" y="30" on="0"/>
        <pt x="209" y="1" on="1"/>
        <pt x="197" y="-16" on="0"/>
        <pt x="184" y="-16" on="1"/>
        <pt x="176" y="-16" on="0"/>
        <pt x="121" y="10" on="0"/>
        <pt x="121" y="20" on="1"/>
        <pt x="119" y="603" on="1"/>
        <pt x="105" y="629" on="0"/>
        <pt x="41" y="644" on="1"/>
        <pt x="41" y="658" on="0"/>
        <pt x="51" y="663" on="1"/>
        <pt x="134" y="658" on="0"/>
        <pt x="197" y="658" on="1"/>
        <pt x="207" y="658" on="0"/>
        <pt x="260" y="660" on="0"/>
        <pt x="304" y="659" on="0"/>
        <pt x="327" y="656" on="1"/>
        <pt x="418" y="646" on="0"/>
        <pt x="509" y="541" on="0"/>
        <pt x="509" y="468" on="1"/>
        <pt x="509" y="391" on="0"/>
        <pt x="394" y="286" on="0"/>
        <pt x="313" y="286" on="1"/>
        <pt x="287" y="286" on="0"/>
        <pt x="270" y="301" on="1"/>
        <pt x="267" y="304" on="0"/>
        <pt x="262" y="322" on="0"/>
        <pt x="264" y="326" on="1"/>
        <pt x="281" y="318" on="0"/>
        <pt x="308" y="318" on="1"/>
        <pt x="360" y="318" on="0"/>
        <pt x="428" y="405" on="0"/>
        <pt x="428" y="466" on="1"/>
        <pt x="428" y="530" on="0"/>
      </contour>
    </TTGlyph>
    <TTGlyph name="S" xMin="49" yMin="-10" xMax="459" yMax="666">
      <contour>
        <pt x="261" y="666" on="1"/>
        <pt x="283" y="666" on="0"/>
        <pt x="322" y="661" on="0"/>
        <pt x="347" y="655" on="0"/>
        <pt x="394" y="642" on="0"/>
        <pt x="412" y="638" on="1"/>
        <pt x="419" y="594" on="0"/>
        <pt x="426" y="496" on="1"/>
        <pt x="427" y="491" on="0"/>
        <pt x="412" y="485" on="0"/>
        <pt x="398" y="485" on="0"/>
        <pt x="394" y="489" on="1"/>
        <pt x="388" y="536" on="0"/>
        <pt x="311" y="632" on="0"/>
        <pt x="254" y="632" on="1"/>
        <pt x="198" y="632" on="0"/>
        <pt x="145" y="564" on="0"/>
        <pt x="145" y="521" on="1"/>
        <pt x="145" y="502" on="0"/>
        <pt x="159" y="467" on="0"/>
        <pt x="173" y="444" on="0"/>
        <pt x="210" y="414" on="0"/>
        <pt x="227" y="402" on="0"/>
        <pt x="278" y="370" on="0"/>
        <pt x="285" y="366" on="1"/>
        <pt x="290" y="363" on="0"/>
        <pt x="350" y="326" on="0"/>
        <pt x="372" y="311" on="0"/>
        <pt x="419" y="272" on="0"/>
        <pt x="440" y="242" on="0"/>
        <pt x="459" y="197" on="0"/>
        <pt x="459" y="173" on="1"/>
        <pt x="459" y="93" on="0"/>
        <pt x="334" y="-10" on="0"/>
        <pt x="250" y="-10" on="1"/>
        <pt x="226" y="-10" on="0"/>
        <pt x="172" y="-3" on="0"/>
        <pt x="136" y="4" on="0"/>
        <pt x="81" y="17" on="0"/>
        <pt x="70" y="19" on="1"/>
        <pt x="49" y="122" on="0"/>
        <pt x="49" y="174" on="1"/>
        <pt x="61" y="186" on="0"/>
        <pt x="75" y="186" on="1"/>
        <pt x="84" y="186" on="0"/>
        <pt x="86" y="177" on="1"/>
        <pt x="89" y="162" on="0"/>
        <pt x="100" y="130" on="0"/>
        <pt x="127" y="84" on="0"/>
        <pt x="161" y="49" on="0"/>
        <pt x="218" y="24" on="0"/>
        <pt x="252" y="24" on="1"/>
        <pt x="303" y="24" on="0"/>
        <pt x="372" y="90" on="0"/>
        <pt x="372" y="146" on="1"/>
        <pt x="372" y="166" on="0"/>
        <pt x="360" y="200" on="0"/>
        <pt x="347" y="222" on="0"/>
        <pt x="314" y="247" on="0"/>
        <pt x="296" y="259" on="0"/>
        <pt x="248" y="285" on="0"/>
        <pt x="239" y="290" on="1"/>
        <pt x="210" y="307" on="0"/>
        <pt x="187" y="321" on="0"/>
        <pt x="134" y="356" on="0"/>
        <pt x="110" y="383" on="0"/>
        <pt x="78" y="422" on="0"/>
        <pt x="65" y="466" on="0"/>
        <pt x="65" y="490" on="1"/>
        <pt x="65" y="567" on="0"/>
        <pt x="183" y="666" on="0"/>
      </contour>
    </TTGlyph>
    <TTGlyph name="Sacute" xMin="49" yMin="-10" xMax="459" yMax="861">
      <component glyphName="S" x="0" y="0" flags="0x1204"/>
      <component glyphName="acutecomb.cap" x="556" y="0" flags="0x1004"/>
    </TTGlyph>
    <TTGlyph name="Scaron" xMin="49" yMin="-10" xMax="459" yMax="859">
      <component glyphName="S" x="0" y="0" flags="0x1204"/>
      <component glyphName="uni030C.cap" x="131" y="0" flags="0x1004"/>
    </TTGlyph>
    <TTGlyph name="Scedilla" xMin="49" yMin="-178" xMax="459" yMax="666">
      <component glyphName="S" x="0" y="0" flags="0x1204"/>
      <component glyphName="uni0327.cap" x="29" y="-4" flags="0x1004"/>
    </TTGlyph>
    <TTGlyph name="Scircumflex" xMin="49" yMin="-10" xMax="459" yMax="859">
      <component glyphName="S" x="0" y="0" flags="0x1204"/>
      <component glyphName="uni0302.cap" x="511" y="-1" flags="0x1004"/>
    </TTGlyph>
    <TTGlyph name="Sigma" xMin="26" yMin="-2" xMax="528" yMax="664">
      <contour>
        <pt x="26" y="29" on="1"/>
        <pt x="35" y="36" on="0"/>
        <pt x="67" y="59" on="0"/>
        <pt x="88" y="74" on="0"/>
        <pt x="92" y="78" on="1"/>
        <pt x="139" y="121" on="0"/>
        <pt x="308" y="271" on="0"/>
        <pt x="333" y="294" on="1"/>
        <pt x="293" y="364" on="0"/>
        <pt x="82" y="597" on="0"/>
        <pt x="32" y="642" on="1"/>
        <pt x="32" y="656" on="0"/>
        <pt x="42" y="661" on="1"/>
        <pt x="92" y="658" on="0"/>
        <pt x="151" y="658" on="1"/>
        <pt x="207" y="659" on="0"/>
        <pt x="374" y="663" on="0"/>
        <pt x="420" y="664" on="1"/>
        <pt x="450" y="626" on="0"/>
        <pt x="475" y="584" on="1"/>
        <pt x="474" y="581" on="0"/>
        <pt x="471" y="574" on="0"/>
        <pt x="469" y="571" on="0"/>
        <pt x="465" y="567" on="0"/>
        <pt x="462" y="566" on="1"/>
        <pt x="402" y="600" on="0"/>
        <pt x="334" y="623" on="0"/>
        <pt x="278" y="623" on="1"/>
        <pt x="231" y="623" on="0"/>
        <pt x="164" y="615" on="1"/>
        <pt x="174" y="603" on="0"/>
        <pt x="359" y="408" on="0"/>
        <pt x="395" y="354" on="1"/>
        <pt x="416" y="323" on="0"/>
        <pt x="414" y="307" on="1"/>
        <pt x="359" y="256" on="0"/>
        <pt x="151" y="71" on="0"/>
        <pt x="135" y="59" on="1"/>
        <pt x="178" y="44" on="0"/>
        <pt x="282" y="44" on="1"/>
        <pt x="378" y="44" on="0"/>
        <pt x="438" y="69" on="1"/>
        <pt x="463" y="80" on="0"/>
        <pt x="511" y="110" on="0"/>
        <pt x="515" y="118" on="1"/>
        <pt x="520" y="116" on="0"/>
        <pt x="528" y="100" on="0"/>
        <pt x="528" y="95" on="1"/>
        <pt x="528" y="83" on="0"/>
        <pt x="465" y="-2" on="0"/>
        <pt x="439" y="-2" on="1"/>
        <pt x="108" y="-2" on="1"/>
        <pt x="45" y="-2" on="0"/>
      </contour>
    </TTGlyph>
    <TTGlyph name="T" xMin="12" yMin="-3" xMax="613" yMax="678">
      <contour>
        <pt x="508" y="661" on="1"/>
        <pt x="538" y="661" on="0"/>
        <pt x="568" y="676" on="1"/>
        <pt x="580" y="682" on="0"/>
        <pt x="587" y="678" on="1"/>
        <pt x="599" y="573" on="0"/>
        <pt x="613" y="506" on="1"/>
        <pt x="605" y="498" on="0"/>
        <pt x="594" y="499" on="1"/>
        <pt x="583" y="499" on="0"/>
        <pt x="580" y="504" on="1"/>
        <pt x="569" y="559" on="0"/>
        <pt x="520" y="626" on="0"/>
        <pt x="484" y="626" on="1"/>
        <pt x="357" y="626" on="1"/>
        <pt x="357" y="116" on="1"/>
        <pt x="357" y="58" on="0"/>
        <pt x="362" y="42" on="1"/>
        <pt x="364" y="35" on="0"/>
        <pt x="416" y="26" on="0"/>
        <pt x="431" y="26" on="1"/>
        <pt x="434" y="22" on="0"/>
        <pt x="435" y="1" on="0"/>
        <pt x="431" y="-3" on="1"/>
        <pt x="328" y="2" on="0"/>
        <pt x="314" y="2" on="1"/>
        <pt x="298" y="2" on="0"/>
        <pt x="196" y="-3" on="1"/>
        <pt x="192" y="1" on="0"/>
        <pt x="193" y="22" on="0"/>
        <pt x="196" y="26" on="1"/>
        <pt x="211" y="26" on="0"/>
        <pt x="263" y="35" on="0"/>
        <pt x="265" y="42" on="1"/>
        <pt x="270" y="58" on="0"/>
        <pt x="270" y="116" on="1"/>
        <pt x="270" y="626" on="1"/>
        <pt x="141" y="626" on="1"/>
        <pt x="105" y="626" on="0"/>
        <pt x="56" y="559" on="0"/>
        <pt x="45" y="504" on="1"/>
        <pt x="42" y="499" on="0"/>
        <pt x="31" y="499" on="1"/>
        <pt x="20" y="498" on="0"/>
        <pt x="12" y="506" on="1"/>
        <pt x="26" y="573" on="0"/>
        <pt x="38" y="678" on="1"/>
        <pt x="46" y="682" on="0"/>
        <pt x="61" y="675" on="1"/>
        <pt x="89" y="661" on="0"/>
        <pt x="117" y="661" on="1"/>
      </contour>
    </TTGlyph>
    <TTGlyph name="T_h" xMin="10" yMin="-3" xMax="1029" yMax="694">
      <contour>
        <pt x="610" y="530" on="1"/>
        <pt x="610" y="577" on="0"/>
        <pt x="555" y="615" on="0"/>
        <pt x="495" y="615" on="1"/>
        <pt x="373" y="615" on="0"/>
        <pt x="369" y="600" on="1"/>
        <pt x="360" y="568" on="0"/>
        <pt x="360" y="500" on="1"/>
        <pt x="360" y="139" on="1"/>
        <pt x="360" y="81" on="0"/>
        <pt x="369" y="46" on="1"/>
        <pt x="371" y="39" on="0"/>
        <pt x="423" y="26" on="0"/>
        <pt x="433" y="26" on="1"/>
        <pt x="437" y="26" on="0"/>
        <pt x="437" y="11" on="1"/>
        <pt x="437" y="3" on="0"/>
        <pt x="435" y="-3" on="1"/>
        <pt x="335" y="2" on="0"/>
        <pt x="319" y="2" on="1"/>
        <pt x="314" y="2" on="0"/>
        <pt x="199" y="-3" on="1"/>
        <pt x="195" y="1" on="0"/>
        <pt x="195" y="12" on="1"/>
        <pt x="195" y="26" on="0"/>
        <pt x="199" y="26" on="1"/>
        <pt x="212" y="26" on="0"/>
        <pt x="263" y="38" on="0"/>
        <pt x="266" y="46" on="1"/>
        <pt x="273" y="73" on="0"/>
        <pt x="273" y="135" on="1"/>
        <pt x="273" y="497" on="1"/>
        <pt x="273" y="584" on="0"/>
        <pt x="264" y="600" on="1"/>
        <pt x="256" y="615" on="0"/>
        <pt x="156" y="615" on="1"/>
        <pt x="99" y="615" on="0"/>
        <pt x="58" y="582" on="0"/>
        <pt x="44" y="526" on="1"/>
        <pt x="43" y="521" on="0"/>
        <pt x="34" y="521" on="1"/>
        <pt x="17" y="521" on="0"/>
        <pt x="10" y="528" on="1"/>
        <pt x="29" y="671" on="1"/>
        <pt x="73" y="660" on="0"/>
        <pt x="98" y="660" on="1"/>
        <pt x="140" y="660" on="0"/>
        <pt x="275" y="654" on="0"/>
        <pt x="317" y="654" on="1"/>
        <pt x="466" y="654" on="0"/>
        <pt x="537" y="660" on="1"/>
        <pt x="562" y="662" on="0"/>
        <pt x="632" y="679" on="0"/>
        <pt x="680" y="694" on="0"/>
        <pt x="681" y="694" on="1"/>
        <pt x="684" y="694" on="1"/>
        <pt x="688" y="694" on="0"/>
        <pt x="696" y="683" on="0"/>
        <pt x="697" y="678" on="1"/>
        <pt x="687" y="646" on="0"/>
        <pt x="687" y="591" on="1"/>
        <pt x="687" y="365" on="1"/>
        <pt x="687" y="363" on="0"/>
        <pt x="690" y="363" on="1"/>
        <pt x="691" y="363" on="0"/>
        <pt x="693" y="365" on="1"/>
        <pt x="713" y="387" on="0"/>
        <pt x="796" y="438" on="0"/>
        <pt x="828" y="438" on="1"/>
        <pt x="905" y="438" on="0"/>
        <pt x="957" y="342" on="0"/>
        <pt x="957" y="226" on="1"/>
        <pt x="957" y="116" on="1"/>
        <pt x="957" y="58" on="0"/>
        <pt x="962" y="42" on="1"/>
        <pt x="964" y="35" on="0"/>
        <pt x="1011" y="26" on="0"/>
        <pt x="1025" y="26" on="1"/>
        <pt x="1028" y="22" on="0"/>
        <pt x="1029" y="1" on="0"/>
        <pt x="1025" y="-3" on="1"/>
        <pt x="922" y="2" on="0"/>
        <pt x="914" y="2" on="0"/>
        <pt x="812" y="-3" on="1"/>
        <pt x="808" y="1" on="0"/>
        <pt x="809" y="22" on="0"/>
        <pt x="812" y="26" on="1"/>
        <pt x="826" y="26" on="0"/>
        <pt x="873" y="35" on="0"/>
        <pt x="875" y="42" on="1"/>
        <pt x="880" y="58" on="0"/>
        <pt x="880" y="116" on="1"/>
        <pt x="880" y="216" on="1"/>
        <pt x="880" y="310" on="0"/>
        <pt x="840" y="380" on="0"/>
        <pt x="782" y="380" on="1"/>
        <pt x="757" y="380" on="0"/>
        <pt x="687" y="334" on="0"/>
        <pt x="687" y="325" on="1"/>
        <pt x="687" y="116" on="1"/>
        <pt x="687" y="58" on="0"/>
        <pt x="692" y="42" on="1"/>
        <pt x="694" y="35" on="0"/>
        <pt x="741" y="26" on="0"/>
        <pt x="755" y="26" on="1"/>
        <pt x="758" y="22" on="0"/>
        <pt x="759" y="1" on="0"/>
        <pt x="755" y="-3" on="1"/>
        <pt x="652" y="2" on="0"/>
        <pt x="644" y="2" on="0"/>
        <pt x="542" y="-3" on="1"/>
        <pt x="538" y="1" on="0"/>
        <pt x="539" y="22" on="0"/>
        <pt x="542" y="26" on="1"/>
        <pt x="556" y="26" on="0"/>
        <pt x="603" y="35" on="0"/>
        <pt x="605" y="42" on="1"/>
        <pt x="610" y="58" on="0"/>
        <pt x="610" y="116" on="1"/>
      </contour>
    </TTGlyph>
    <TTGlyph name="Tau" xMin="5" yMin="-16" xMax="542" yMax="662">
      <contour>
        <pt x="344" y="621" on="1"/>
        <pt x="299" y="621" on="1"/>
        <pt x="299" y="572" on="0"/>
        <pt x="305" y="230" on="1"/>
        <pt x="308" y="30" on="0"/>
        <pt x="319" y="1" on="1"/>
        <pt x="307" y="-16" on="0"/>
        <pt x="294" y="-16" on="1"/>
        <pt x="286" y="-16" on="0"/>
        <pt x="231" y="10" on="0"/>
        <pt x="231" y="20" on="1"/>
        <pt x="236" y="621" on="1"/>
        <pt x="164" y="621" on="1"/>
        <pt x="123" y="621" on="0"/>
        <pt x="60" y="581" on="0"/>
        <pt x="60" y="536" on="1"/>
        <pt x="58" y="532" on="0"/>
        <pt x="38" y="526" on="0"/>
        <pt x="33" y="529" on="1"/>
        <pt x="24" y="552" on="0"/>
        <pt x="5" y="632" on="1"/>
        <pt x="44" y="661" on="0"/>
        <pt x="121" y="661" on="1"/>
        <pt x="301" y="661" on="1"/>
        <pt x="385" y="661" on="0"/>
        <pt x="473" y="662" on="1"/>
        <pt x="510" y="624" on="0"/>
        <pt x="542" y="546" on="1"/>
        <pt x="541" y="539" on="0"/>
        <pt x="521" y="528" on="0"/>
        <pt x="514" y="530" on="1"/>
        <pt x="453" y="621" on="0"/>
      </contour>
    </TTGlyph>
    <TTGlyph name="Tbar" xMin="12" yMin="-3" xMax="613" yMax="678">
      <contour>
        <pt x="473" y="311" on="1"/>
        <pt x="473" y="311" on="0"/>
        <pt x="157" y="311" on="1"/>
        <pt x="155" y="311" on="0"/>
        <pt x="153" y="326" on="0"/>
        <pt x="155" y="344" on="0"/>
        <pt x="158" y="348" on="1"/>
        <pt x="473" y="348" on="1"/>
        <pt x="476" y="348" on="0"/>
        <pt x="476" y="318" on="0"/>
      </contour>
      <contour>
        <pt x="508" y="661" on="1"/>
        <pt x="538" y="661" on="0"/>
        <pt x="568" y="676" on="1"/>
        <pt x="580" y="682" on="0"/>
        <pt x="587" y="678" on="1"/>
        <pt x="599" y="573" on="0"/>
        <pt x="613" y="506" on="1"/>
        <pt x="605" y="498" on="0"/>
        <pt x="594" y="499" on="1"/>
        <pt x="583" y="499" on="0"/>
        <pt x="580" y="504" on="1"/>
        <pt x="569" y="559" on="0"/>
        <pt x="520" y="626" on="0"/>
        <pt x="484" y="626" on="1"/>
        <pt x="357" y="626" on="1"/>
        <pt x="357" y="116" on="1"/>
        <pt x="357" y="58" on="0"/>
        <pt x="362" y="42" on="1"/>
        <pt x="364" y="35" on="0"/>
        <pt x="416" y="26" on="0"/>
        <pt x="431" y="26" on="1"/>
        <pt x="434" y="22" on="0"/>
        <pt x="435" y="1" on="0"/>
        <pt x="431" y="-3" on="1"/>
        <pt x="328" y="2" on="0"/>
        <pt x="314" y="2" on="1"/>
        <pt x="298" y="2" on="0"/>
        <pt x="196" y="-3" on="1"/>
        <pt x="192" y="1" on="0"/>
        <pt x="193" y="22" on="0"/>
        <pt x="196" y="26" on="1"/>
        <pt x="211" y="26" on="0"/>
        <pt x="263" y="35" on="0"/>
        <pt x="265" y="42" on="1"/>
        <pt x="270" y="58" on="0"/>
        <pt x="270" y="116" on="1"/>
        <pt x="270" y="626" on="1"/>
        <pt x="141" y="626" on="1"/>
        <pt x="105" y="626" on="0"/>
        <pt x="56" y="559" on="0"/>
        <pt x="45" y="504" on="1"/>
        <pt x="42" y="499" on="0"/>
        <pt x="31" y="499" on="1"/>
        <pt x="20" y="498" on="0"/>
        <pt x="12" y="506" on="1"/>
        <pt x="26" y="573" on="0"/>
        <pt x="38" y="678" on="1"/>
        <pt x="46" y="682" on="0"/>
        <pt x="61" y="675" on="1"/>
        <pt x="89" y="661" on="0"/>
        <pt x="117" y="661" on="1"/>
      </contour>
    </TTGlyph>
    <TTGlyph name="Tcaron" xMin="12" yMin="-3" xMax="613" yMax="873">
      <component glyphName="T" x="0" y="0" flags="0x1204"/>
      <component glyphName="uni030C.cap" x="176" y="14" flags="0x1004"/>
    </TTGlyph>
    <TTGlyph name="Theta" xMin="48" yMin="-10" xMax="668" yMax="667">
      <contour>
        <pt x="326" y="353" on="1"/>
        <pt x="378" y="353" on="0"/>
        <pt x="437" y="369" on="0"/>
        <pt x="458" y="392" on="1"/>
        <pt x="460" y="395" on="0"/>
        <pt x="467" y="390" on="1"/>
        <pt x="474" y="379" on="0"/>
        <pt x="505" y="311" on="0"/>
        <pt x="511" y="292" on="1"/>
        <pt x="512" y="287" on="0"/>
        <pt x="501" y="277" on="0"/>
        <pt x="496" y="275" on="1"/>
        <pt x="492" y="277" on="0"/>
        <pt x="474" y="290" on="0"/>
        <pt x="469" y="293" on="0"/>
        <pt x="455" y="301" on="0"/>
        <pt x="449" y="303" on="0"/>
        <pt x="435" y="308" on="0"/>
        <pt x="426" y="309" on="0"/>
        <pt x="410" y="312" on="0"/>
        <pt x="394" y="312" on="0"/>
        <pt x="383" y="312" on="1"/>
        <pt x="331" y="312" on="0"/>
        <pt x="272" y="296" on="0"/>
        <pt x="251" y="273" on="1"/>
        <pt x="249" y="270" on="0"/>
        <pt x="242" y="275" on="1"/>
        <pt x="235" y="286" on="0"/>
        <pt x="204" y="354" on="0"/>
        <pt x="198" y="373" on="1"/>
        <pt x="197" y="378" on="0"/>
        <pt x="208" y="388" on="0"/>
        <pt x="213" y="390" on="1"/>
        <pt x="217" y="388" on="0"/>
        <pt x="235" y="375" on="0"/>
        <pt x="240" y="372" on="0"/>
        <pt x="254" y="364" on="0"/>
        <pt x="260" y="362" on="0"/>
        <pt x="274" y="357" on="0"/>
        <pt x="283" y="356" on="0"/>
        <pt x="299" y="353" on="0"/>
        <pt x="315" y="353" on="0"/>
      </contour>
      <contour>
        <pt x="361" y="627" on="1"/>
        <pt x="292" y="627" on="0"/>
        <pt x="186" y="530" on="0"/>
        <pt x="136" y="388" on="0"/>
        <pt x="136" y="309" on="1"/>
        <pt x="136" y="198" on="0"/>
        <pt x="250" y="29" on="0"/>
        <pt x="347" y="29" on="1"/>
        <pt x="415" y="29" on="0"/>
        <pt x="524" y="122" on="0"/>
        <pt x="580" y="262" on="0"/>
        <pt x="580" y="339" on="1"/>
        <pt x="580" y="453" on="0"/>
        <pt x="461" y="627" on="0"/>
      </contour>
      <contour>
        <pt x="356" y="667" on="1"/>
        <pt x="486" y="667" on="0"/>
        <pt x="668" y="473" on="0"/>
        <pt x="668" y="319" on="1"/>
        <pt x="668" y="180" on="0"/>
        <pt x="484" y="-10" on="0"/>
        <pt x="356" y="-10" on="1"/>
        <pt x="226" y="-10" on="0"/>
        <pt x="48" y="179" on="0"/>
        <pt x="48" y="337" on="1"/>
        <pt x="48" y="476" on="0"/>
        <pt x="229" y="667" on="0"/>
      </contour>
    </TTGlyph>
    <TTGlyph name="Thorn" xMin="41" yMin="-3" xMax="518" yMax="662">
      <contour>
        <pt x="148" y="657" on="0"/>
        <pt x="178" y="657" on="0"/>
        <pt x="280" y="662" on="1"/>
        <pt x="284" y="658" on="0"/>
        <pt x="283" y="637" on="0"/>
        <pt x="280" y="633" on="1"/>
        <pt x="265" y="633" on="0"/>
        <pt x="213" y="624" on="0"/>
        <pt x="211" y="617" on="1"/>
        <pt x="206" y="601" on="0"/>
        <pt x="206" y="543" on="1"/>
        <pt x="206" y="480" on="1"/>
        <pt x="247" y="509" on="0"/>
        <pt x="325" y="509" on="1"/>
        <pt x="394" y="509" on="0"/>
        <pt x="518" y="410" on="0"/>
        <pt x="518" y="329" on="1"/>
        <pt x="518" y="238" on="0"/>
        <pt x="397" y="128" on="0"/>
        <pt x="298" y="128" on="1"/>
        <pt x="271" y="128" on="0"/>
        <pt x="255" y="136" on="1"/>
        <pt x="241" y="145" on="0"/>
        <pt x="241" y="158" on="1"/>
        <pt x="241" y="164" on="0"/>
        <pt x="246" y="163" on="1"/>
        <pt x="272" y="156" on="0"/>
        <pt x="284" y="156" on="1"/>
        <pt x="346" y="156" on="0"/>
        <pt x="426" y="239" on="0"/>
        <pt x="426" y="385" on="0"/>
        <pt x="350" y="470" on="0"/>
        <pt x="288" y="470" on="1"/>
        <pt x="272" y="470" on="0"/>
        <pt x="224" y="456" on="0"/>
        <pt x="214" y="440" on="1"/>
        <pt x="206" y="427" on="0"/>
        <pt x="206" y="360" on="1"/>
        <pt x="206" y="116" on="1"/>
        <pt x="206" y="58" on="0"/>
        <pt x="211" y="42" on="1"/>
        <pt x="213" y="35" on="0"/>
        <pt x="265" y="26" on="0"/>
        <pt x="280" y="26" on="1"/>
        <pt x="283" y="22" on="0"/>
        <pt x="284" y="1" on="0"/>
        <pt x="280" y="-3" on="1"/>
        <pt x="178" y="2" on="0"/>
        <pt x="148" y="2" on="0"/>
        <pt x="45" y="-3" on="1"/>
        <pt x="41" y="1" on="0"/>
        <pt x="42" y="22" on="0"/>
        <pt x="45" y="26" on="1"/>
        <pt x="60" y="26" on="0"/>
        <pt x="112" y="35" on="0"/>
        <pt x="114" y="42" on="1"/>
        <pt x="119" y="58" on="0"/>
        <pt x="119" y="116" on="1"/>
        <pt x="119" y="543" on="1"/>
        <pt x="119" y="601" on="0"/>
        <pt x="114" y="617" on="1"/>
        <pt x="112" y="624" on="0"/>
        <pt x="60" y="633" on="0"/>
        <pt x="45" y="633" on="1"/>
        <pt x="42" y="637" on="0"/>
        <pt x="41" y="658" on="0"/>
        <pt x="45" y="662" on="1"/>
      </contour>
    </TTGlyph>
    <TTGlyph name="U" xMin="25" yMin="-4" xMax="704" yMax="663">
      <contour>
        <pt x="132" y="657" on="0"/>
        <pt x="162" y="657" on="0"/>
        <pt x="264" y="662" on="1"/>
        <pt x="268" y="658" on="0"/>
        <pt x="267" y="637" on="0"/>
        <pt x="264" y="633" on="1"/>
        <pt x="249" y="633" on="0"/>
        <pt x="197" y="624" on="0"/>
        <pt x="195" y="617" on="1"/>
        <pt x="190" y="601" on="0"/>
        <pt x="190" y="543" on="1"/>
        <pt x="190" y="296" on="1"/>
        <pt x="190" y="173" on="0"/>
        <pt x="239" y="112" on="1"/>
        <pt x="285" y="54" on="0"/>
        <pt x="376" y="54" on="1"/>
        <pt x="566" y="54" on="0"/>
        <pt x="570" y="274" on="1"/>
        <pt x="570" y="545" on="1"/>
        <pt x="570" y="598" on="0"/>
        <pt x="560" y="614" on="1"/>
        <pt x="556" y="621" on="0"/>
        <pt x="502" y="634" on="0"/>
        <pt x="488" y="634" on="1"/>
        <pt x="480" y="645" on="0"/>
        <pt x="486" y="663" on="1"/>
        <pt x="586" y="658" on="0"/>
        <pt x="597" y="658" on="1"/>
        <pt x="617" y="658" on="0"/>
        <pt x="649" y="660" on="0"/>
        <pt x="687" y="662" on="0"/>
        <pt x="704" y="663" on="1"/>
        <pt x="712" y="650" on="0"/>
        <pt x="704" y="634" on="1"/>
        <pt x="690" y="634" on="0"/>
        <pt x="631" y="622" on="0"/>
        <pt x="626" y="614" on="1"/>
        <pt x="616" y="597" on="0"/>
        <pt x="616" y="546" on="1"/>
        <pt x="616" y="276" on="1"/>
        <pt x="616" y="132" on="0"/>
        <pt x="478" y="-4" on="0"/>
        <pt x="355" y="-4" on="1"/>
        <pt x="246" y="-4" on="0"/>
        <pt x="177" y="62" on="1"/>
        <pt x="103" y="133" on="0"/>
        <pt x="103" y="251" on="1"/>
        <pt x="103" y="543" on="1"/>
        <pt x="103" y="601" on="0"/>
        <pt x="98" y="617" on="1"/>
        <pt x="96" y="624" on="0"/>
        <pt x="44" y="633" on="0"/>
        <pt x="29" y="633" on="1"/>
        <pt x="26" y="637" on="0"/>
        <pt x="25" y="658" on="0"/>
        <pt x="29" y="662" on="1"/>
      </contour>
    </TTGlyph>
    <TTGlyph name="Uacute" xMin="29" yMin="-4" xMax="704" yMax="861">
      <component glyphName="U" x="0" y="0" flags="0x1204"/>
      <component glyphName="acutecomb.cap" x="684" y="0" flags="0x1004"/>
    </TTGlyph>
    <TTGlyph name="Ubreve" xMin="29" yMin="-4" xMax="704" yMax="833">
      <component glyphName="U" x="0" y="0" flags="0x1204"/>
      <component glyphName="uni0306.cap" x="618" y="-3" flags="0x1004"/>
    </TTGlyph>
    <TTGlyph name="Ucircumflex" xMin="29" yMin="-4" xMax="704" yMax="859">
      <component glyphName="U" x="0" y="0" flags="0x1204"/>
      <component glyphName="uni0302.cap" x="621" y="-1" flags="0x1004"/>
    </TTGlyph>
    <TTGlyph name="Udieresis" xMin="29" yMin="-4" xMax="704" yMax="828">
      <component glyphName="uni0308.cap" x="195" y="16" flags="0x1004"/>
      <component glyphName="U" x="0" y="0" flags="0x1204"/>
    </TTGlyph>
    <TTGlyph name="Ugrave" xMin="29" yMin="-4" xMax="704" yMax="861">
      <component glyphName="U" x="0" y="0" flags="0x1204"/>
      <component glyphName="gravecomb.cap" x="588" y="0" flags="0x1004"/>
    </TTGlyph>
    <TTGlyph name="Uhorn" xMin="26" yMin="-4" xMax="756" yMax="766">
      <contour>
        <pt x="650" y="622" on="1"/>
        <pt x="635" y="619" on="0"/>
        <pt x="629" y="606" on="1"/>
        <pt x="619" y="586" on="0"/>
        <pt x="619" y="546" on="1"/>
        <pt x="619" y="276" on="1"/>
        <pt x="619" y="132" on="0"/>
        <pt x="479" y="-4" on="0"/>
        <pt x="356" y="-4" on="1"/>
        <pt x="247" y="-4" on="0"/>
        <pt x="178" y="62" on="1"/>
        <pt x="104" y="133" on="0"/>
        <pt x="104" y="251" on="1"/>
        <pt x="104" y="543" on="1"/>
        <pt x="104" y="601" on="0"/>
        <pt x="99" y="617" on="1"/>
        <pt x="97" y="624" on="0"/>
        <pt x="45" y="633" on="0"/>
        <pt x="30" y="633" on="1"/>
        <pt x="27" y="637" on="0"/>
        <pt x="26" y="658" on="0"/>
        <pt x="30" y="662" on="1"/>
        <pt x="132" y="657" on="0"/>
        <pt x="148" y="657" on="1"/>
        <pt x="162" y="657" on="0"/>
        <pt x="265" y="662" on="1"/>
        <pt x="269" y="658" on="0"/>
        <pt x="268" y="637" on="0"/>
        <pt x="265" y="633" on="1"/>
        <pt x="250" y="633" on="0"/>
        <pt x="198" y="624" on="0"/>
        <pt x="196" y="617" on="1"/>
        <pt x="191" y="601" on="0"/>
        <pt x="191" y="543" on="1"/>
        <pt x="191" y="296" on="1"/>
        <pt x="191" y="173" on="0"/>
        <pt x="240" y="112" on="1"/>
        <pt x="286" y="54" on="0"/>
        <pt x="377" y="54" on="1"/>
        <pt x="567" y="54" on="0"/>
        <pt x="571" y="274" on="1"/>
        <pt x="571" y="545" on="1"/>
        <pt x="571" y="598" on="0"/>
        <pt x="561" y="614" on="1"/>
        <pt x="557" y="621" on="0"/>
        <pt x="503" y="634" on="0"/>
        <pt x="489" y="634" on="1"/>
        <pt x="481" y="645" on="0"/>
        <pt x="487" y="663" on="1"/>
        <pt x="587" y="658" on="0"/>
        <pt x="598" y="658" on="1"/>
        <pt x="694" y="658" on="0"/>
        <pt x="694" y="682" on="1"/>
        <pt x="694" y="690" on="0"/>
        <pt x="668" y="719" on="0"/>
        <pt x="668" y="732" on="1"/>
        <pt x="668" y="746" on="0"/>
        <pt x="696" y="766" on="0"/>
        <pt x="713" y="766" on="1"/>
        <pt x="726" y="766" on="0"/>
        <pt x="737" y="762" on="1"/>
        <pt x="756" y="743" on="0"/>
        <pt x="756" y="711" on="1"/>
        <pt x="756" y="645" on="0"/>
      </contour>
    </TTGlyph>
    <TTGlyph name="Uhungarumlaut" xMin="29" yMin="-4" xMax="704" yMax="866">
      <component glyphName="U" x="0" y="0" flags="0x1204"/>
      <component glyphName="uni030B.cap" x="218" y="24" flags="0x1004"/>
    </TTGlyph>
    <TTGlyph name="Umacron" xMin="29" yMin="-4" xMax="704" yMax="798">
      <component glyphName="U" x="0" y="0" flags="0x1204"/>
      <component glyphName="uni0304.cap" x="621" y="28" flags="0x1004"/>
    </TTGlyph>
    <TTGlyph name="Uogonek" xMin="25" yMin="-224" xMax="704" yMax="663">
      <contour>
        <pt x="132" y="657" on="0"/>
        <pt x="162" y="657" on="0"/>
        <pt x="264" y="662" on="1"/>
        <pt x="268" y="658" on="0"/>
        <pt x="267" y="637" on="0"/>
        <pt x="264" y="633" on="1"/>
        <pt x="249" y="633" on="0"/>
        <pt x="197" y="624" on="0"/>
        <pt x="195" y="617" on="1"/>
        <pt x="190" y="601" on="0"/>
        <pt x="190" y="543" on="1"/>
        <pt x="190" y="296" on="1"/>
        <pt x="190" y="173" on="0"/>
        <pt x="239" y="112" on="1"/>
        <pt x="285" y="54" on="0"/>
        <pt x="376" y="54" on="1"/>
        <pt x="566" y="54" on="0"/>
        <pt x="570" y="274" on="1"/>
        <pt x="570" y="545" on="1"/>
        <pt x="570" y="598" on="0"/>
        <pt x="560" y="614" on="1"/>
        <pt x="556" y="621" on="0"/>
        <pt x="502" y="634" on="0"/>
        <pt x="488" y="634" on="1"/>
        <pt x="480" y="645" on="0"/>
        <pt x="486" y="663" on="1"/>
        <pt x="586" y="658" on="0"/>
        <pt x="597" y="658" on="1"/>
        <pt x="617" y="658" on="0"/>
        <pt x="649" y="660" on="0"/>
        <pt x="687" y="662" on="0"/>
        <pt x="704" y="663" on="1"/>
        <pt x="712" y="650" on="0"/>
        <pt x="704" y="634" on="1"/>
        <pt x="690" y="634" on="0"/>
        <pt x="631" y="622" on="0"/>
        <pt x="626" y="614" on="1"/>
        <pt x="616" y="597" on="0"/>
        <pt x="616" y="546" on="1"/>
        <pt x="616" y="276" on="1"/>
        <pt x="616" y="183" on="0"/>
        <pt x="562" y="75" on="0"/>
        <pt x="501" y="29" on="1"/>
        <pt x="500" y="29" on="0"/>
        <pt x="478" y="12" on="0"/>
        <pt x="466" y="3" on="0"/>
        <pt x="440" y="-17" on="0"/>
        <pt x="424" y="-33" on="0"/>
        <pt x="400" y="-54" on="0"/>
        <pt x="386" y="-73" on="0"/>
        <pt x="371" y="-94" on="0"/>
        <pt x="364" y="-113" on="0"/>
        <pt x="364" y="-122" on="1"/>
        <pt x="364" y="-138" on="0"/>
        <pt x="382" y="-165" on="0"/>
        <pt x="428" y="-165" on="0"/>
        <pt x="465" y="-146" on="0"/>
        <pt x="485" y="-127" on="0"/>
        <pt x="486" y="-127" on="1"/>
        <pt x="491" y="-127" on="0"/>
        <pt x="491" y="-140" on="1"/>
        <pt x="491" y="-150" on="0"/>
        <pt x="486" y="-157" on="1"/>
        <pt x="435" y="-224" on="0"/>
        <pt x="381" y="-224" on="1"/>
        <pt x="344" y="-224" on="0"/>
        <pt x="310" y="-174" on="0"/>
        <pt x="310" y="-147" on="1"/>
        <pt x="310" y="-109" on="0"/>
        <pt x="376" y="-25" on="0"/>
        <pt x="419" y="2" on="1"/>
        <pt x="400" y="-4" on="0"/>
        <pt x="355" y="-4" on="1"/>
        <pt x="246" y="-4" on="0"/>
        <pt x="177" y="62" on="1"/>
        <pt x="103" y="133" on="0"/>
        <pt x="103" y="251" on="1"/>
        <pt x="103" y="543" on="1"/>
        <pt x="103" y="601" on="0"/>
        <pt x="98" y="617" on="1"/>
        <pt x="96" y="624" on="0"/>
        <pt x="44" y="633" on="0"/>
        <pt x="29" y="633" on="1"/>
        <pt x="26" y="637" on="0"/>
        <pt x="25" y="658" on="0"/>
        <pt x="29" y="662" on="1"/>
      </contour>
    </TTGlyph>
    <TTGlyph name="Upsilon" xMin="-14" yMin="-16" xMax="552" yMax="668">
      <contour>
        <pt x="552" y="624" on="1"/>
        <pt x="460" y="569" on="0"/>
        <pt x="295" y="252" on="0"/>
        <pt x="295" y="184" on="1"/>
        <pt x="295" y="40" on="0"/>
        <pt x="310" y="1" on="1"/>
        <pt x="298" y="-16" on="0"/>
        <pt x="285" y="-16" on="1"/>
        <pt x="277" y="-16" on="0"/>
        <pt x="222" y="10" on="0"/>
        <pt x="222" y="20" on="1"/>
        <pt x="222" y="69" on="0"/>
        <pt x="234" y="180" on="1"/>
        <pt x="234" y="184" on="0"/>
        <pt x="236" y="196" on="0"/>
        <pt x="237" y="200" on="1"/>
        <pt x="141" y="591" on="0"/>
        <pt x="56" y="591" on="1"/>
        <pt x="20" y="591" on="0"/>
        <pt x="0" y="565" on="1"/>
        <pt x="-4" y="565" on="0"/>
        <pt x="-11" y="577" on="1"/>
        <pt x="-14" y="583" on="0"/>
        <pt x="-14" y="588" on="1"/>
        <pt x="-4" y="621" on="0"/>
        <pt x="48" y="668" on="0"/>
        <pt x="74" y="668" on="1"/>
        <pt x="98" y="668" on="0"/>
        <pt x="152" y="593" on="0"/>
        <pt x="199" y="474" on="0"/>
        <pt x="239" y="342" on="0"/>
        <pt x="253" y="277" on="1"/>
        <pt x="285" y="391" on="0"/>
        <pt x="411" y="609" on="0"/>
        <pt x="474" y="663" on="1"/>
        <pt x="479" y="666" on="0"/>
        <pt x="544" y="647" on="0"/>
        <pt x="546" y="645" on="1"/>
        <pt x="556" y="635" on="0"/>
      </contour>
    </TTGlyph>
    <TTGlyph name="Upsilon1" xMin="-8" yMin="-3" xMax="570" yMax="666">
      <contour>
        <pt x="237" y="116" on="1"/>
        <pt x="237" y="237" on="1"/>
        <pt x="237" y="404" on="0"/>
        <pt x="141" y="628" on="0"/>
        <pt x="64" y="628" on="1"/>
        <pt x="30" y="628" on="0"/>
        <pt x="8" y="606" on="1"/>
        <pt x="4" y="607" on="0"/>
        <pt x="-7" y="616" on="0"/>
        <pt x="-8" y="621" on="1"/>
        <pt x="5" y="639" on="0"/>
        <pt x="58" y="666" on="0"/>
        <pt x="87" y="666" on="1"/>
        <pt x="140" y="666" on="0"/>
        <pt x="225" y="612" on="0"/>
        <pt x="276" y="525" on="0"/>
        <pt x="305" y="435" on="0"/>
        <pt x="310" y="390" on="1"/>
        <pt x="315" y="438" on="0"/>
        <pt x="370" y="563" on="0"/>
        <pt x="463" y="666" on="0"/>
        <pt x="509" y="666" on="1"/>
        <pt x="542" y="666" on="0"/>
        <pt x="565" y="640" on="1"/>
        <pt x="570" y="627" on="0"/>
        <pt x="570" y="609" on="1"/>
        <pt x="570" y="585" on="0"/>
        <pt x="547" y="560" on="0"/>
        <pt x="534" y="560" on="1"/>
        <pt x="527" y="560" on="0"/>
        <pt x="513" y="566" on="0"/>
        <pt x="505" y="574" on="0"/>
        <pt x="494" y="585" on="0"/>
        <pt x="491" y="587" on="1"/>
        <pt x="478" y="598" on="0"/>
        <pt x="463" y="598" on="1"/>
        <pt x="433" y="598" on="0"/>
        <pt x="361" y="473" on="0"/>
        <pt x="341" y="389" on="1"/>
        <pt x="324" y="314" on="0"/>
        <pt x="324" y="195" on="1"/>
        <pt x="324" y="116" on="1"/>
        <pt x="324" y="58" on="0"/>
        <pt x="329" y="42" on="1"/>
        <pt x="331" y="35" on="0"/>
        <pt x="383" y="26" on="0"/>
        <pt x="398" y="26" on="1"/>
        <pt x="401" y="22" on="0"/>
        <pt x="402" y="1" on="0"/>
        <pt x="398" y="-3" on="1"/>
        <pt x="296" y="2" on="0"/>
        <pt x="266" y="2" on="0"/>
        <pt x="163" y="-3" on="1"/>
        <pt x="159" y="1" on="0"/>
        <pt x="160" y="22" on="0"/>
        <pt x="163" y="26" on="1"/>
        <pt x="178" y="26" on="0"/>
        <pt x="230" y="35" on="0"/>
        <pt x="232" y="42" on="1"/>
        <pt x="237" y="58" on="0"/>
      </contour>
    </TTGlyph>
    <TTGlyph name="Upsilondieresis" xMin="-14" yMin="-16" xMax="552" yMax="828">
      <component glyphName="Upsilon" x="0" y="0" flags="0x1204"/>
      <component glyphName="uni0308.cap" x="107" y="16" flags="0x1004"/>
    </TTGlyph>
    <TTGlyph name="Upsilontonos" xMin="-44" yMin="-16" xMax="522" yMax="939">
      <component glyphName="tonos" x="125" y="235" flags="0x1004"/>
      <component glyphName="Upsilon" x="-30" y="0" flags="0x1204"/>
    </TTGlyph>
    <TTGlyph name="Uring" xMin="29" yMin="-4" xMax="704" yMax="907">
      <component glyphName="U" x="0" y="0" flags="0x1204"/>
      <component glyphName="uni030A.cap" x="622" y="0" flags="0x1004"/>
    </TTGlyph>
    <TTGlyph name="Utilde" xMin="29" yMin="-4" xMax="704" yMax="811">
      <component glyphName="U" x="0" y="0" flags="0x1204"/>
      <component glyphName="tildecomb.cap" x="620" y="-7" flags="0x1004"/>
    </TTGlyph>
    <TTGlyph name="V" xMin="-8" yMin="-2" xMax="653" yMax="662">
      <contour>
        <pt x="110" y="657" on="1"/>
        <pt x="134" y="657" on="0"/>
        <pt x="234" y="662" on="1"/>
        <pt x="236" y="658" on="0"/>
        <pt x="235" y="634" on="0"/>
        <pt x="232" y="633" on="1"/>
        <pt x="225" y="633" on="0"/>
        <pt x="200" y="629" on="0"/>
        <pt x="172" y="613" on="0"/>
        <pt x="172" y="600" on="1"/>
        <pt x="172" y="580" on="0"/>
        <pt x="189" y="532" on="1"/>
        <pt x="282" y="277" on="0"/>
        <pt x="338" y="129" on="1"/>
        <pt x="342" y="137" on="0"/>
        <pt x="394" y="263" on="0"/>
        <pt x="471" y="453" on="0"/>
        <pt x="498" y="523" on="1"/>
        <pt x="516" y="569" on="0"/>
        <pt x="516" y="593" on="1"/>
        <pt x="516" y="607" on="0"/>
        <pt x="486" y="627" on="0"/>
        <pt x="459" y="632" on="0"/>
        <pt x="450" y="632" on="1"/>
        <pt x="446" y="634" on="0"/>
        <pt x="446" y="657" on="0"/>
        <pt x="450" y="661" on="1"/>
        <pt x="524" y="657" on="0"/>
        <pt x="554" y="657" on="1"/>
        <pt x="574" y="657" on="0"/>
        <pt x="604" y="659" on="0"/>
        <pt x="638" y="661" on="0"/>
        <pt x="652" y="662" on="1"/>
        <pt x="654" y="658" on="0"/>
        <pt x="652" y="633" on="0"/>
        <pt x="650" y="633" on="1"/>
        <pt x="639" y="633" on="0"/>
        <pt x="597" y="620" on="0"/>
        <pt x="586" y="607" on="1"/>
        <pt x="567" y="585" on="0"/>
        <pt x="536" y="506" on="1"/>
        <pt x="452" y="295" on="0"/>
        <pt x="342" y="32" on="1"/>
        <pt x="328" y="-2" on="0"/>
        <pt x="304" y="-2" on="1"/>
        <pt x="302" y="-2" on="0"/>
        <pt x="294" y="14" on="1"/>
        <pt x="274" y="66" on="0"/>
        <pt x="147" y="403" on="0"/>
        <pt x="104" y="514" on="1"/>
        <pt x="80" y="576" on="0"/>
        <pt x="58" y="610" on="1"/>
        <pt x="51" y="621" on="0"/>
        <pt x="7" y="633" on="0"/>
        <pt x="-6" y="633" on="1"/>
        <pt x="-8" y="633" on="0"/>
        <pt x="-8" y="660" on="0"/>
        <pt x="-6" y="662" on="1"/>
        <pt x="109" y="657" on="0"/>
      </contour>
    </TTGlyph>
    <TTGlyph name="W" xMin="-6" yMin="-2" xMax="905" yMax="662">
      <contour>
        <pt x="118" y="657" on="1"/>
        <pt x="126" y="657" on="0"/>
        <pt x="226" y="662" on="1"/>
        <pt x="228" y="658" on="0"/>
        <pt x="227" y="634" on="0"/>
        <pt x="224" y="633" on="1"/>
        <pt x="217" y="633" on="0"/>
        <pt x="192" y="629" on="0"/>
        <pt x="164" y="613" on="0"/>
        <pt x="164" y="600" on="1"/>
        <pt x="164" y="588" on="0"/>
        <pt x="179" y="535" on="1"/>
        <pt x="192" y="489" on="0"/>
        <pt x="279" y="203" on="0"/>
        <pt x="295" y="148" on="1"/>
        <pt x="321" y="235" on="0"/>
        <pt x="435" y="592" on="0"/>
        <pt x="446" y="629" on="1"/>
        <pt x="450" y="642" on="0"/>
        <pt x="473" y="662" on="0"/>
        <pt x="482" y="662" on="1"/>
        <pt x="487" y="662" on="0"/>
        <pt x="494" y="646" on="1"/>
        <pt x="626" y="232" on="0"/>
        <pt x="653" y="151" on="1"/>
        <pt x="668" y="206" on="0"/>
        <pt x="710" y="349" on="0"/>
        <pt x="742" y="461" on="0"/>
        <pt x="758" y="524" on="1"/>
        <pt x="770" y="572" on="0"/>
        <pt x="770" y="594" on="1"/>
        <pt x="770" y="608" on="0"/>
        <pt x="739" y="628" on="0"/>
        <pt x="711" y="633" on="0"/>
        <pt x="702" y="633" on="1"/>
        <pt x="698" y="634" on="0"/>
        <pt x="698" y="658" on="0"/>
        <pt x="702" y="662" on="1"/>
        <pt x="794" y="657" on="0"/>
        <pt x="810" y="657" on="1"/>
        <pt x="830" y="657" on="0"/>
        <pt x="858" y="659" on="0"/>
        <pt x="889" y="661" on="0"/>
        <pt x="904" y="662" on="1"/>
        <pt x="906" y="658" on="0"/>
        <pt x="904" y="633" on="0"/>
        <pt x="902" y="633" on="1"/>
        <pt x="894" y="633" on="0"/>
        <pt x="852" y="618" on="0"/>
        <pt x="839" y="607" on="1"/>
        <pt x="821" y="591" on="0"/>
        <pt x="803" y="531" on="1"/>
        <pt x="779" y="449" on="0"/>
        <pt x="689" y="129" on="0"/>
        <pt x="660" y="32" on="1"/>
        <pt x="656" y="19" on="0"/>
        <pt x="632" y="-2" on="0"/>
        <pt x="622" y="-2" on="1"/>
        <pt x="616" y="-2" on="0"/>
        <pt x="612" y="14" on="1"/>
        <pt x="598" y="54" on="0"/>
        <pt x="554" y="187" on="0"/>
        <pt x="511" y="316" on="0"/>
        <pt x="472" y="435" on="0"/>
        <pt x="460" y="472" on="1"/>
        <pt x="448" y="508" on="1"/>
        <pt x="421" y="421" on="0"/>
        <pt x="326" y="124" on="0"/>
        <pt x="298" y="32" on="1"/>
        <pt x="294" y="19" on="0"/>
        <pt x="270" y="-2" on="0"/>
        <pt x="260" y="-2" on="1"/>
        <pt x="254" y="-2" on="0"/>
        <pt x="250" y="14" on="1"/>
        <pt x="217" y="120" on="0"/>
        <pt x="109" y="471" on="0"/>
        <pt x="90" y="532" on="1"/>
        <pt x="89" y="536" on="0"/>
        <pt x="83" y="556" on="0"/>
        <pt x="81" y="563" on="0"/>
        <pt x="76" y="578" on="0"/>
        <pt x="73" y="584" on="0"/>
        <pt x="68" y="595" on="0"/>
        <pt x="64" y="602" on="0"/>
        <pt x="58" y="610" on="0"/>
        <pt x="54" y="613" on="1"/>
        <pt x="32" y="633" on="0"/>
        <pt x="-4" y="633" on="1"/>
        <pt x="-6" y="633" on="0"/>
        <pt x="-6" y="660" on="0"/>
        <pt x="-4" y="662" on="1"/>
        <pt x="111" y="657" on="0"/>
      </contour>
    </TTGlyph>
    <TTGlyph name="Wacute" xMin="-4" yMin="-2" xMax="904" yMax="880">
      <component glyphName="acutecomb.cap" x="394" y="19" flags="0x1004"/>
      <component glyphName="W" x="0" y="0" flags="0x1204"/>
    </TTGlyph>
    <TTGlyph name="Wcircumflex" xMin="-4" yMin="-2" xMax="904" yMax="829">
      <component glyphName="W" x="0" y="0" flags="0x1204"/>
      <component glyphName="uni0302.cap" x="734" y="-31" flags="0x1004"/>
    </TTGlyph>
    <TTGlyph name="Wdieresis" xMin="-4" yMin="-2" xMax="904" yMax="828">
      <component glyphName="uni0308.cap" x="300" y="16" flags="0x1004"/>
      <component glyphName="W" x="0" y="0" flags="0x1204"/>
    </TTGlyph>
    <TTGlyph name="Wgrave" xMin="-43" yMin="-2" xMax="904" yMax="880">
      <component glyphName="gravecomb.cap" x="310" y="19" flags="0x1004"/>
      <component glyphName="W" x="0" y="0" flags="0x1204"/>
    </TTGlyph>
    <TTGlyph name="X" xMin="-9" yMin="-3" xMax="670" yMax="662">
      <contour>
        <pt x="159" y="657" on="1"/>
        <pt x="187" y="657" on="0"/>
        <pt x="287" y="662" on="1"/>
        <pt x="289" y="658" on="0"/>
        <pt x="288" y="633" on="0"/>
        <pt x="285" y="633" on="1"/>
        <pt x="267" y="633" on="0"/>
        <pt x="225" y="618" on="0"/>
        <pt x="225" y="601" on="1"/>
        <pt x="225" y="589" on="0"/>
        <pt x="237" y="571" on="1"/>
        <pt x="353" y="393" on="1"/>
        <pt x="370" y="416" on="0"/>
        <pt x="446" y="516" on="0"/>
        <pt x="488" y="572" on="0"/>
        <pt x="499" y="590" on="1"/>
        <pt x="503" y="596" on="0"/>
        <pt x="503" y="606" on="1"/>
        <pt x="503" y="632" on="0"/>
        <pt x="436" y="632" on="1"/>
        <pt x="433" y="633" on="0"/>
        <pt x="432" y="656" on="0"/>
        <pt x="434" y="661" on="1"/>
        <pt x="501" y="656" on="0"/>
        <pt x="537" y="656" on="1"/>
        <pt x="587" y="656" on="0"/>
        <pt x="647" y="661" on="1"/>
        <pt x="650" y="658" on="0"/>
        <pt x="649" y="636" on="0"/>
        <pt x="645" y="632" on="1"/>
        <pt x="637" y="632" on="0"/>
        <pt x="612" y="627" on="0"/>
        <pt x="569" y="608" on="0"/>
        <pt x="556" y="592" on="1"/>
        <pt x="460" y="477" on="0"/>
        <pt x="372" y="360" on="1"/>
        <pt x="569" y="66" on="1"/>
        <pt x="582" y="46" on="0"/>
        <pt x="639" y="26" on="0"/>
        <pt x="667" y="26" on="1"/>
        <pt x="670" y="21" on="0"/>
        <pt x="669" y="-1" on="0"/>
        <pt x="668" y="-3" on="1"/>
        <pt x="568" y="2" on="0"/>
        <pt x="565" y="2" on="1"/>
        <pt x="559" y="2" on="0"/>
        <pt x="419" y="-3" on="1"/>
        <pt x="415" y="1" on="0"/>
        <pt x="415" y="26" on="0"/>
        <pt x="419" y="26" on="1"/>
        <pt x="433" y="26" on="0"/>
        <pt x="477" y="42" on="0"/>
        <pt x="477" y="54" on="1"/>
        <pt x="477" y="58" on="0"/>
        <pt x="472" y="66" on="1"/>
        <pt x="320" y="301" on="1"/>
        <pt x="180" y="114" on="0"/>
        <pt x="154" y="66" on="1"/>
        <pt x="149" y="51" on="0"/>
        <pt x="149" y="50" on="1"/>
        <pt x="149" y="26" on="0"/>
        <pt x="226" y="26" on="1"/>
        <pt x="229" y="22" on="0"/>
        <pt x="230" y="-1" on="0"/>
        <pt x="228" y="-3" on="1"/>
        <pt x="136" y="2" on="0"/>
        <pt x="115" y="2" on="1"/>
        <pt x="92" y="2" on="0"/>
        <pt x="-8" y="-3" on="1"/>
        <pt x="-10" y="2" on="0"/>
        <pt x="-8" y="23" on="0"/>
        <pt x="-6" y="26" on="1"/>
        <pt x="11" y="26" on="0"/>
        <pt x="83" y="47" on="0"/>
        <pt x="101" y="70" on="1"/>
        <pt x="135" y="113" on="0"/>
        <pt x="198" y="197" on="0"/>
        <pt x="271" y="298" on="0"/>
        <pt x="297" y="332" on="1"/>
        <pt x="156" y="548" on="1"/>
        <pt x="125" y="597" on="0"/>
        <pt x="90" y="617" on="1"/>
        <pt x="63" y="633" on="0"/>
        <pt x="34" y="633" on="1"/>
        <pt x="30" y="633" on="0"/>
        <pt x="30" y="658" on="0"/>
        <pt x="34" y="662" on="1"/>
        <pt x="156" y="657" on="0"/>
      </contour>
    </TTGlyph>
    <TTGlyph name="Xi" xMin="30" yMin="0" xMax="498" yMax="662">
      <contour>
        <pt x="155" y="661" on="1"/>
        <pt x="276" y="661" on="0"/>
        <pt x="388" y="662" on="1"/>
        <pt x="425" y="624" on="0"/>
        <pt x="457" y="546" on="1"/>
        <pt x="456" y="539" on="0"/>
        <pt x="436" y="528" on="0"/>
        <pt x="429" y="530" on="1"/>
        <pt x="371" y="617" on="0"/>
        <pt x="259" y="617" on="1"/>
        <pt x="198" y="617" on="1"/>
        <pt x="156" y="617" on="0"/>
        <pt x="94" y="581" on="0"/>
        <pt x="94" y="536" on="1"/>
        <pt x="92" y="532" on="0"/>
        <pt x="72" y="526" on="0"/>
        <pt x="67" y="529" on="1"/>
        <pt x="58" y="552" on="0"/>
        <pt x="39" y="632" on="1"/>
        <pt x="78" y="661" on="0"/>
      </contour>
      <contour>
        <pt x="221" y="358" on="1"/>
        <pt x="273" y="358" on="0"/>
        <pt x="332" y="374" on="0"/>
        <pt x="353" y="397" on="1"/>
        <pt x="355" y="400" on="0"/>
        <pt x="362" y="395" on="1"/>
        <pt x="369" y="384" on="0"/>
        <pt x="400" y="316" on="0"/>
        <pt x="406" y="297" on="1"/>
        <pt x="407" y="292" on="0"/>
        <pt x="396" y="282" on="0"/>
        <pt x="391" y="280" on="1"/>
        <pt x="387" y="282" on="0"/>
        <pt x="369" y="295" on="0"/>
        <pt x="364" y="298" on="0"/>
        <pt x="350" y="306" on="0"/>
        <pt x="344" y="308" on="0"/>
        <pt x="330" y="313" on="0"/>
        <pt x="321" y="314" on="0"/>
        <pt x="305" y="317" on="0"/>
        <pt x="289" y="317" on="0"/>
        <pt x="278" y="317" on="1"/>
        <pt x="226" y="317" on="0"/>
        <pt x="167" y="301" on="0"/>
        <pt x="146" y="278" on="1"/>
        <pt x="144" y="275" on="0"/>
        <pt x="137" y="280" on="1"/>
        <pt x="130" y="291" on="0"/>
        <pt x="99" y="359" on="0"/>
        <pt x="93" y="378" on="1"/>
        <pt x="92" y="383" on="0"/>
        <pt x="103" y="393" on="0"/>
        <pt x="108" y="395" on="1"/>
        <pt x="112" y="393" on="0"/>
        <pt x="130" y="380" on="0"/>
        <pt x="135" y="377" on="0"/>
        <pt x="149" y="369" on="0"/>
        <pt x="155" y="367" on="0"/>
        <pt x="169" y="362" on="0"/>
        <pt x="178" y="361" on="0"/>
        <pt x="194" y="358" on="0"/>
        <pt x="210" y="358" on="0"/>
      </contour>
      <contour>
        <pt x="282" y="43" on="1"/>
        <pt x="320" y="43" on="0"/>
        <pt x="389" y="62" on="0"/>
        <pt x="433" y="88" on="0"/>
        <pt x="468" y="119" on="0"/>
        <pt x="483" y="139" on="0"/>
        <pt x="485" y="144" on="1"/>
        <pt x="490" y="142" on="0"/>
        <pt x="498" y="126" on="0"/>
        <pt x="498" y="121" on="1"/>
        <pt x="498" y="105" on="0"/>
        <pt x="436" y="0" on="0"/>
        <pt x="404" y="0" on="1"/>
        <pt x="193" y="0" on="1"/>
        <pt x="105" y="0" on="0"/>
        <pt x="57" y="18" on="1"/>
        <pt x="49" y="35" on="0"/>
        <pt x="28" y="121" on="0"/>
        <pt x="30" y="144" on="1"/>
        <pt x="33" y="147" on="0"/>
        <pt x="60" y="137" on="0"/>
        <pt x="62" y="133" on="1"/>
        <pt x="92" y="75" on="0"/>
        <pt x="180" y="43" on="0"/>
      </contour>
    </TTGlyph>
    <TTGlyph name="Y" xMin="-14" yMin="-3" xMax="604" yMax="662">
      <contour>
        <pt x="261" y="116" on="1"/>
        <pt x="261" y="267" on="1"/>
        <pt x="261" y="281" on="0"/>
        <pt x="254" y="295" on="1"/>
        <pt x="223" y="351" on="0"/>
        <pt x="138" y="501" on="0"/>
        <pt x="112" y="548" on="1"/>
        <pt x="86" y="594" on="0"/>
        <pt x="46" y="617" on="1"/>
        <pt x="19" y="633" on="0"/>
        <pt x="-10" y="633" on="1"/>
        <pt x="-14" y="633" on="0"/>
        <pt x="-14" y="658" on="0"/>
        <pt x="-10" y="662" on="1"/>
        <pt x="112" y="657" on="0"/>
        <pt x="115" y="657" on="1"/>
        <pt x="143" y="657" on="0"/>
        <pt x="243" y="662" on="1"/>
        <pt x="245" y="658" on="0"/>
        <pt x="244" y="633" on="0"/>
        <pt x="241" y="633" on="1"/>
        <pt x="223" y="633" on="0"/>
        <pt x="181" y="618" on="0"/>
        <pt x="181" y="601" on="1"/>
        <pt x="181" y="590" on="0"/>
        <pt x="193" y="571" on="1"/>
        <pt x="332" y="331" on="1"/>
        <pt x="420" y="489" on="0"/>
        <pt x="462" y="590" on="1"/>
        <pt x="465" y="599" on="0"/>
        <pt x="465" y="611" on="0"/>
        <pt x="454" y="622" on="0"/>
        <pt x="421" y="632" on="0"/>
        <pt x="395" y="632" on="1"/>
        <pt x="393" y="632" on="0"/>
        <pt x="391" y="659" on="0"/>
        <pt x="393" y="661" on="1"/>
        <pt x="486" y="656" on="0"/>
        <pt x="493" y="656" on="1"/>
        <pt x="503" y="656" on="0"/>
        <pt x="603" y="661" on="1"/>
        <pt x="605" y="656" on="0"/>
        <pt x="603" y="632" on="0"/>
        <pt x="601" y="632" on="1"/>
        <pt x="535" y="632" on="0"/>
        <pt x="512" y="592" on="1"/>
        <pt x="482" y="538" on="0"/>
        <pt x="354" y="301" on="1"/>
        <pt x="349" y="292" on="0"/>
        <pt x="349" y="270" on="1"/>
        <pt x="348" y="116" on="1"/>
        <pt x="348" y="58" on="0"/>
        <pt x="353" y="42" on="1"/>
        <pt x="355" y="35" on="0"/>
        <pt x="407" y="26" on="0"/>
        <pt x="422" y="26" on="1"/>
        <pt x="425" y="22" on="0"/>
        <pt x="426" y="1" on="0"/>
        <pt x="422" y="-3" on="1"/>
        <pt x="320" y="2" on="0"/>
        <pt x="290" y="2" on="0"/>
        <pt x="187" y="-3" on="1"/>
        <pt x="183" y="1" on="0"/>
        <pt x="184" y="22" on="0"/>
        <pt x="187" y="26" on="1"/>
        <pt x="202" y="26" on="0"/>
        <pt x="254" y="35" on="0"/>
        <pt x="256" y="42" on="1"/>
        <pt x="261" y="58" on="0"/>
      </contour>
    </TTGlyph>
    <TTGlyph name="Yacute" xMin="-10" yMin="-3" xMax="603" yMax="861">
      <component glyphName="Y" x="0" y="0" flags="0x1204"/>
      <component glyphName="acutecomb.cap" x="640" y="0" flags="0x1004"/>
    </TTGlyph>
    <TTGlyph name="Ycircumflex" xMin="-10" yMin="-3" xMax="603" yMax="829">
      <component glyphName="Y" x="0" y="0" flags="0x1204"/>
      <component glyphName="uni0302.cap" x="571" y="-31" flags="0x1004"/>
    </TTGlyph>
    <TTGlyph name="Ydieresis" xMin="-10" yMin="-3" xMax="603" yMax="828">
      <component glyphName="Y" x="0" y="0" flags="0x1204"/>
      <component glyphName="uni0308.cap" x="149" y="16" flags="0x1004"/>
    </TTGlyph>
    <TTGlyph name="Ygrave" xMin="-217" yMin="-3" xMax="603" yMax="880">
      <component glyphName="gravecomb.cap" x="136" y="19" flags="0x1004"/>
      <component glyphName="Y" x="0" y="0" flags="0x1204"/>
    </TTGlyph>
    <TTGlyph name="Z" xMin="35" yMin="0" xMax="602" yMax="671">
      <contour>
        <pt x="216" y="626" on="1"/>
        <pt x="115" y="626" on="0"/>
        <pt x="80" y="495" on="1"/>
        <pt x="77" y="491" on="0"/>
        <pt x="69" y="491" on="1"/>
        <pt x="51" y="491" on="0"/>
        <pt x="43" y="499" on="1"/>
        <pt x="67" y="563" on="0"/>
        <pt x="76" y="669" on="1"/>
        <pt x="132" y="661" on="0"/>
        <pt x="158" y="661" on="1"/>
        <pt x="352" y="661" on="1"/>
        <pt x="422" y="661" on="0"/>
        <pt x="562" y="671" on="1"/>
        <pt x="566" y="670" on="0"/>
        <pt x="580" y="654" on="0"/>
        <pt x="580" y="649" on="1"/>
        <pt x="579" y="645" on="0"/>
        <pt x="368" y="338" on="0"/>
        <pt x="262" y="186" on="1"/>
        <pt x="157" y="35" on="1"/>
        <pt x="418" y="35" on="1"/>
        <pt x="475" y="35" on="0"/>
        <pt x="511" y="71" on="1"/>
        <pt x="536" y="96" on="0"/>
        <pt x="564" y="169" on="1"/>
        <pt x="566" y="172" on="0"/>
        <pt x="578" y="172" on="1"/>
        <pt x="593" y="172" on="0"/>
        <pt x="602" y="163" on="1"/>
        <pt x="559" y="22" on="0"/>
        <pt x="554" y="0" on="1"/>
        <pt x="53" y="0" on="1"/>
        <pt x="45" y="0" on="0"/>
        <pt x="32" y="10" on="0"/>
        <pt x="35" y="14" on="1"/>
        <pt x="460" y="626" on="1"/>
      </contour>
    </TTGlyph>
    <TTGlyph name="Zacute" xMin="35" yMin="0" xMax="602" yMax="861">
      <component glyphName="Z" x="0" y="0" flags="0x1204"/>
      <component glyphName="acutecomb.cap" x="617" y="0" flags="0x1004"/>
    </TTGlyph>
    <TTGlyph name="Zcaron" xMin="35" yMin="0" xMax="602" yMax="859">
      <component glyphName="Z" x="0" y="0" flags="0x1204"/>
      <component glyphName="uni030C.cap" x="212" y="0" flags="0x1004"/>
    </TTGlyph>
    <TTGlyph name="Zdotaccent" xMin="35" yMin="0" xMax="602" yMax="828">
      <component glyphName="Z" x="0" y="0" flags="0x1204"/>
      <component glyphName="uni0307.cap" x="602" y="0" flags="0x1004"/>
    </TTGlyph>
    <TTGlyph name="Zeta" xMin="33" yMin="0" xMax="515" yMax="672">
      <contour>
        <pt x="58" y="550" on="1"/>
        <pt x="54" y="548" on="0"/>
        <pt x="33" y="554" on="0"/>
        <pt x="33" y="557" on="1"/>
        <pt x="59" y="635" on="0"/>
        <pt x="92" y="663" on="1"/>
        <pt x="107" y="661" on="0"/>
        <pt x="132" y="661" on="1"/>
        <pt x="303" y="661" on="1"/>
        <pt x="396" y="661" on="0"/>
        <pt x="482" y="672" on="1"/>
        <pt x="494" y="664" on="0"/>
        <pt x="494" y="648" on="1"/>
        <pt x="141" y="50" on="1"/>
        <pt x="206" y="40" on="0"/>
        <pt x="321" y="40" on="1"/>
        <pt x="386" y="40" on="0"/>
        <pt x="481" y="90" on="0"/>
        <pt x="502" y="119" on="1"/>
        <pt x="507" y="117" on="0"/>
        <pt x="515" y="101" on="0"/>
        <pt x="515" y="96" on="1"/>
        <pt x="515" y="80" on="0"/>
        <pt x="468" y="0" on="0"/>
        <pt x="436" y="0" on="1"/>
        <pt x="115" y="0" on="1"/>
        <pt x="88" y="0" on="0"/>
        <pt x="39" y="21" on="0"/>
        <pt x="39" y="36" on="1"/>
        <pt x="65" y="69" on="0"/>
        <pt x="100" y="114" on="0"/>
        <pt x="133" y="166" on="0"/>
        <pt x="149" y="194" on="0"/>
        <pt x="194" y="273" on="0"/>
        <pt x="209" y="298" on="1"/>
        <pt x="242" y="355" on="0"/>
        <pt x="371" y="573" on="0"/>
        <pt x="399" y="621" on="1"/>
        <pt x="350" y="623" on="0"/>
        <pt x="182" y="615" on="1"/>
        <pt x="125" y="612" on="0"/>
      </contour>
    </TTGlyph>
    <TTGlyph name="a" xMin="37" yMin="-8" xMax="418" yMax="436">
      <contour>
        <pt x="187" y="46" on="1"/>
        <pt x="211" y="46" on="0"/>
        <pt x="274" y="78" on="0"/>
        <pt x="274" y="87" on="1"/>
        <pt x="274" y="223" on="1"/>
        <pt x="197" y="200" on="0"/>
        <pt x="181" y="194" on="1"/>
        <pt x="120" y="170" on="0"/>
        <pt x="120" y="116" on="1"/>
        <pt x="120" y="88" on="0"/>
        <pt x="159" y="46" on="0"/>
      </contour>
      <contour>
        <pt x="241" y="436" on="1"/>
        <pt x="284" y="436" on="0"/>
        <pt x="350" y="356" on="0"/>
        <pt x="350" y="299" on="1"/>
        <pt x="350" y="93" on="1"/>
        <pt x="350" y="46" on="0"/>
        <pt x="381" y="46" on="1"/>
        <pt x="394" y="46" on="0"/>
        <pt x="414" y="59" on="1"/>
        <pt x="418" y="59" on="0"/>
        <pt x="418" y="51" on="1"/>
        <pt x="418" y="40" on="0"/>
        <pt x="413" y="32" on="1"/>
        <pt x="401" y="21" on="0"/>
        <pt x="352" y="-6" on="0"/>
        <pt x="338" y="-6" on="1"/>
        <pt x="317" y="-6" on="0"/>
        <pt x="282" y="34" on="0"/>
        <pt x="277" y="59" on="1"/>
        <pt x="263" y="45" on="0"/>
        <pt x="177" y="-8" on="0"/>
        <pt x="154" y="-8" on="1"/>
        <pt x="104" y="-8" on="0"/>
        <pt x="37" y="58" on="0"/>
        <pt x="37" y="107" on="1"/>
        <pt x="37" y="136" on="0"/>
        <pt x="68" y="180" on="0"/>
        <pt x="87" y="187" on="1"/>
        <pt x="257" y="248" on="0"/>
        <pt x="262" y="250" on="1"/>
        <pt x="270" y="253" on="0"/>
        <pt x="274" y="262" on="0"/>
        <pt x="274" y="275" on="1"/>
        <pt x="274" y="302" on="1"/>
        <pt x="274" y="337" on="0"/>
        <pt x="223" y="398" on="0"/>
        <pt x="188" y="398" on="1"/>
        <pt x="163" y="398" on="0"/>
        <pt x="139" y="367" on="0"/>
        <pt x="133" y="336" on="1"/>
        <pt x="125" y="288" on="0"/>
        <pt x="86" y="288" on="1"/>
        <pt x="71" y="288" on="0"/>
        <pt x="52" y="314" on="0"/>
        <pt x="52" y="330" on="1"/>
        <pt x="52" y="345" on="0"/>
        <pt x="59" y="354" on="1"/>
        <pt x="90" y="383" on="0"/>
        <pt x="192" y="436" on="0"/>
      </contour>
    </TTGlyph>
    <TTGlyph name="a.sc" xMin="5" yMin="-3" xMax="495" yMax="452">
      <contour>
        <pt x="495" y="-3" on="1"/>
        <pt x="441" y="1" on="0"/>
        <pt x="351" y="1" on="0"/>
        <pt x="289" y="-3" on="1"/>
        <pt x="286" y="0" on="0"/>
        <pt x="287" y="23" on="0"/>
        <pt x="290" y="26" on="1"/>
        <pt x="334" y="26" on="0"/>
        <pt x="344" y="34" on="1"/>
        <pt x="347" y="37" on="0"/>
        <pt x="347" y="43" on="1"/>
        <pt x="347" y="51" on="0"/>
        <pt x="324" y="112" on="0"/>
        <pt x="313" y="138" on="1"/>
        <pt x="302" y="164" on="1"/>
        <pt x="300" y="166" on="0"/>
        <pt x="298" y="166" on="1"/>
        <pt x="289" y="167" on="0"/>
        <pt x="231" y="167" on="1"/>
        <pt x="193" y="167" on="0"/>
        <pt x="162" y="164" on="1"/>
        <pt x="160" y="163" on="1"/>
        <pt x="141" y="116" on="0"/>
        <pt x="119" y="56" on="0"/>
        <pt x="119" y="44" on="1"/>
        <pt x="119" y="34" on="0"/>
        <pt x="161" y="26" on="0"/>
        <pt x="173" y="26" on="1"/>
        <pt x="175" y="24" on="0"/>
        <pt x="176" y="1" on="0"/>
        <pt x="174" y="-3" on="1"/>
        <pt x="120" y="1" on="0"/>
        <pt x="96" y="1" on="1"/>
        <pt x="69" y="1" on="0"/>
        <pt x="7" y="-3" on="1"/>
        <pt x="5" y="-1" on="0"/>
        <pt x="5" y="22" on="0"/>
        <pt x="7" y="26" on="1"/>
        <pt x="17" y="26" on="0"/>
        <pt x="53" y="33" on="0"/>
        <pt x="58" y="39" on="1"/>
        <pt x="73" y="58" on="0"/>
        <pt x="90" y="99" on="1"/>
        <pt x="180" y="314" on="0"/>
        <pt x="222" y="419" on="1"/>
        <pt x="225" y="427" on="0"/>
        <pt x="260" y="452" on="0"/>
        <pt x="265" y="452" on="1"/>
        <pt x="266" y="452" on="0"/>
        <pt x="269" y="449" on="0"/>
        <pt x="270" y="449" on="1"/>
        <pt x="420" y="62" on="0"/>
        <pt x="426" y="49" on="1"/>
        <pt x="430" y="39" on="0"/>
        <pt x="483" y="26" on="0"/>
        <pt x="494" y="26" on="1"/>
        <pt x="501" y="15" on="0"/>
      </contour>
      <contour>
        <pt x="176" y="207" on="1"/>
        <pt x="212" y="205" on="0"/>
        <pt x="230" y="205" on="1"/>
        <pt x="254" y="205" on="0"/>
        <pt x="286" y="208" on="1"/>
        <pt x="287" y="210" on="1"/>
        <pt x="232" y="351" on="1"/>
        <pt x="174" y="209" on="1"/>
        <pt x="175" y="207" on="0"/>
      </contour>
    </TTGlyph>
    <TTGlyph name="aacute" xMin="37" yMin="-8" xMax="418" yMax="654">
      <component glyphName="a" x="0" y="0" flags="0x1204"/>
      <component glyphName="acutecomb" x="470" y="-4" flags="0x1004"/>
    </TTGlyph>
    <TTGlyph name="aacute.sc" xMin="7" yMin="-3" xMax="495" yMax="653">
      <component glyphName="acutecomb" x="519" y="-5" flags="0x1004"/>
      <component glyphName="a.sc" x="0" y="0" flags="0x1204"/>
    </TTGlyph>
    <TTGlyph name="abreve" xMin="37" yMin="-8" xMax="418" yMax="618">
      <component glyphName="a" x="0" y="0" flags="0x1204"/>
      <component glyphName="uni0306" x="472" y="0" flags="0x1004"/>
    </TTGlyph>
    <TTGlyph name="abreve.sc" xMin="7" yMin="-3" xMax="495" yMax="620">
      <component glyphName="uni0306" x="518" y="2" flags="0x1004"/>
      <component glyphName="a.sc" x="0" y="0" flags="0x1204"/>
    </TTGlyph>
    <TTGlyph name="acircumflex" xMin="37" yMin="-8" xMax="418" yMax="646">
      <component glyphName="a" x="0" y="0" flags="0x1204"/>
      <component glyphName="uni0302" x="481" y="-5" flags="0x1004"/>
    </TTGlyph>
</ttFont>
